<svg width="138" height="82" viewBox="0 0 138 82" fill="none" xmlns="http://www.w3.org/2000/svg">
<path d="M33.0122 76.3463V75.8144H35.1667V76.3463L34.4952 76.4636V78.5701H37.4036V76.4636L36.7321 76.3463V75.8144H38.8866V76.3463L38.2151 76.4636V81.2671L38.8866 81.3844V81.9121H36.7321V81.3844L37.4036 81.2671V79.2192H34.4952V81.2671L35.1667 81.3844V81.9121H33.0122V81.3844L33.6837 81.2671V76.4636L33.0122 76.3463Z" fill="#999591"/>
<path d="M42.4788 81.9121C42.454 81.7892 42.4348 81.6789 42.4211 81.5812C42.4074 81.4835 42.3977 81.3858 42.3922 81.2881C42.2357 81.4919 42.0393 81.6622 41.8032 81.799C41.5697 81.933 41.3198 82 41.0534 82C40.5893 82 40.2364 81.8855 39.9947 81.6566C39.753 81.4249 39.6322 81.0996 39.6322 80.6808C39.6322 80.2508 39.8025 79.92 40.143 79.6883C40.4863 79.4537 40.9559 79.3365 41.5519 79.3365H42.3881V78.8088C42.3881 78.5436 42.3057 78.3342 42.141 78.1806C41.9762 78.0243 41.7469 77.9461 41.453 77.9461C41.2498 77.9461 41.0699 77.9726 40.9134 78.0257C40.7596 78.0787 40.6346 78.1513 40.5385 78.2434L40.452 78.7209H39.8258V77.8414C40.029 77.6767 40.2748 77.5455 40.5632 77.4477C40.8516 77.3472 41.1646 77.297 41.5024 77.297C42.0078 77.297 42.417 77.4282 42.73 77.6906C43.0431 77.9531 43.1997 78.3286 43.1997 78.8172V80.9991C43.1997 81.0577 43.1997 81.115 43.1997 81.1708C43.2024 81.2266 43.2065 81.2825 43.212 81.3383L43.5416 81.3844V81.9121H42.4788ZM41.1729 81.309C41.442 81.309 41.6878 81.2434 41.9103 81.1122C42.1327 80.9809 42.292 80.8232 42.3881 80.6389V79.8935H41.523C41.1907 79.8935 40.9271 79.9717 40.7321 80.128C40.5399 80.2844 40.4437 80.4742 40.4437 80.6976C40.4437 80.8958 40.5042 81.0479 40.625 81.154C40.7458 81.2573 40.9285 81.309 41.1729 81.309Z" fill="#999591"/>
<path d="M44.2172 81.3844L44.8886 81.2671V78.0299L44.2172 77.9126V77.3807H45.7002V81.2671L46.3717 81.3844V81.9121H44.2172V81.3844ZM45.7002 76.2207H44.8886V75.3789H45.7002V76.2207Z" fill="#999591"/>
<path d="M46.9937 77.9126V77.3807H48.3902L48.4685 78.0382C48.5948 77.8065 48.75 77.625 48.934 77.4938C49.1207 77.3626 49.3336 77.297 49.5725 77.297C49.6357 77.297 49.7002 77.3026 49.7661 77.3137C49.8348 77.3221 49.8869 77.3319 49.9226 77.343L49.8155 78.1094L49.3542 78.0843C49.1399 78.0843 48.9601 78.136 48.8145 78.2393C48.669 78.3398 48.5564 78.4822 48.4767 78.6664V81.2671L49.1482 81.3844V81.9121H46.9937V81.3844L47.6652 81.2671V78.0299L46.9937 77.9126Z" fill="#999591"/>
<path d="M52.4067 81.3551C52.6758 81.3551 52.912 81.2713 53.1152 81.1038C53.3212 80.9335 53.4242 80.7255 53.4242 80.4798H54.1533L54.1616 80.5049C54.1753 80.8958 54.0037 81.2434 53.6466 81.5477C53.2924 81.8492 52.8791 82 52.4067 82C51.7586 82 51.2628 81.785 50.9196 81.3551C50.579 80.9251 50.4087 80.3849 50.4087 79.7343V79.5584C50.4087 78.9135 50.5804 78.3761 50.9237 77.9461C51.267 77.5133 51.7613 77.297 52.4067 77.297C52.7637 77.297 53.0837 77.357 53.3665 77.4771C53.6521 77.5971 53.8883 77.7618 54.0751 77.9712L54.1121 78.9763H53.4654L53.2883 78.2644C53.1921 78.1695 53.0685 78.0927 52.9175 78.034C52.7665 77.9754 52.5962 77.9461 52.4067 77.9461C51.981 77.9461 51.6762 78.1024 51.4922 78.4151C51.3109 78.7251 51.2203 79.1062 51.2203 79.5584V79.7343C51.2203 80.1978 51.3109 80.5845 51.4922 80.8944C51.6734 81.2015 51.9783 81.3551 52.4067 81.3551Z" fill="#999591"/>
<path d="M58.141 81.242C58.0009 81.4849 57.8197 81.6719 57.5972 81.8032C57.3775 81.9344 57.1235 82 56.8351 82C56.3518 82 55.9741 81.8423 55.7023 81.5268C55.4304 81.2113 55.2944 80.7199 55.2944 80.0526V78.0299L54.7836 77.9126V77.3807H56.106V80.061C56.106 80.544 56.176 80.8762 56.3161 81.0577C56.4561 81.2392 56.6745 81.3299 56.9711 81.3299C57.2594 81.3299 57.497 81.2713 57.6837 81.154C57.8732 81.034 58.016 80.8651 58.1122 80.6473V78.0299L57.5148 77.9126V77.3807H58.9237V81.2671L59.4345 81.3844V81.9121H58.1945L58.141 81.242Z" fill="#999591"/>
<path d="M61.4942 76.2877V77.3807H62.3387V77.9922H61.4942V80.7436C61.4942 80.9558 61.5368 81.1052 61.6219 81.1917C61.7098 81.2783 61.8252 81.3216 61.968 81.3216C62.0394 81.3216 62.119 81.316 62.2069 81.3048C62.2975 81.2908 62.3731 81.2769 62.4335 81.2629L62.5447 81.8283C62.4678 81.8786 62.3552 81.919 62.2069 81.9497C62.0586 81.9832 61.9103 82 61.762 82C61.4325 82 61.1702 81.8995 60.9752 81.6985C60.7802 81.4947 60.6827 81.1764 60.6827 80.7436V77.9922H59.9783V77.3807H60.6827V76.2877H61.4942Z" fill="#999591"/>
<path d="M66.5777 78.8046H65.968L65.8362 78.2602C65.7373 78.1653 65.6123 78.0899 65.4613 78.034C65.313 77.9754 65.1441 77.9461 64.9546 77.9461C64.6662 77.9461 64.452 78.0103 64.312 78.1387C64.1719 78.2672 64.1019 78.4221 64.1019 78.6036C64.1019 78.7823 64.1637 78.9233 64.2872 79.0266C64.4108 79.1299 64.6621 79.222 65.0411 79.303C65.6041 79.4258 66.0229 79.5933 66.2976 79.8055C66.5722 80.0149 66.7095 80.2969 66.7095 80.6515C66.7095 81.0535 66.5488 81.3788 66.2275 81.6273C65.9089 81.8758 65.4915 82 64.9752 82C64.6374 82 64.3339 81.9609 64.0648 81.8827C63.7957 81.8018 63.5554 81.6859 63.3439 81.5351L63.3398 80.5007H63.9494L64.1019 81.108C64.1952 81.1945 64.3216 81.2573 64.4809 81.2964C64.6429 81.3355 64.8077 81.3551 64.9752 81.3551C65.2636 81.3551 65.4888 81.2964 65.6508 81.1792C65.8156 81.0591 65.898 80.9028 65.898 80.7101C65.898 80.5286 65.8293 80.3793 65.692 80.262C65.5574 80.1448 65.3006 80.0428 64.9216 79.9563C64.3806 79.8362 63.9728 79.6729 63.6982 79.4663C63.4235 79.2597 63.2862 78.9805 63.2862 78.6287C63.2862 78.2602 63.44 77.9461 63.7476 77.6864C64.0579 77.4268 64.4603 77.297 64.9546 77.297C65.2924 77.297 65.5959 77.3416 65.865 77.431C66.1341 77.5203 66.358 77.6446 66.5365 77.8037L66.5777 78.8046Z" fill="#999591"/>
<path d="M69.5066 80.2704C69.5066 79.9298 69.6027 79.6324 69.795 79.3784C69.99 79.1215 70.2797 78.8646 70.6642 78.6078C70.45 78.3314 70.2907 78.0857 70.1863 77.8707C70.082 77.6529 70.0298 77.4296 70.0298 77.2006C70.0298 76.7288 70.163 76.3659 70.4294 76.1118C70.6985 75.8549 71.0679 75.7265 71.5375 75.7265C71.9714 75.7265 72.3243 75.8535 72.5962 76.1076C72.8681 76.3617 73.0041 76.6674 73.0041 77.0248C73.0041 77.2984 72.9313 77.5357 72.7857 77.7367C72.6429 77.9349 72.4301 78.1387 72.1472 78.3481L71.6982 78.6832L73.0988 80.396C73.2114 80.2146 73.2993 80.0135 73.3624 79.793C73.4256 79.5724 73.4572 79.3393 73.4572 79.0936H74.1822C74.1822 79.4593 74.1287 79.7986 74.0216 80.1112C73.9145 80.4239 73.7593 80.7045 73.5561 80.953L74.3182 81.8911L74.3099 81.9121H73.3666L73.0164 81.4849C72.7967 81.6524 72.5537 81.7808 72.2873 81.8702C72.0209 81.9567 71.7449 82 71.4592 82C70.8633 82 70.3882 81.8395 70.0339 81.5184C69.6824 81.1973 69.5066 80.7813 69.5066 80.2704ZM71.4592 81.3551C71.657 81.3551 71.852 81.3216 72.0442 81.2546C72.2365 81.1848 72.4177 81.0856 72.588 80.9572L71.1009 79.1355L70.9361 79.2569C70.6862 79.4468 70.52 79.6282 70.4376 79.8013C70.358 79.9744 70.3182 80.1308 70.3182 80.2704C70.3182 80.5859 70.4156 80.8455 70.6106 81.0493C70.8056 81.2532 71.0885 81.3551 71.4592 81.3551ZM70.8413 77.1923C70.8413 77.3402 70.8784 77.4952 70.9526 77.6571C71.0267 77.8163 71.1379 77.9908 71.2862 78.1806L71.8547 77.7828C72.0113 77.6767 72.117 77.5622 72.1719 77.4394C72.2296 77.3137 72.2584 77.1755 72.2584 77.0248C72.2584 76.8544 72.1911 76.7037 72.0566 76.5725C71.9248 76.4412 71.7517 76.3756 71.5375 76.3756C71.3151 76.3756 71.1434 76.4552 71.0226 76.6143C70.9017 76.7707 70.8413 76.9633 70.8413 77.1923Z" fill="#999591"/>
<path d="M81.2512 77.6153H80.6374L80.485 76.7442C80.3614 76.6381 80.1967 76.5501 79.9907 76.4803C79.7847 76.4105 79.5458 76.3756 79.2739 76.3756C78.8427 76.3756 78.5118 76.4692 78.2811 76.6562C78.0504 76.8405 77.9351 77.082 77.9351 77.3807C77.9351 77.646 78.0518 77.8679 78.2852 78.0466C78.5214 78.2225 78.9018 78.3775 79.4263 78.5115C80.058 78.6706 80.5372 78.9051 80.864 79.215C81.1936 79.5249 81.3583 79.9088 81.3583 80.3667C81.3583 80.8581 81.1606 81.2532 80.7651 81.5519C80.3724 81.8506 79.8575 82 79.2203 82C78.759 82 78.3484 81.9232 77.9886 81.7697C77.6316 81.6161 77.3405 81.4151 77.1153 81.1666V80.0317H77.725L77.8815 80.907C78.038 81.0382 78.2248 81.1457 78.4418 81.2294C78.6587 81.3132 78.9182 81.3551 79.2203 81.3551C79.6295 81.3551 79.9522 81.2671 80.1884 81.0912C80.4273 80.9153 80.5468 80.6766 80.5468 80.3751C80.5468 80.0959 80.4438 79.8628 80.2378 79.6757C80.0319 79.4859 79.668 79.3267 79.1462 79.1983C78.5118 79.0447 78.0161 78.8186 77.6591 78.5198C77.302 78.2211 77.1235 77.8456 77.1235 77.3933C77.1235 76.9159 77.3226 76.5194 77.7208 76.2039C78.1191 75.8856 78.6367 75.7265 79.2739 75.7265C79.6941 75.7265 80.0758 75.8005 80.4191 75.9485C80.7651 76.0936 81.0425 76.2709 81.2512 76.4803V77.6153Z" fill="#999591"/>
<path d="M82.0133 81.3844L82.6848 81.2671V76.028L82.0133 75.9108V75.3789H83.4963V77.9838C83.6501 77.766 83.8383 77.5971 84.0607 77.4771C84.2832 77.357 84.5303 77.297 84.8022 77.297C85.2801 77.297 85.6508 77.4422 85.9145 77.7325C86.1781 78.0229 86.31 78.4696 86.31 79.0726V81.2671L86.9814 81.3844V81.9121H84.8269V81.3844L85.4984 81.2671V79.0643C85.4984 78.6902 85.4188 78.4137 85.2595 78.2351C85.1029 78.0564 84.8681 77.967 84.5551 77.967C84.3326 77.967 84.1294 78.0215 83.9454 78.1304C83.7641 78.2365 83.6144 78.3816 83.4963 78.5659V81.2671L84.1678 81.3844V81.9121H82.0133V81.3844Z" fill="#999591"/>
<path d="M90.4789 81.9121C90.4541 81.7892 90.4349 81.6789 90.4212 81.5812C90.4075 81.4835 90.3978 81.3858 90.3923 81.2881C90.2358 81.4919 90.0394 81.6622 89.8033 81.799C89.5698 81.933 89.3199 82 89.0535 82C88.5894 82 88.2365 81.8855 87.9948 81.6566C87.7531 81.4249 87.6323 81.0996 87.6323 80.6808C87.6323 80.2508 87.8026 79.92 88.1431 79.6883C88.4864 79.4537 88.956 79.3365 89.552 79.3365H90.3882V78.8088C90.3882 78.5436 90.3058 78.3342 90.1411 78.1806C89.9763 78.0243 89.747 77.9461 89.4531 77.9461C89.2499 77.9461 89.07 77.9726 88.9135 78.0257C88.7597 78.0787 88.6347 78.1513 88.5386 78.2434L88.4521 78.7209H87.8259V77.8414C88.0291 77.6767 88.2749 77.5455 88.5633 77.4477C88.8517 77.3472 89.1647 77.297 89.5025 77.297C90.0079 77.297 90.4171 77.4282 90.7301 77.6906C91.0432 77.9531 91.1998 78.3286 91.1998 78.8172V80.9991C91.1998 81.0577 91.1998 81.115 91.1998 81.1708C91.2025 81.2266 91.2066 81.2825 91.2121 81.3383L91.5417 81.3844V81.9121H90.4789ZM89.173 81.309C89.4421 81.309 89.6879 81.2434 89.9104 81.1122C90.1328 80.9809 90.2921 80.8232 90.3882 80.6389V79.8935H89.5231C89.1908 79.8935 88.9272 79.9717 88.7322 80.128C88.54 80.2844 88.4438 80.4742 88.4438 80.6976C88.4438 80.8958 88.5043 81.0479 88.6251 81.154C88.7459 81.2573 88.9286 81.309 89.173 81.309Z" fill="#999591"/>
<path d="M93.6797 77.9126L93.1442 77.9964L94.0628 80.5761L94.1369 80.9028H94.1617L94.2399 80.5761L95.1297 77.9964L94.5901 77.9126V77.3807H96.312V77.9126L95.9454 77.9754L94.45 81.9121H93.8362L92.3244 77.9754L91.9577 77.9126V77.3807H93.6797V77.9126Z" fill="#999591"/>
<path d="M98.8414 82C98.2207 82 97.7264 81.7906 97.3584 81.3718C96.9931 80.9502 96.8105 80.4044 96.8105 79.7343V79.5501C96.8105 78.9051 96.9986 78.3691 97.3749 77.9419C97.7538 77.512 98.2015 77.297 98.7178 77.297C99.3165 77.297 99.7696 77.4812 100.077 77.8498C100.388 78.2183 100.543 78.7097 100.543 79.3239V79.839H97.6509L97.6385 79.86C97.6467 80.2955 97.7552 80.6543 97.9639 80.9363C98.1727 81.2155 98.4651 81.3551 98.8414 81.3551C99.116 81.3551 99.3563 81.316 99.5623 81.2378C99.771 81.1568 99.9509 81.0466 100.102 80.907L100.419 81.443C100.26 81.5994 100.048 81.732 99.7847 81.8409C99.5238 81.947 99.2094 82 98.8414 82ZM98.7178 77.9461C98.4459 77.9461 98.2139 78.0634 98.0216 78.2979C97.8294 78.5296 97.7113 78.8214 97.6673 79.1732L97.6756 79.1941H99.7312V79.0852C99.7312 78.7613 99.6461 78.4905 99.4758 78.2728C99.3055 78.055 99.0529 77.9461 98.7178 77.9461Z" fill="#999591"/>
<path d="M104.757 78.8046H104.147L104.015 78.2602C103.917 78.1653 103.792 78.0899 103.641 78.034C103.492 77.9754 103.323 77.9461 103.134 77.9461C102.846 77.9461 102.631 78.0103 102.491 78.1387C102.351 78.2672 102.281 78.4221 102.281 78.6036C102.281 78.7823 102.343 78.9233 102.467 79.0266C102.59 79.1299 102.841 79.222 103.22 79.303C103.783 79.4258 104.202 79.5933 104.477 79.8055C104.751 80.0149 104.889 80.2969 104.889 80.6515C104.889 81.0535 104.728 81.3788 104.407 81.6273C104.088 81.8758 103.671 82 103.154 82C102.817 82 102.513 81.9609 102.244 81.8827C101.975 81.8018 101.735 81.6859 101.523 81.5351L101.519 80.5007H102.129L102.281 81.108C102.375 81.1945 102.501 81.2573 102.66 81.2964C102.822 81.3355 102.987 81.3551 103.154 81.3551C103.443 81.3551 103.668 81.2964 103.83 81.1792C103.995 81.0591 104.077 80.9028 104.077 80.7101C104.077 80.5286 104.009 80.3793 103.871 80.262C103.737 80.1448 103.48 80.0428 103.101 79.9563C102.56 79.8362 102.152 79.6729 101.877 79.4663C101.603 79.2597 101.465 78.9805 101.465 78.6287C101.465 78.2602 101.619 77.9461 101.927 77.6864C102.237 77.4268 102.64 77.297 103.134 77.297C103.472 77.297 103.775 77.3416 104.044 77.431C104.313 77.5203 104.537 77.6446 104.716 77.8037L104.757 78.8046Z" fill="#999591"/>
<path d="M49.8774 5.56993L50.3223 5.50711L52.4192 0H53.1153L55.1751 5.50711L55.6159 5.56993V6.0976H53.8939V5.56993L54.3471 5.49036L53.9516 4.368H51.5499L51.1421 5.49036L51.5953 5.56993V6.0976H49.8774V5.56993ZM51.8012 3.67699H53.7044L52.7734 1.05954H52.7487L51.8012 3.67699Z" fill="#999591"/>
<path d="M57.2678 2.09815L56.757 2.19028L57.3378 4.44757L57.4326 4.99618H57.4573L57.5726 4.44757L58.4624 1.56628H59.1133L60.0072 4.44757L60.1349 5.059H60.1596L60.2791 4.44757L60.827 2.19028L60.3079 2.09815V1.56628H62.0052V2.09815L61.6179 2.15678L60.4933 6.0976H59.8383L58.9732 3.33777L58.7879 2.57557L58.7631 2.57976L58.5901 3.33777L57.7415 6.0976H57.0865L55.9619 2.15678L55.5706 2.09815V1.56628H57.2678V2.09815Z" fill="#999591"/>
<path d="M64.6993 6.18555C64.0786 6.18555 63.5843 5.97615 63.2163 5.55736C62.851 5.13578 62.6684 4.58995 62.6684 3.91989V3.73562C62.6684 3.09068 62.8565 2.55463 63.2328 2.12746C63.6118 1.6975 64.0594 1.48252 64.5757 1.48252C65.1744 1.48252 65.6276 1.66679 65.9351 2.03533C66.2455 2.40386 66.4006 2.89525 66.4006 3.50947V4.02459H63.5088L63.4964 4.04553C63.5047 4.48107 63.6131 4.83983 63.8219 5.12182C64.0306 5.40101 64.3231 5.54061 64.6993 5.54061C64.9739 5.54061 65.2142 5.50152 65.4202 5.42335C65.6289 5.34238 65.8088 5.2321 65.9599 5.0925L66.2771 5.62856C66.1178 5.78491 65.9063 5.91752 65.6427 6.02641C65.3818 6.1325 65.0673 6.18555 64.6993 6.18555ZM64.5757 2.13165C64.3038 2.13165 64.0718 2.24891 63.8795 2.48343C63.6873 2.71516 63.5692 3.00692 63.5253 3.35871L63.5335 3.37965H65.5891V3.27076C65.5891 2.9469 65.504 2.67608 65.3337 2.45831C65.1634 2.24053 64.9108 2.13165 64.5757 2.13165Z" fill="#999591"/>
<path d="M70.6149 2.99017H70.0052L69.8734 2.44574C69.7745 2.35082 69.6495 2.27543 69.4985 2.21959C69.3502 2.16096 69.1813 2.13165 68.9918 2.13165C68.7034 2.13165 68.4892 2.19586 68.3492 2.32429C68.2091 2.45272 68.1391 2.60767 68.1391 2.78915C68.1391 2.96784 68.2009 3.10883 68.3244 3.21213C68.448 3.31543 68.6993 3.40757 69.0783 3.48853C69.6413 3.61138 70.0601 3.7789 70.3347 3.99108C70.6094 4.20048 70.7467 4.48246 70.7467 4.83704C70.7467 5.23908 70.586 5.56434 70.2647 5.81283C69.9461 6.06131 69.5287 6.18555 69.0124 6.18555C68.6746 6.18555 68.3711 6.14646 68.102 6.06829C67.8328 5.98732 67.5925 5.87146 67.3811 5.72069L67.377 4.68628H67.9866L68.1391 5.29352C68.2324 5.38007 68.3588 5.44289 68.5181 5.48198C68.6801 5.52107 68.8449 5.54061 69.0124 5.54061C69.3008 5.54061 69.526 5.48198 69.688 5.36472C69.8528 5.24467 69.9352 5.08832 69.9352 4.89567C69.9352 4.7142 69.8665 4.56483 69.7292 4.44757C69.5946 4.3303 69.3378 4.2284 68.9588 4.14185C68.4178 4.02179 68.01 3.85847 67.7354 3.65186C67.4607 3.44526 67.3234 3.16606 67.3234 2.81428C67.3234 2.44574 67.4772 2.13165 67.7848 1.872C68.0951 1.61235 68.4975 1.48252 68.9918 1.48252C69.3296 1.48252 69.6331 1.52719 69.9022 1.61654C70.1713 1.70588 70.3952 1.83012 70.5737 1.98926L70.6149 2.99017Z" fill="#999591"/>
<path d="M71.5088 3.79006C71.5088 3.12 71.6873 2.56859 72.0443 2.13584C72.4013 1.70029 72.8861 1.48252 73.4985 1.48252C74.1137 1.48252 74.5998 1.6989 74.9568 2.13165C75.3166 2.5644 75.4964 3.1172 75.4964 3.79006V3.8822C75.4964 4.55785 75.3179 5.11065 74.9609 5.54061C74.6039 5.97057 74.1192 6.18555 73.5067 6.18555C72.8888 6.18555 72.4013 5.97057 72.0443 5.54061C71.6873 5.10786 71.5088 4.55506 71.5088 3.8822V3.79006ZM72.3203 3.8822C72.3203 4.36241 72.4192 4.75887 72.6169 5.07156C72.8174 5.38426 73.114 5.54061 73.5067 5.54061C73.8912 5.54061 74.1837 5.38426 74.3842 5.07156C74.5847 4.75887 74.6849 4.36241 74.6849 3.8822V3.79006C74.6849 3.31543 74.5847 2.92037 74.3842 2.60488C74.1837 2.28939 73.8885 2.13165 73.4985 2.13165C73.1085 2.13165 72.8147 2.28939 72.6169 2.60488C72.4192 2.92037 72.3203 3.31543 72.3203 3.79006V3.8822Z" fill="#999591"/>
<path d="M76.0814 5.56993L76.7529 5.45266V2.21541L76.0814 2.09815V1.56628H77.482L77.5356 2.15678C77.6784 1.9418 77.8624 1.77568 78.0876 1.65841C78.3128 1.54115 78.5737 1.48252 78.8703 1.48252C79.1669 1.48252 79.4209 1.55232 79.6324 1.69192C79.8466 1.83151 80.0073 2.04091 80.1144 2.3201C80.2544 2.06325 80.4398 1.85943 80.6705 1.70867C80.9012 1.5579 81.1703 1.48252 81.4779 1.48252C81.9338 1.48252 82.2936 1.64166 82.5572 1.95994C82.8209 2.27543 82.9527 2.75146 82.9527 3.38802V5.45266L83.6242 5.56993V6.0976H81.4656V5.56993L82.137 5.45266V3.37965C82.137 2.93294 82.0615 2.61745 81.9105 2.43318C81.7594 2.24612 81.5356 2.15259 81.239 2.15259C80.9561 2.15259 80.7282 2.25449 80.5552 2.45831C80.3849 2.65933 80.286 2.91339 80.2586 3.22051V5.45266L80.93 5.56993V6.0976H78.7755V5.56993L79.447 5.45266V3.37965C79.447 2.95527 79.3687 2.64537 79.2122 2.44993C79.0584 2.2517 78.8346 2.15259 78.5407 2.15259C78.2936 2.15259 78.0903 2.20424 77.9311 2.30754C77.7718 2.41084 77.6496 2.55602 77.5644 2.74308V5.45266L78.2359 5.56993V6.0976H76.0814V5.56993Z" fill="#999591"/>
<path d="M86.2112 6.18555C85.5905 6.18555 85.0962 5.97615 84.7282 5.55736C84.3629 5.13578 84.1803 4.58995 84.1803 3.91989V3.73562C84.1803 3.09068 84.3684 2.55463 84.7447 2.12746C85.1236 1.6975 85.5713 1.48252 86.0876 1.48252C86.6863 1.48252 87.1394 1.66679 87.447 2.03533C87.7574 2.40386 87.9125 2.89525 87.9125 3.50947V4.02459H85.0207L85.0083 4.04553C85.0165 4.48107 85.125 4.83983 85.3337 5.12182C85.5425 5.40101 85.8349 5.54061 86.2112 5.54061C86.4858 5.54061 86.7261 5.50152 86.9321 5.42335C87.1408 5.34238 87.3207 5.2321 87.4717 5.0925L87.7889 5.62856C87.6297 5.78491 87.4182 5.91752 87.1545 6.02641C86.8937 6.1325 86.5792 6.18555 86.2112 6.18555ZM86.0876 2.13165C85.8157 2.13165 85.5837 2.24891 85.3914 2.48343C85.1992 2.71516 85.0811 3.00692 85.0371 3.35871L85.0454 3.37965H87.101V3.27076C87.101 2.9469 87.0159 2.67608 86.8456 2.45831C86.6753 2.24053 86.4227 2.13165 86.0876 2.13165Z" fill="#999591"/>
<rect y="64.9104" width="138" height="1.22526" fill="#FF9000"/>
<rect y="15.8997" width="138" height="1.22526" fill="#FF9000"/>
<path d="M31.9631 39.6553V48.2665C31.9631 48.9983 31.8169 49.6959 31.5244 50.3592C31.2545 50.9996 30.8833 51.56 30.4108 52.0403C29.9383 52.5206 29.3759 52.8979 28.7235 53.1724C28.0935 53.4697 27.4186 53.6184 26.6987 53.6184C25.9787 53.6184 25.3038 53.4812 24.6739 53.2067C24.0439 52.9323 23.4927 52.5663 23.0203 52.1089C22.5478 51.6286 22.1653 51.0797 21.8729 50.4621C21.6029 49.8217 21.4567 49.1356 21.4342 48.4037V42.0568C21.3667 41.3478 21.0517 40.8332 20.4893 40.513C20.8042 40.3529 21.1192 40.2728 21.4342 40.2728V32.1763C21.4567 31.4444 21.6029 30.7582 21.8729 30.1178C22.1653 29.4774 22.5478 28.9285 23.0203 28.4711C23.4927 27.9908 24.0439 27.6134 24.6739 27.3389C25.3038 27.0645 25.9787 26.9272 26.6987 26.9272C27.4186 26.9272 28.0935 27.0759 28.7235 27.3732C29.3759 27.6477 29.9383 28.0251 30.4108 28.5054C30.8833 28.9857 31.2545 29.5575 31.5244 30.2208C31.8169 30.8612 31.9631 31.5587 31.9631 32.3135C31.9631 32.7023 31.9969 32.9882 32.0644 33.1712C32.1544 33.3542 32.2444 33.5028 32.3344 33.6172C32.4244 33.7315 32.5031 33.8345 32.5706 33.926C32.6606 34.0174 32.7056 34.1661 32.7056 34.372H30.9507C30.5908 34.3262 30.4108 34.1318 30.4108 33.7887C30.4108 34.1318 30.2308 34.3262 29.8708 34.372H28.0823C28.0823 34.1661 28.116 34.0174 28.1835 33.926C28.2735 33.8345 28.3635 33.7315 28.4535 33.6172C28.5435 33.5028 28.6222 33.3542 28.6897 33.1712C28.7797 32.9882 28.8247 32.6909 28.8247 32.2792V32.2449C28.8247 31.9476 28.8135 31.5931 28.791 31.1814C28.7685 30.7468 28.6897 30.3351 28.5547 29.9463C28.4197 29.5575 28.206 29.2258 27.9135 28.9514C27.6211 28.6769 27.2161 28.5397 26.6987 28.5397C26.1587 28.5397 25.7425 28.6884 25.45 28.9857C25.1801 29.2601 24.9776 29.5918 24.8426 29.9806C24.7076 30.3694 24.6289 30.7811 24.6064 31.2157C24.5839 31.6502 24.5726 32.0162 24.5726 32.3135V40.2728C24.8876 40.2728 25.2026 40.3529 25.5175 40.513C24.9551 40.8332 24.6401 41.3478 24.5726 42.0568V48.2665C24.5726 48.5638 24.5839 48.9297 24.6064 49.3643C24.6289 49.776 24.7076 50.1877 24.8426 50.5994C24.9776 50.9882 25.1801 51.3198 25.45 51.5943C25.7425 51.8687 26.1587 52.006 26.6987 52.006C27.2386 52.006 27.6436 51.8687 27.9135 51.5943C28.206 51.3198 28.4197 50.9882 28.5547 50.5994C28.6897 50.1877 28.7685 49.776 28.791 49.3643C28.8135 48.9297 28.8247 48.5638 28.8247 48.2665V41.2334C28.5772 41.2563 28.3635 41.3592 28.1835 41.5422C28.026 41.7252 27.9473 41.9425 27.9473 42.194V42.2283C27.9248 42.5714 27.8348 42.8688 27.6773 43.1203C27.5423 43.3491 27.3398 43.5549 27.0699 43.7379C26.7999 43.898 26.4062 43.978 25.8887 43.978V39.6553H31.9631ZM23.2565 38.6604C23.2565 38.5231 23.2452 38.3859 23.2227 38.2487C23.2227 38.1115 23.2227 37.9857 23.2227 37.8713V37.0822C23.2002 36.5791 23.189 36.0988 23.189 35.6413C23.189 35.1839 23.1777 34.7493 23.1552 34.3376C23.1328 34.1318 23.1215 33.9488 23.1215 33.7887C23.1215 33.6058 23.1103 33.4228 23.0878 33.2398C23.0878 33.0797 23.0765 32.931 23.054 32.7938C23.054 32.6337 23.054 32.4965 23.054 32.3821C23.054 32.2678 23.0428 32.1648 23.0203 32.0734C23.0203 31.9819 23.0203 31.9018 23.0203 31.8332V31.6617C22.9978 31.6617 22.9865 31.6731 22.9865 31.696V31.8332C22.9865 31.9018 22.9753 31.9819 22.9528 32.0734C22.9528 32.1648 22.9528 32.2678 22.9528 32.3821C22.9528 32.4965 22.9415 32.6337 22.919 32.7938C22.919 32.931 22.919 33.0797 22.919 33.2398C22.8965 33.4228 22.8853 33.6058 22.8853 33.7887C22.8853 33.9488 22.874 34.1318 22.8515 34.3376C22.829 34.7493 22.8178 35.1839 22.8178 35.6413C22.8178 36.0988 22.8065 36.5791 22.784 37.0822V37.8713C22.784 37.9857 22.7728 38.1115 22.7503 38.2487C22.7503 38.3859 22.7503 38.5231 22.7503 38.6604V41.851C22.7503 41.9196 22.7503 41.9882 22.7503 42.0568C22.7728 42.1254 22.784 42.1826 22.784 42.2283V43.3948C22.784 43.6464 22.784 43.898 22.784 44.1496C22.8065 44.3783 22.8178 44.607 22.8178 44.8357C22.8178 45.0873 22.8178 45.3274 22.8178 45.5562C22.8403 45.762 22.8515 45.9564 22.8515 46.1394C22.874 46.3452 22.8853 46.5396 22.8853 46.7226C22.8853 46.9056 22.8965 47.0771 22.919 47.2372C22.919 47.4202 22.919 47.5803 22.919 47.7175C22.9415 47.8548 22.9528 47.9806 22.9528 48.0949C22.9528 48.2093 22.9528 48.3122 22.9528 48.4037C22.9753 48.4952 22.9865 48.5752 22.9865 48.6438V48.8154C22.9865 48.8382 22.9978 48.8497 23.0203 48.8497V48.6438C23.0203 48.5752 23.0203 48.4952 23.0203 48.4037C23.0428 48.3122 23.054 48.2093 23.054 48.0949C23.054 47.9806 23.054 47.8548 23.054 47.7175C23.0765 47.5803 23.0878 47.4202 23.0878 47.2372C23.1103 47.0771 23.1215 46.9056 23.1215 46.7226C23.1215 46.5396 23.1328 46.3452 23.1552 46.1394C23.1552 45.9564 23.1552 45.762 23.1552 45.5562C23.1777 45.3274 23.189 45.0873 23.189 44.8357C23.189 44.607 23.189 44.3783 23.189 44.1496C23.2115 43.898 23.2227 43.6464 23.2227 43.3948V42.64C23.2227 42.4571 23.234 42.3198 23.2565 42.2283V38.6604ZM30.6133 43.635C30.5908 43.4062 30.5795 43.2004 30.5795 43.0174C30.5795 42.8116 30.5683 42.6172 30.5458 42.4342C30.5233 42.0911 30.4895 41.8052 30.4445 41.5765C30.4445 41.5308 30.4333 41.485 30.4108 41.4393C30.4108 41.3935 30.4108 41.3592 30.4108 41.3364V41.2334L30.377 41.2677V41.3364C30.377 41.3592 30.3658 41.3935 30.3433 41.4393C30.3433 41.485 30.3433 41.5308 30.3433 41.5765C30.2983 41.8052 30.2646 42.0911 30.2421 42.4342C30.2196 42.6172 30.2083 42.8116 30.2083 43.0174C30.2083 43.2004 30.1971 43.4062 30.1746 43.635V43.978C30.1746 44.0466 30.1633 44.1153 30.1408 44.1839C30.1408 44.2296 30.1408 44.2754 30.1408 44.3211V45.762C30.1408 45.8306 30.1521 45.8878 30.1746 45.9335V46.4482C30.1746 46.5625 30.1746 46.6654 30.1746 46.7569C30.1971 46.8484 30.2083 46.9513 30.2083 47.0657C30.2083 47.18 30.2083 47.283 30.2083 47.3745C30.2308 47.4659 30.2421 47.5574 30.2421 47.6489C30.2646 47.7404 30.2758 47.8319 30.2758 47.9234C30.2758 47.992 30.2871 48.0606 30.3096 48.1292C30.3096 48.1978 30.3096 48.2664 30.3096 48.3351C30.3321 48.4037 30.3433 48.4609 30.3433 48.5066C30.3433 48.5523 30.3433 48.5981 30.3433 48.6438C30.3658 48.6896 30.377 48.7239 30.377 48.7468V48.8154C30.377 48.8382 30.3883 48.8497 30.4108 48.8497V48.7468C30.4108 48.7239 30.4108 48.6896 30.4108 48.6438C30.4333 48.5981 30.4445 48.5523 30.4445 48.5066C30.4445 48.4609 30.4445 48.4037 30.4445 48.3351C30.467 48.2664 30.4783 48.1978 30.4783 48.1292C30.5008 48.0606 30.512 47.992 30.512 47.9234C30.512 47.8319 30.5233 47.7404 30.5458 47.6489C30.5458 47.5574 30.5458 47.4659 30.5458 47.3745C30.5683 47.283 30.5795 47.18 30.5795 47.0657C30.5795 46.9513 30.5795 46.8484 30.5795 46.7569C30.602 46.6654 30.6133 46.5625 30.6133 46.4482V46.1051C30.6133 46.0136 30.6245 45.9564 30.647 45.9335V44.3211C30.647 44.2754 30.6358 44.2296 30.6133 44.1839C30.6133 44.1153 30.6133 44.0466 30.6133 43.978V43.635Z" fill="#F4EDE8"/>
<path d="M44.2227 40.3071C44.6052 40.3071 44.9201 40.3872 45.1676 40.5473C44.9201 40.7074 44.7064 40.9247 44.5264 41.1991C44.3689 41.4736 44.2677 41.7709 44.2227 42.0911V47.2715C44.2002 48.0034 44.0427 48.6896 43.7502 49.33C43.4803 49.9475 43.1091 50.4964 42.6366 50.9767C42.1641 51.4342 41.613 51.8001 40.983 52.0746C40.3531 52.349 39.6781 52.4863 38.9582 52.4863C38.2383 52.4863 37.5633 52.349 36.9334 52.0746C36.3035 51.8001 35.7523 51.4342 35.2798 50.9767C34.8074 50.4964 34.4249 49.9475 34.1324 49.33C33.8625 48.6896 33.7162 48.0034 33.6937 47.2715V42.0911C33.6262 41.3821 33.3113 40.8675 32.7488 40.5473C32.9963 40.3872 33.3113 40.3071 33.6937 40.3071V33.6858C33.7162 32.9768 33.8625 32.3021 34.1324 31.6617C34.4249 31.0213 34.8074 30.4723 35.2798 30.0149C35.7523 29.5346 36.3035 29.1572 36.9334 28.8828C37.5633 28.6083 38.2383 28.4711 38.9582 28.4711C39.6781 28.4711 40.3531 28.6083 40.983 28.8828C41.613 29.1572 42.1641 29.5346 42.6366 30.0149C43.1091 30.4723 43.4803 31.0213 43.7502 31.6617C44.0427 32.3021 44.2002 32.9768 44.2227 33.6858V40.3071ZM35.516 39.0721C35.516 38.9577 35.5048 38.8548 35.4823 38.7633C35.4823 38.6489 35.4823 38.5346 35.4823 38.4202V37.7684C35.4598 37.3338 35.4485 36.9221 35.4485 36.5333C35.4485 36.1445 35.4373 35.7786 35.4148 35.4355C35.3923 35.2754 35.3811 35.1153 35.3811 34.9552C35.3811 34.7951 35.3698 34.6464 35.3473 34.5092C35.3473 34.372 35.3361 34.2462 35.3136 34.1318C35.3136 34.0174 35.3136 33.9145 35.3136 33.823C35.3136 33.7087 35.3023 33.6172 35.2798 33.5486C35.2798 33.4571 35.2798 33.3885 35.2798 33.3427V33.1712C35.2573 33.1712 35.2461 33.1826 35.2461 33.2055V33.3427C35.2461 33.3885 35.2348 33.4571 35.2123 33.5486C35.2123 33.6172 35.2123 33.7087 35.2123 33.823C35.2123 33.9145 35.2011 34.0174 35.1786 34.1318C35.1786 34.2462 35.1786 34.372 35.1786 34.5092C35.1561 34.6464 35.1448 34.7951 35.1448 34.9552C35.1448 35.1153 35.1336 35.2754 35.1111 35.4355C35.0886 35.7786 35.0773 36.1445 35.0773 36.5333C35.0773 36.9221 35.0661 37.3338 35.0436 37.7684V38.4202C35.0436 38.5346 35.0323 38.6489 35.0098 38.7633C35.0098 38.8548 35.0098 38.9577 35.0098 39.0721V41.7824C35.0098 41.9425 35.0211 42.0568 35.0436 42.1254V43.1203C35.0436 43.3262 35.0436 43.532 35.0436 43.7379C35.0661 43.9437 35.0773 44.1381 35.0773 44.3211C35.0773 44.5269 35.0773 44.7213 35.0773 44.9043C35.0998 45.0644 35.1111 45.236 35.1111 45.4189C35.1336 45.6019 35.1448 45.7734 35.1448 45.9335C35.1448 46.0708 35.1561 46.208 35.1786 46.3452C35.1786 46.4825 35.1786 46.6083 35.1786 46.7226C35.2011 46.837 35.2123 46.9513 35.2123 47.0657C35.2123 47.18 35.2123 47.283 35.2123 47.3745C35.2348 47.4431 35.2461 47.5002 35.2461 47.546V47.6489C35.2461 47.6718 35.2573 47.6832 35.2798 47.6832V47.546C35.2798 47.5002 35.2798 47.4431 35.2798 47.3745C35.3023 47.283 35.3136 47.18 35.3136 47.0657C35.3136 46.9513 35.3136 46.837 35.3136 46.7226C35.3361 46.6083 35.3473 46.4825 35.3473 46.3452C35.3698 46.208 35.3811 46.0708 35.3811 45.9335C35.3811 45.7734 35.3923 45.6019 35.4148 45.4189C35.4148 45.236 35.4148 45.0644 35.4148 44.9043C35.4373 44.7213 35.4485 44.5269 35.4485 44.3211C35.4485 44.1381 35.4485 43.9437 35.4485 43.7379C35.471 43.532 35.4823 43.3262 35.4823 43.1203V42.1254C35.5048 42.0568 35.516 41.9425 35.516 41.7824V39.0721ZM41.0843 33.823C41.0843 33.5257 41.073 33.1598 41.0505 32.7252C41.028 32.2906 40.9493 31.8789 40.8143 31.4901C40.6793 31.1013 40.4656 30.7697 40.1731 30.4952C39.9031 30.1979 39.4982 30.0492 38.9582 30.0492C38.4183 30.0492 38.0021 30.1979 37.7096 30.4952C37.4396 30.7697 37.2371 31.1013 37.1021 31.4901C36.9672 31.8789 36.8884 32.2906 36.8659 32.7252C36.8434 33.1598 36.8322 33.5257 36.8322 33.823V40.3071C37.2146 40.3071 37.5296 40.3872 37.7771 40.5473C37.2146 40.8675 36.8997 41.3821 36.8322 42.0911V47.1343C36.8322 47.4316 36.8434 47.7976 36.8659 48.2321C36.8884 48.6438 36.9672 49.0555 37.1021 49.4672C37.2371 49.856 37.4396 50.1877 37.7096 50.4621C38.0021 50.7366 38.4183 50.8738 38.9582 50.8738C39.4982 50.8738 39.9031 50.7366 40.1731 50.4621C40.4656 50.1877 40.6793 49.856 40.8143 49.4672C40.9493 49.0555 41.028 48.6438 41.0505 48.2321C41.073 47.7976 41.0843 47.4316 41.0843 47.1343V42.0911C41.0393 41.405 40.7243 40.8904 40.1393 40.5473C40.3868 40.3872 40.7018 40.3071 41.0843 40.3071V33.823ZM42.9066 39.0721C42.9066 38.9577 42.9066 38.8548 42.9066 38.7633C42.9066 38.6489 42.8953 38.5346 42.8728 38.4202V37.7684C42.8728 37.3338 42.8616 36.9221 42.8391 36.5333C42.8391 36.1445 42.8278 35.7786 42.8053 35.4355C42.7828 35.2754 42.7716 35.1153 42.7716 34.9552C42.7716 34.7951 42.7603 34.6464 42.7378 34.5092C42.7378 34.372 42.7266 34.2462 42.7041 34.1318C42.7041 34.0174 42.7041 33.9145 42.7041 33.823C42.7041 33.7087 42.6928 33.6172 42.6703 33.5486C42.6703 33.4571 42.6703 33.3885 42.6703 33.3427V33.1712C42.6479 33.1712 42.6366 33.1826 42.6366 33.2055V33.3427C42.6366 33.3885 42.6366 33.4571 42.6366 33.5486C42.6366 33.6172 42.6254 33.7087 42.6029 33.823C42.6029 33.9145 42.5916 34.0174 42.5691 34.1318C42.5691 34.2462 42.5691 34.372 42.5691 34.5092C42.5466 34.6464 42.5354 34.7951 42.5354 34.9552C42.5354 35.1153 42.5241 35.2754 42.5016 35.4355C42.4791 35.7786 42.4679 36.1445 42.4679 36.5333C42.4679 36.9221 42.4566 37.3338 42.4341 37.7684V39.0721C42.4116 39.3008 42.4004 39.5295 42.4004 39.7582C42.4004 39.9869 42.4004 40.2156 42.4004 40.4444C42.4004 40.6731 42.4004 40.9018 42.4004 41.1305C42.4004 41.3364 42.4116 41.5536 42.4341 41.7824V43.1203C42.4341 43.3262 42.4341 43.532 42.4341 43.7379C42.4566 43.9437 42.4679 44.1381 42.4679 44.3211C42.4679 44.5269 42.4679 44.7213 42.4679 44.9043C42.4904 45.0644 42.5016 45.236 42.5016 45.4189C42.5241 45.6019 42.5354 45.7734 42.5354 45.9335C42.5354 46.0708 42.5466 46.208 42.5691 46.3452C42.5691 46.4825 42.5691 46.6083 42.5691 46.7226C42.5916 46.837 42.6029 46.9513 42.6029 47.0657C42.6254 47.18 42.6366 47.283 42.6366 47.3745C42.6366 47.4431 42.6366 47.5002 42.6366 47.546V47.6489C42.6366 47.6718 42.6479 47.6832 42.6703 47.6832V47.546C42.6703 47.5002 42.6703 47.4431 42.6703 47.3745C42.6928 47.283 42.7041 47.18 42.7041 47.0657C42.7041 46.9513 42.7041 46.837 42.7041 46.7226C42.7266 46.6083 42.7378 46.4825 42.7378 46.3452C42.7603 46.208 42.7716 46.0708 42.7716 45.9335C42.7716 45.7734 42.7828 45.6019 42.8053 45.4189C42.8053 45.236 42.8053 45.0644 42.8053 44.9043C42.8278 44.7213 42.8391 44.5269 42.8391 44.3211C42.8391 44.1381 42.8391 43.9437 42.8391 43.7379C42.8616 43.532 42.8728 43.3262 42.8728 43.1203V42.4685C42.8728 42.4228 42.8728 42.3656 42.8728 42.297C42.8953 42.2283 42.9066 42.1712 42.9066 42.1254V39.0721Z" fill="#F4EDE8"/>
<path d="M56.7459 35.8815C56.7459 36.9107 56.4984 37.837 56.0035 38.6604C55.5085 39.4838 54.8448 40.1242 54.0124 40.5816C54.4174 40.9018 54.7886 41.2792 55.1261 41.7137C55.4635 42.1254 55.7447 42.5829 55.9697 43.086C56.2172 43.5892 56.4084 44.1038 56.5434 44.6299C56.6784 45.1559 56.7459 45.6705 56.7459 46.1737V48.3694C56.7234 49.1013 56.5772 49.7874 56.3072 50.4278C56.0372 51.0453 55.666 51.5943 55.1936 52.0746C54.7211 52.532 54.1699 52.8979 53.54 53.1724C52.91 53.4697 52.2351 53.6184 51.5152 53.6184H48.343C48.1855 53.6184 48.0505 53.5612 47.938 53.4469C47.848 53.3325 47.803 53.1953 47.803 53.0352C47.803 53.1953 47.7468 53.3325 47.6343 53.4469C47.5218 53.5612 47.3981 53.6184 47.2631 53.6184H45.4745C45.4745 53.4126 45.5082 53.2639 45.5757 53.1724C45.6657 53.0809 45.7557 52.978 45.8457 52.8636C45.9357 52.7722 46.0144 52.6349 46.0819 52.452C46.1719 52.269 46.2169 51.9831 46.2169 51.5943V42.0225C46.1494 41.3364 45.8345 40.8332 45.272 40.513C45.5645 40.33 45.8795 40.2385 46.2169 40.2385V28.9514C46.2169 28.5626 46.1719 28.2767 46.0819 28.0937C46.0144 27.9107 45.9357 27.7735 45.8457 27.682C45.7557 27.5677 45.6657 27.4647 45.5757 27.3732C45.5082 27.2818 45.4745 27.1331 45.4745 26.9272H47.2631C47.3981 26.9272 47.5218 26.9844 47.6343 27.0988C47.7468 27.1903 47.803 27.3161 47.803 27.4762C47.803 27.1102 47.983 26.9272 48.343 26.9272H51.5152C52.2351 26.9272 52.91 27.0645 53.54 27.3389C54.1699 27.6134 54.7211 27.9908 55.1936 28.4711C55.666 28.9285 56.0372 29.4774 56.3072 30.1178C56.5772 30.7582 56.7234 31.433 56.7459 32.142V35.8815ZM48.0392 38.4202C48.0392 38.2601 48.028 38.1115 48.0055 37.9742C48.0055 37.8141 48.0055 37.6655 48.0055 37.5282V36.6362C47.983 36.0416 47.9717 35.4812 47.9717 34.9552C47.9717 34.4291 47.9605 33.9374 47.938 33.48C47.9155 33.2284 47.9043 32.9997 47.9043 32.7938C47.9043 32.588 47.893 32.3936 47.8705 32.2106C47.8705 32.0276 47.8593 31.8561 47.8368 31.696C47.8368 31.513 47.8368 31.3643 47.8368 31.25C47.8368 31.1127 47.8255 30.987 47.803 30.8726C47.803 30.7582 47.803 30.6668 47.803 30.5981V30.3923C47.7805 30.4152 47.7693 30.438 47.7693 30.4609V30.5981C47.7693 30.6668 47.758 30.7582 47.7355 30.8726C47.7355 30.987 47.7355 31.1127 47.7355 31.25C47.7355 31.3643 47.7243 31.513 47.7018 31.696C47.7018 31.8561 47.7018 32.0276 47.7018 32.2106C47.6793 32.3936 47.668 32.588 47.668 32.7938C47.668 32.9997 47.6568 33.2284 47.6343 33.48C47.6118 33.9374 47.6005 34.4291 47.6005 34.9552C47.6005 35.4812 47.5893 36.0416 47.5668 36.6362V37.5282C47.5668 37.6655 47.5668 37.8141 47.5668 37.9742C47.5668 38.1115 47.5555 38.2601 47.533 38.4202V42.0911C47.533 42.1826 47.533 42.2627 47.533 42.3313C47.5555 42.3999 47.5668 42.4799 47.5668 42.5714V43.8751C47.5668 44.1724 47.5668 44.4698 47.5668 44.7671C47.5893 45.0416 47.6005 45.3046 47.6005 45.5562C47.6005 45.8078 47.6005 46.0593 47.6005 46.3109C47.623 46.5625 47.6343 46.8141 47.6343 47.0657C47.6568 47.18 47.668 47.2944 47.668 47.4088C47.668 47.5002 47.668 47.6032 47.668 47.7175C47.668 47.8319 47.668 47.9348 47.668 48.0263C47.6905 48.1178 47.7018 48.2093 47.7018 48.3008C47.7018 48.4837 47.7018 48.6667 47.7018 48.8497C47.7243 49.0098 47.7355 49.1584 47.7355 49.2957C47.7355 49.4329 47.7355 49.5587 47.7355 49.6731C47.758 49.7645 47.7693 49.8446 47.7693 49.9132V50.0847C47.7693 50.1076 47.7805 50.1305 47.803 50.1534V49.9132C47.803 49.8446 47.803 49.7645 47.803 49.6731C47.8255 49.5587 47.8368 49.4329 47.8368 49.2957C47.8368 49.1584 47.8368 49.0098 47.8368 48.8497C47.8593 48.6667 47.8705 48.4837 47.8705 48.3008C47.893 48.2093 47.9043 48.1178 47.9043 48.0263C47.9043 47.9348 47.9043 47.8319 47.9043 47.7175C47.9043 47.6032 47.9043 47.5002 47.9043 47.4088C47.9268 47.2944 47.938 47.18 47.938 47.0657C47.938 46.8141 47.938 46.5625 47.938 46.3109C47.9605 46.0593 47.9717 45.8078 47.9717 45.5562C47.9717 45.3046 47.9717 45.0416 47.9717 44.7671C47.9942 44.4698 48.0055 44.1724 48.0055 43.8751V43.0174C48.0055 42.8116 48.0167 42.6629 48.0392 42.5714V38.4202ZM54.9911 47.6832C54.9686 47.7518 54.9573 47.8662 54.9573 48.0263V48.6438C54.9573 48.7582 54.9461 48.8611 54.9236 48.9526C54.9236 49.0441 54.9236 49.1356 54.9236 49.2271C54.9236 49.3185 54.9123 49.3986 54.8898 49.4672C54.8898 49.5358 54.8898 49.6044 54.8898 49.6731V49.776C54.8673 49.7988 54.8561 49.8332 54.8561 49.8789V50.0504C54.8336 50.0733 54.8223 50.0962 54.8223 50.119V50.1877C54.8223 50.2105 54.8111 50.2334 54.7886 50.2563C54.7886 50.2563 54.7886 50.2677 54.7886 50.2906C54.7886 50.3135 54.7773 50.3363 54.7548 50.3592H54.7886C54.7886 50.3592 54.7998 50.3363 54.8223 50.2906C54.8223 50.2906 54.8336 50.2677 54.8561 50.222C54.8786 50.1991 54.8898 50.1762 54.8898 50.1534C54.9123 50.1305 54.9236 50.1076 54.9236 50.0847C54.9461 50.0619 54.9573 50.039 54.9573 50.0161C54.9798 49.9933 54.9911 49.9589 54.9911 49.9132C55.0361 49.8675 55.0586 49.8103 55.0586 49.7417C55.1036 49.6502 55.1486 49.4901 55.1936 49.2614C55.2385 49.1241 55.261 49.0326 55.261 48.9869C55.2835 48.9412 55.2948 48.8954 55.2948 48.8497C55.2948 48.7811 55.306 48.7239 55.3285 48.6781C55.3285 48.6324 55.3285 48.5867 55.3285 48.5409C55.351 48.4723 55.3623 48.4151 55.3623 48.3694C55.3848 48.3008 55.396 48.1978 55.396 48.0606C55.4185 47.9462 55.4298 47.8319 55.4298 47.7175C55.4298 47.6032 55.441 47.4888 55.4635 47.3745V45.9335C55.4635 45.8192 55.4523 45.7048 55.4298 45.5905C55.4298 45.4761 55.4185 45.3618 55.396 45.2474C55.396 45.1102 55.3848 45.0072 55.3623 44.9386C55.3623 44.8929 55.351 44.8471 55.3285 44.8014C55.3285 44.7328 55.3285 44.6756 55.3285 44.6299C55.306 44.5841 55.2948 44.5384 55.2948 44.4926C55.2948 44.424 55.2835 44.3668 55.261 44.3211C55.261 44.2754 55.2498 44.2296 55.2273 44.1839C55.2273 44.1381 55.2273 44.0924 55.2273 44.0466C55.1823 43.9094 55.1598 43.8294 55.1598 43.8065C55.1373 43.7379 55.1036 43.6578 55.0586 43.5663C55.0586 43.4977 55.0361 43.4405 54.9911 43.3948C54.9911 43.3262 54.9686 43.269 54.9236 43.2233C54.8786 43.1318 54.8448 43.0632 54.8223 43.0174C54.7998 42.9945 54.7886 42.9717 54.7886 42.9488H54.7548C54.7548 42.9488 54.7661 42.9717 54.7886 43.0174C54.7886 43.0403 54.7886 43.0632 54.7886 43.086C54.8111 43.086 54.8223 43.0975 54.8223 43.1203C54.8223 43.1661 54.8336 43.2118 54.8561 43.2576V43.4291C54.8786 43.4748 54.8898 43.532 54.8898 43.6006C54.8898 43.715 54.9011 43.7951 54.9236 43.8408V44.0809C54.9461 44.1724 54.9573 44.2639 54.9573 44.3554C54.9573 44.4469 54.9573 44.5498 54.9573 44.6642V44.9729C54.9573 45.0187 54.9573 45.0759 54.9573 45.1445C54.9798 45.1902 54.9911 45.236 54.9911 45.2817V47.6832ZM53.6075 46.1737C53.6075 45.8764 53.5962 45.4532 53.5737 44.9043C53.5512 44.3554 53.4725 43.8065 53.3375 43.2576C53.2025 42.7087 52.9888 42.2398 52.6963 41.851C52.4263 41.4393 52.0214 41.2334 51.4814 41.2334H50.2665C50.0191 41.2334 49.8053 41.3249 49.6253 41.5079C49.4454 41.6909 49.3554 41.9081 49.3554 42.1597V51.0797C49.3554 51.3312 49.4454 51.5485 49.6253 51.7315C49.8053 51.8916 50.0191 51.9831 50.2665 52.006H51.4814C52.0214 52.006 52.4263 51.8687 52.6963 51.5943C52.9888 51.2969 53.2025 50.9539 53.3375 50.565C53.4725 50.1762 53.5512 49.7645 53.5737 49.33C53.5962 48.8954 53.6075 48.5295 53.6075 48.2321V46.1737ZM53.6075 32.2792C53.6075 31.9819 53.5962 31.6274 53.5737 31.2157C53.5512 30.7811 53.4725 30.3694 53.3375 29.9806C53.2025 29.5918 52.9888 29.2601 52.6963 28.9857C52.4263 28.6884 52.0214 28.5397 51.4814 28.5397H50.2665C50.0191 28.5397 49.8053 28.6312 49.6253 28.8142C49.4454 28.9971 49.3554 29.2144 49.3554 29.466V38.6947C49.3554 38.9463 49.4454 39.1636 49.6253 39.3465C49.8053 39.5295 50.0191 39.621 50.2665 39.621H51.4814C52.0214 39.621 52.4263 39.4838 52.6963 39.2093C52.9888 38.9348 53.2025 38.6032 53.3375 38.2144C53.4725 37.8027 53.5512 37.391 53.5737 36.9793C53.5962 36.5448 53.6075 36.1788 53.6075 35.8815V32.2792ZM55.1261 36.8078C55.1711 36.6705 55.1936 36.5791 55.1936 36.5333C55.2385 36.4418 55.261 36.3503 55.261 36.2589C55.2835 36.2131 55.2948 36.1674 55.2948 36.1216C55.2948 36.053 55.306 35.9958 55.3285 35.9501C55.3285 35.9044 55.3285 35.8586 55.3285 35.8129C55.351 35.7442 55.3623 35.6756 55.3623 35.607C55.3848 35.5384 55.396 35.424 55.396 35.2639C55.4185 35.1496 55.4298 35.0352 55.4298 34.9209C55.4298 34.8065 55.441 34.6922 55.4635 34.5778V33.823C55.4635 33.5714 55.4635 33.3313 55.4635 33.1026C55.4635 32.851 55.4523 32.6108 55.4298 32.3821C55.4073 32.3135 55.396 32.2563 55.396 32.2106C55.396 32.142 55.3848 32.0848 55.3623 32.0391C55.3623 31.8789 55.351 31.7646 55.3285 31.696C55.306 31.5816 55.2835 31.4787 55.261 31.3872C55.261 31.2957 55.2498 31.2042 55.2273 31.1128C55.1823 30.9755 55.1598 30.884 55.1598 30.8383C55.1148 30.7468 55.0923 30.6782 55.0923 30.6324C55.0473 30.541 55.0136 30.4723 54.9911 30.4266C54.9911 30.358 54.9686 30.3008 54.9236 30.2551C54.9011 30.1864 54.8673 30.1064 54.8223 30.0149L54.7548 29.9463V29.9806C54.7548 30.0035 54.7548 30.0149 54.7548 30.0149C54.7773 30.0149 54.7886 30.0263 54.7886 30.0492C54.8111 30.0721 54.8223 30.1064 54.8223 30.1521C54.8223 30.1979 54.8336 30.2436 54.8561 30.2894V30.4609C54.8786 30.5067 54.8898 30.5753 54.8898 30.6668C54.8898 30.7125 54.8898 30.7582 54.8898 30.804C54.9123 30.8269 54.9236 30.8612 54.9236 30.9069V31.1471C54.9461 31.2385 54.9573 31.33 54.9573 31.4215C54.9573 31.513 54.9573 31.6159 54.9573 31.7303V32.0734C54.9573 32.1191 54.9573 32.1763 54.9573 32.2449C54.9798 32.2906 54.9911 32.3364 54.9911 32.3821V34.9209C54.9686 34.9895 54.9573 35.1038 54.9573 35.2639V35.9158C54.9573 36.0301 54.9461 36.1331 54.9236 36.2246C54.9236 36.316 54.9236 36.4075 54.9236 36.499C54.9236 36.5905 54.9123 36.682 54.8898 36.7735C54.8898 36.8421 54.8898 36.9107 54.8898 36.9793C54.8898 37.0937 54.8786 37.1623 54.8561 37.1852V37.391C54.8336 37.391 54.8223 37.4139 54.8223 37.4596V37.5282C54.8223 37.5511 54.8111 37.574 54.7886 37.5968C54.7886 37.5968 54.7886 37.6083 54.7886 37.6312C54.7886 37.654 54.7773 37.6769 54.7548 37.6998L54.8223 37.6312C54.8223 37.6083 54.8223 37.5968 54.8223 37.5968C54.8448 37.574 54.8561 37.5511 54.8561 37.5282C54.8786 37.5282 54.8898 37.5054 54.8898 37.4596C54.9123 37.4596 54.9236 37.4367 54.9236 37.391C54.9461 37.391 54.9573 37.3681 54.9573 37.3224C54.9798 37.2995 54.9911 37.2652 54.9911 37.2195C55.0361 37.1737 55.0586 37.1165 55.0586 37.0479C55.1036 36.9107 55.1261 36.8306 55.1261 36.8078Z" fill="#F4EDE8"/>
<path d="M69.5103 50.4278C69.6003 50.8166 69.7016 51.1025 69.8141 51.2855C69.9265 51.4685 70.039 51.6171 70.1515 51.7315C70.264 51.8459 70.3653 51.9488 70.4552 52.0403C70.5452 52.1318 70.6127 52.2804 70.6577 52.4863H68.8691C68.7117 52.4863 68.5654 52.4291 68.4304 52.3147C68.318 52.2004 68.2505 52.0631 68.228 51.903C68.2505 52.0631 68.2167 52.2004 68.1267 52.3147C68.0367 52.4291 67.9242 52.4863 67.7892 52.4863H66.0007C65.9557 52.2804 65.9669 52.1318 66.0344 52.0403C66.1019 51.9488 66.1694 51.8573 66.2369 51.7658C66.3044 51.6514 66.3606 51.5028 66.4056 51.3198C66.4506 51.114 66.4394 50.8052 66.3719 50.3935V50.3592L65.6295 46.4825C65.5845 46.2537 65.4607 46.0593 65.2582 45.8992C65.0558 45.7163 64.8308 45.6248 64.5833 45.6248H62.2548C62.0073 45.6248 61.7823 45.7163 61.5799 45.8992C61.3774 46.0593 61.2536 46.2537 61.2086 46.4825L60.5 50.3592V50.3935C60.4325 50.8052 60.41 51.114 60.4325 51.3198C60.4775 51.5028 60.5337 51.6514 60.6012 51.7658C60.6912 51.8573 60.7587 51.9488 60.8037 52.0403C60.8712 52.1318 60.8937 52.2804 60.8712 52.4863H59.0826C58.9251 52.4863 58.8014 52.4291 58.7114 52.3147C58.6214 52.2004 58.5876 52.0631 58.6101 51.903C58.5876 52.0631 58.5201 52.2004 58.4077 52.3147C58.2952 52.4291 58.1602 52.4863 58.0027 52.4863H56.2141C56.2366 52.2804 56.2929 52.1318 56.3829 52.0403C56.4728 51.9488 56.5741 51.8459 56.6866 51.7315C56.7991 51.6171 56.9116 51.4685 57.024 51.2855C57.1365 51.1025 57.2378 50.8166 57.3278 50.4278L58.8464 42.0911C58.8914 41.7709 58.8576 41.4736 58.7451 41.1991C58.6326 40.9247 58.4527 40.7074 58.2052 40.5473C58.5651 40.3872 58.8914 40.3071 59.1838 40.3071L61.0062 30.5295C61.0737 30.1407 61.0849 29.8548 61.0399 29.6718C60.9949 29.466 60.9387 29.3173 60.8712 29.2258C60.8037 29.1115 60.7362 29.0086 60.6687 28.9171C60.6012 28.8256 60.5899 28.6769 60.6349 28.4711H62.896C63.2334 28.5168 63.4022 28.7112 63.4022 29.0543C63.4022 28.8942 63.4472 28.7684 63.5372 28.6769C63.6497 28.5626 63.7734 28.494 63.9084 28.4711H66.2032C66.2482 28.6769 66.2369 28.8256 66.1694 28.9171C66.1244 29.0086 66.0682 29.1115 66.0007 29.2258C65.9332 29.3173 65.8769 29.466 65.8319 29.6718C65.7869 29.8548 65.7982 30.1407 65.8657 30.5295L67.6543 40.3071C67.8342 40.3071 68.003 40.33 68.1605 40.3757C68.318 40.4215 68.4754 40.4787 68.6329 40.5473C68.138 40.8675 67.9242 41.3821 67.9917 42.0911L69.5103 50.4278ZM61.4111 38.1458C61.4561 38.0085 61.4786 37.8827 61.4786 37.7684C61.5011 37.6312 61.5236 37.5054 61.5461 37.391C61.6586 36.865 61.7486 36.3732 61.8161 35.9158C61.8836 35.4355 61.9511 35.0009 62.0186 34.6121C62.0636 34.4291 62.0861 34.2462 62.0861 34.0632C62.1086 33.8802 62.1311 33.6972 62.1535 33.5143C62.176 33.3542 62.1985 33.2055 62.221 33.0683C62.2435 32.931 62.266 32.8052 62.2885 32.6909C62.311 32.5765 62.3223 32.4736 62.3223 32.3821C62.3223 32.2678 62.3335 32.1763 62.356 32.1077V31.9704L62.3223 32.1077C62.2998 32.1763 62.2773 32.2563 62.2548 32.3478C62.2323 32.4393 62.2098 32.5422 62.1873 32.6566C62.1423 32.7709 62.1086 32.9082 62.0861 33.0683C62.0636 33.2055 62.0298 33.3427 61.9848 33.48C61.9398 33.6629 61.8948 33.8459 61.8498 34.0289C61.8273 34.2119 61.7936 34.3948 61.7486 34.5778C61.6361 34.9666 61.5236 35.3897 61.4111 35.8472C61.3211 36.2817 61.2199 36.762 61.1074 37.2881C61.1074 37.4253 61.0961 37.5511 61.0737 37.6655C61.0512 37.7798 61.0174 37.9056 60.9724 38.0428C60.9499 38.1801 60.9274 38.3173 60.9049 38.4545C60.8824 38.5689 60.8599 38.6947 60.8374 38.8319C60.7699 39.0835 60.7024 39.3465 60.6349 39.621C60.5899 39.8954 60.545 40.1699 60.5 40.4444C60.455 40.6959 60.3987 40.959 60.3312 41.2334C60.2862 41.5079 60.2412 41.7709 60.1962 42.0225C60.1737 42.0911 60.1625 42.1597 60.1625 42.2283C60.1625 42.2741 60.1512 42.3313 60.1287 42.3999C60.0837 42.5829 60.0613 42.7201 60.0613 42.8116C59.9938 43.0403 59.9488 43.2919 59.9263 43.5663C59.8813 43.8179 59.8363 44.0695 59.7913 44.3211C59.7463 44.5727 59.7125 44.8014 59.69 45.0072C59.6225 45.5333 59.555 45.9679 59.4876 46.3109C59.4426 46.4939 59.4088 46.6769 59.3863 46.8598C59.3638 47.0428 59.3413 47.2258 59.3188 47.4088C59.2738 47.5689 59.2401 47.729 59.2176 47.8891C59.2176 48.0263 59.2063 48.1521 59.1838 48.2665C59.1613 48.3808 59.1501 48.4837 59.1501 48.5752C59.1501 48.6667 59.1388 48.7468 59.1163 48.8154C59.1163 48.8611 59.1051 48.8954 59.0826 48.9183C59.0826 48.9183 59.0826 48.9297 59.0826 48.9526V48.9869C59.1051 48.9869 59.1163 48.9755 59.1163 48.9526C59.1163 48.9069 59.1276 48.8611 59.1501 48.8154C59.1726 48.7696 59.1838 48.701 59.1838 48.6095C59.2063 48.4952 59.2401 48.3808 59.2851 48.2665C59.3301 48.1521 59.3638 48.0263 59.3863 47.8891C59.4313 47.7518 59.4763 47.6032 59.5213 47.4431C59.5663 47.283 59.6 47.1114 59.6225 46.9285C59.6675 46.7455 59.7013 46.5625 59.7238 46.3795C59.7688 46.1966 59.8138 46.0022 59.8588 45.7963C59.9263 45.5676 59.9825 45.3389 60.0275 45.1102C60.0725 44.8815 60.1175 44.6413 60.1625 44.3897C60.23 44.1381 60.2975 43.8865 60.365 43.635C60.3875 43.5206 60.41 43.4062 60.4325 43.2919C60.455 43.1546 60.4775 43.0289 60.5 42.9145L60.6012 42.5028C60.6237 42.4342 60.6349 42.3656 60.6349 42.297C60.6349 42.2283 60.6462 42.1597 60.6687 42.0911C60.7137 41.8395 60.7699 41.5879 60.8374 41.3364C60.9049 41.0619 60.9612 40.7874 61.0062 40.513C61.0512 40.2614 61.0961 39.9984 61.1411 39.7239C61.1861 39.4494 61.2311 39.1864 61.2761 38.9348C61.2986 38.7976 61.3211 38.6604 61.3436 38.5231C61.3661 38.3859 61.3886 38.2601 61.4111 38.1458ZM64.2796 44.0123C64.5271 43.9895 64.7183 43.898 64.8533 43.7379C65.0108 43.5549 65.067 43.3376 65.022 43.086L64.8195 42.0911C64.7295 41.7709 64.5721 41.4736 64.3471 41.1991C64.1446 40.9247 63.8971 40.7074 63.6047 40.5473C63.8746 40.3872 64.1671 40.3071 64.4821 40.3071L63.4022 34.4406L62.3223 40.3071C62.6148 40.3071 62.9185 40.3872 63.2334 40.5473C62.9185 40.7074 62.6485 40.9247 62.4235 41.1991C62.221 41.4736 62.0861 41.7709 62.0186 42.0911L61.8498 43.086C61.8048 43.3376 61.8498 43.5549 61.9848 43.7379C62.1198 43.898 62.2998 43.9895 62.5248 44.0123H64.2796ZM67.688 48.8154C67.688 48.8611 67.688 48.8954 67.688 48.9183C67.7105 48.9183 67.7218 48.9297 67.7218 48.9526V48.8154C67.6993 48.7468 67.688 48.6667 67.688 48.5752C67.688 48.4837 67.6768 48.3808 67.6543 48.2665C67.6318 48.1521 67.6093 48.0263 67.5868 47.8891C67.5868 47.729 67.5643 47.5689 67.5193 47.4088C67.4968 47.2258 67.4743 47.0428 67.4518 46.8598C67.4293 46.6769 67.3955 46.4939 67.3505 46.3109C67.2831 45.9679 67.2156 45.5333 67.1481 45.0072C67.1031 44.8014 67.0581 44.5727 67.0131 44.3211C66.9906 44.0695 66.9568 43.8179 66.9118 43.5663C66.8668 43.4291 66.8331 43.3033 66.8106 43.189C66.8106 43.0746 66.7881 42.9488 66.7431 42.8116C66.7431 42.7201 66.7206 42.5829 66.6756 42.3999C66.6756 42.3313 66.6644 42.2741 66.6419 42.2283C66.6419 42.1597 66.6419 42.0911 66.6419 42.0225C66.5969 41.7709 66.5406 41.5079 66.4731 41.2334C66.4281 40.959 66.3831 40.6959 66.3381 40.4444C66.2931 40.1699 66.2369 39.8954 66.1694 39.621C66.1244 39.3465 66.0682 39.0835 66.0007 38.8319C65.9782 38.6947 65.9557 38.5689 65.9332 38.4545C65.9107 38.3173 65.8882 38.1801 65.8657 38.0428C65.8207 37.9056 65.7869 37.7798 65.7644 37.6655C65.7419 37.5511 65.7195 37.4253 65.697 37.2881C65.5845 36.762 65.472 36.2817 65.3595 35.8472C65.2695 35.3897 65.1908 34.9666 65.1233 34.5778C65.0783 34.3948 65.0333 34.2119 64.9883 34.0289C64.9433 33.8459 64.8983 33.6629 64.8533 33.48C64.8083 33.3427 64.7633 33.2055 64.7183 33.0683C64.6958 32.9082 64.6621 32.7709 64.6171 32.6566C64.5946 32.5422 64.5721 32.4393 64.5496 32.3478C64.5271 32.2563 64.5046 32.1763 64.4821 32.1077L64.4483 31.9704V32.1077C64.4708 32.222 64.5046 32.4164 64.5496 32.6909C64.5496 32.8052 64.5608 32.931 64.5833 33.0683C64.6058 33.2055 64.6283 33.3542 64.6508 33.5143C64.6733 33.6972 64.6958 33.8802 64.7183 34.0632C64.7408 34.2462 64.7745 34.4291 64.8195 34.6121C64.887 35.0009 64.9545 35.4355 65.022 35.9158C65.0895 36.3732 65.1683 36.865 65.2582 37.391C65.2807 37.5054 65.292 37.6312 65.292 37.7684C65.3145 37.8827 65.3482 38.0085 65.3932 38.1458C65.4157 38.2601 65.4382 38.3859 65.4607 38.5231C65.4832 38.6604 65.5057 38.7976 65.5282 38.9348C65.5732 39.1864 65.6182 39.4494 65.6632 39.7239C65.7307 39.9984 65.7869 40.2614 65.8319 40.513C65.8769 40.7874 65.9332 41.0619 66.0007 41.3364C66.0682 41.5879 66.1244 41.8395 66.1694 42.0911C66.1919 42.1597 66.2032 42.2283 66.2032 42.297C66.2032 42.3656 66.2144 42.4342 66.2369 42.5028L66.3381 42.9145C66.3606 43.0289 66.3831 43.1546 66.4056 43.2919C66.4281 43.4062 66.4506 43.5206 66.4731 43.635C66.5406 43.8865 66.5969 44.1381 66.6419 44.3897C66.6869 44.6413 66.7319 44.8815 66.7768 45.1102C66.8218 45.3389 66.8668 45.5676 66.9118 45.7963C66.9793 46.0022 67.0356 46.1966 67.0806 46.3795C67.1256 46.5625 67.1706 46.7455 67.2156 46.9285C67.2606 47.1114 67.3055 47.283 67.3505 47.4431C67.418 47.7633 67.4855 48.0377 67.553 48.2665C67.598 48.3808 67.6205 48.4952 67.6205 48.6095C67.643 48.701 67.6655 48.7696 67.688 48.8154Z" fill="#F4EDE8"/>
<path d="M83.6695 53.9272C83.9169 53.9729 84.0857 54.053 84.1757 54.1673C84.2882 54.2817 84.3669 54.396 84.4119 54.5104C84.4569 54.6476 84.4794 54.7963 84.4794 54.9564C83.7594 54.9564 83.0845 54.8649 82.4546 54.6819C81.8246 54.499 81.2622 54.2016 80.7672 53.7899C80.2948 53.3783 79.9123 52.8408 79.6199 52.1775C79.3499 51.5142 79.2149 50.7023 79.2149 49.7417V45.0416C79.2149 44.7442 79.2036 44.3783 79.1811 43.9437C79.1586 43.5092 79.0799 43.0975 78.9449 42.7087C78.8099 42.3198 78.5962 41.9882 78.3037 41.7137C78.0338 41.4164 77.6288 41.2677 77.0888 41.2677H75.7052C75.5028 41.3135 75.3228 41.4278 75.1653 41.6108C75.0303 41.7709 74.9628 41.9653 74.9628 42.194V50.3935C74.9628 50.8052 74.9966 51.114 75.064 51.3198C75.154 51.5028 75.244 51.6514 75.334 51.7658C75.424 51.8573 75.5027 51.9488 75.5702 52.0403C75.6602 52.1318 75.7052 52.2804 75.7052 52.4863H73.9167C73.7817 52.4863 73.6579 52.4291 73.5454 52.3147C73.433 52.2004 73.3767 52.0746 73.3767 51.9373C73.3767 52.0746 73.3205 52.2004 73.208 52.3147C73.118 52.4291 72.9942 52.4863 72.8368 52.4863H71.0819C71.0819 52.2804 71.1157 52.1318 71.1832 52.0403C71.2732 51.9488 71.3632 51.8573 71.4531 51.7658C71.5431 51.6514 71.6219 51.5028 71.6894 51.3198C71.7794 51.1368 71.8244 50.8509 71.8244 50.4621V42.0911C71.7569 41.3821 71.4419 40.8675 70.8794 40.5473C71.1269 40.3872 71.4419 40.3071 71.8244 40.3071V30.4952C71.8244 30.1064 71.7794 29.8205 71.6894 29.6375C71.6219 29.4546 71.5431 29.3173 71.4531 29.2258C71.3632 29.1115 71.2732 29.0086 71.1832 28.9171C71.1157 28.8256 71.0819 28.6769 71.0819 28.4711H72.8705C73.0055 28.4711 73.1292 28.5283 73.2417 28.6426C73.3542 28.7341 73.4104 28.8599 73.4104 29.02C73.4104 28.6541 73.5904 28.4711 73.9504 28.4711H77.1226C77.8425 28.4711 78.5175 28.6083 79.1474 28.8828C79.7773 29.1572 80.3285 29.5346 80.801 30.0149C81.2734 30.4723 81.6447 31.0213 81.9146 31.6617C82.1846 32.3021 82.3308 32.9768 82.3533 33.6858V35.9158C82.3533 36.8764 82.1284 37.7569 81.6784 38.5575C81.2284 39.358 80.621 39.9984 79.8561 40.4787C80.621 40.9361 81.2284 41.5765 81.6784 42.3999C82.1284 43.2004 82.3533 44.0809 82.3533 45.0416V49.6044C82.3533 50.0847 82.3533 50.5765 82.3533 51.0797C82.3758 51.56 82.4321 52.006 82.5221 52.4176C82.6121 52.8065 82.7471 53.1381 82.927 53.4126C83.107 53.687 83.3545 53.8586 83.6695 53.9272ZM80.5985 35.3326C80.576 35.3783 80.5648 35.4355 80.5648 35.5041V36.2932C80.5423 36.3847 80.531 36.4761 80.531 36.5676C80.531 36.6362 80.531 36.7049 80.531 36.7735C80.531 36.8192 80.5198 36.8535 80.4973 36.8764C80.4973 36.8993 80.4973 36.9336 80.4973 36.9793V37.1852C80.4748 37.2309 80.4635 37.2881 80.4635 37.3567C80.4635 37.4024 80.4523 37.4482 80.4298 37.4939C80.4298 37.5397 80.4185 37.574 80.396 37.5968V37.6655L80.3623 37.7341C80.3623 37.7341 80.3848 37.7226 80.4298 37.6998V37.6655L80.4635 37.6312C80.486 37.6083 80.4973 37.5968 80.4973 37.5968C80.4973 37.574 80.5085 37.5511 80.531 37.5282C80.5535 37.4825 80.576 37.4367 80.5985 37.391C80.621 37.3224 80.6435 37.2652 80.666 37.2195C80.6885 37.1737 80.6997 37.1509 80.6997 37.1509C80.6997 37.128 80.711 37.0937 80.7335 37.0479C80.756 37.0022 80.7672 36.9679 80.7672 36.945C80.7672 36.8993 80.7785 36.8535 80.801 36.8078C80.8235 36.762 80.8347 36.7277 80.8347 36.7049C80.8347 36.682 80.846 36.6477 80.8685 36.6019C80.8685 36.5562 80.8685 36.5219 80.8685 36.499C80.891 36.4533 80.9022 36.4075 80.9022 36.3618C80.9247 36.2703 80.936 36.1788 80.936 36.0873C80.9585 35.9958 80.981 35.9043 81.0035 35.8129C81.026 35.7442 81.0372 35.6413 81.0372 35.5041C81.0372 35.4584 81.0372 35.4126 81.0372 35.3669C81.0597 35.3211 81.071 35.2754 81.071 35.2296V34.0289C81.071 33.8916 81.0597 33.7887 81.0372 33.7201V33.5829C81.0372 33.5371 81.026 33.5143 81.0035 33.5143C81.0035 33.4914 81.0035 33.4571 81.0035 33.4113C81.0035 33.297 80.981 33.1254 80.936 32.8967C80.9135 32.851 80.9022 32.8052 80.9022 32.7595C80.9022 32.7138 80.891 32.668 80.8685 32.6223C80.8685 32.5994 80.8572 32.588 80.8347 32.588C80.8347 32.5651 80.8347 32.5422 80.8347 32.5194C80.8347 32.4965 80.8235 32.485 80.801 32.485C80.801 32.4622 80.801 32.4393 80.801 32.4164C80.7785 32.3707 80.7672 32.3364 80.7672 32.3135C80.7672 32.2906 80.756 32.2563 80.7335 32.2106C80.711 32.1648 80.6997 32.1305 80.6997 32.1077C80.6997 32.0848 80.6885 32.0505 80.666 32.0047C80.6435 31.9819 80.6323 31.959 80.6323 31.9361C80.6323 31.9133 80.621 31.8904 80.5985 31.8675C80.5535 31.776 80.531 31.7303 80.531 31.7303C80.5085 31.7074 80.4973 31.696 80.4973 31.696C80.4973 31.6731 80.486 31.6502 80.4635 31.6274C80.441 31.6045 80.4298 31.5816 80.4298 31.5587C80.4073 31.5359 80.396 31.513 80.396 31.4901H80.3623C80.3623 31.4901 80.3735 31.513 80.396 31.5587V31.6274C80.4185 31.6502 80.4298 31.696 80.4298 31.7646C80.4298 31.7875 80.4298 31.8103 80.4298 31.8332C80.4523 31.8332 80.4635 31.8561 80.4635 31.9018C80.4635 31.9704 80.4748 32.0276 80.4973 32.0734V32.2449C80.4973 32.2906 80.4973 32.3249 80.4973 32.3478C80.5198 32.3707 80.531 32.405 80.531 32.4507C80.531 32.6566 80.5423 32.8167 80.5648 32.931V33.48C80.5873 33.5943 80.5985 33.7773 80.5985 34.0289V35.3326ZM73.6467 38.8662C73.6467 38.7519 73.6354 38.6261 73.6129 38.4888C73.6129 38.3516 73.6129 38.2144 73.6129 38.0772V37.3224C73.5904 36.8192 73.5792 36.3389 73.5792 35.8815C73.5792 35.424 73.5679 34.9895 73.5454 34.5778C73.5229 34.3948 73.5117 34.2119 73.5117 34.0289C73.5117 33.8459 73.5004 33.6744 73.4779 33.5143C73.4779 33.3313 73.4667 33.1712 73.4442 33.034C73.4442 32.8967 73.4442 32.7709 73.4442 32.6566C73.4442 32.5422 73.4329 32.4393 73.4104 32.3478C73.4104 32.2563 73.4104 32.1763 73.4104 32.1077V31.9361C73.388 31.9361 73.3767 31.9476 73.3767 31.9704V32.1077C73.3767 32.1763 73.3655 32.2563 73.343 32.3478C73.343 32.4393 73.343 32.5422 73.343 32.6566C73.343 32.7709 73.3317 32.8967 73.3092 33.034C73.3092 33.1712 73.3092 33.3313 73.3092 33.5143C73.2867 33.6744 73.2755 33.8459 73.2755 34.0289C73.2755 34.2119 73.2642 34.3948 73.2417 34.5778C73.2192 34.9895 73.208 35.424 73.208 35.8815C73.208 36.3389 73.1967 36.8192 73.1742 37.3224V38.0772C73.1742 38.2144 73.163 38.3516 73.1405 38.4888C73.1405 38.6261 73.1405 38.7519 73.1405 38.8662V42.0568C73.1405 42.2398 73.1517 42.377 73.1742 42.4685V43.6006C73.1742 43.8522 73.1742 44.1038 73.1742 44.3554C73.1967 44.5841 73.208 44.8128 73.208 45.0416C73.208 45.2931 73.208 45.5219 73.208 45.7277C73.2305 45.9335 73.2417 46.1394 73.2417 46.3452C73.2642 46.5511 73.2755 46.7455 73.2755 46.9285C73.2755 47.0886 73.2867 47.2601 73.3092 47.4431C73.3092 47.6032 73.3092 47.7518 73.3092 47.8891C73.3317 48.0263 73.343 48.1521 73.343 48.2665C73.343 48.3808 73.343 48.4952 73.343 48.6095C73.3655 48.701 73.3767 48.7696 73.3767 48.8154V48.9869C73.3767 49.0098 73.388 49.0212 73.4104 49.0212V48.8154C73.4104 48.7696 73.4104 48.701 73.4104 48.6095C73.4329 48.4952 73.4442 48.3808 73.4442 48.2665C73.4442 48.1521 73.4442 48.0263 73.4442 47.8891C73.4667 47.7518 73.4779 47.6032 73.4779 47.4431C73.5004 47.2601 73.5117 47.0886 73.5117 46.9285C73.5117 46.7455 73.5229 46.5511 73.5454 46.3452C73.5454 46.1394 73.5454 45.9335 73.5454 45.7277C73.5679 45.5219 73.5792 45.2931 73.5792 45.0416C73.5792 44.8128 73.5792 44.5841 73.5792 44.3554C73.6017 44.1038 73.6129 43.8522 73.6129 43.6006V42.8459C73.6129 42.6629 73.6242 42.5371 73.6467 42.4685V38.8662ZM79.2149 33.823C79.2149 33.5257 79.2036 33.1598 79.1811 32.7252C79.1586 32.2906 79.0799 31.8789 78.9449 31.4901C78.8099 31.1013 78.5962 30.7697 78.3037 30.4952C78.0338 30.1979 77.6288 30.0492 77.0888 30.0492H75.874C75.6265 30.0721 75.4128 30.175 75.2328 30.358C75.0528 30.541 74.9628 30.7582 74.9628 31.0098V38.729C74.9628 38.9806 75.0528 39.1979 75.2328 39.3808C75.4128 39.5638 75.6265 39.6553 75.874 39.6553H77.0888C77.6288 39.6553 78.0338 39.5181 78.3037 39.2436C78.5962 38.9691 78.8099 38.6375 78.9449 38.2487C79.0799 37.837 79.1586 37.4253 79.1811 37.0136C79.2036 36.5791 79.2149 36.2131 79.2149 35.9158V33.823ZM81.4759 52.6235C81.4759 52.6235 81.4647 52.6121 81.4422 52.5892L81.4084 52.5549C81.3859 52.5091 81.3634 52.4634 81.3409 52.4176C81.3409 52.3719 81.3184 52.3262 81.2734 52.2804C81.2509 52.2118 81.2284 52.1432 81.2059 52.0746C81.1834 51.9831 81.161 51.8802 81.1385 51.7658C81.0935 51.5371 81.071 51.3198 81.071 51.114C81.0485 50.9996 81.0372 50.8852 81.0372 50.7709C81.0372 50.6337 81.0372 50.485 81.0372 50.3249V48.5066C81.0372 48.3465 81.0372 48.1864 81.0372 48.0263C81.0372 47.8662 81.0485 47.6947 81.071 47.5117C81.071 47.3516 81.071 47.1915 81.071 47.0314C81.071 46.8713 81.0597 46.7112 81.0372 46.5511V46.0708C81.0372 45.8421 81.026 45.682 81.0035 45.5905C81.0035 45.4304 80.9922 45.2817 80.9697 45.1445C80.9697 44.9844 80.9585 44.8357 80.936 44.6985C80.891 44.3783 80.846 44.1038 80.801 43.8751C80.7785 43.7607 80.756 43.6578 80.7335 43.5663C80.711 43.452 80.6772 43.3376 80.6323 43.2233C80.5873 43.1089 80.5535 43.0174 80.531 42.9488C80.5085 42.8802 80.4748 42.8116 80.4298 42.743C80.3848 42.6743 80.351 42.6172 80.3285 42.5714C80.306 42.5257 80.2835 42.4799 80.261 42.4342C80.2385 42.4342 80.216 42.4228 80.1935 42.3999C80.171 42.3999 80.1598 42.3884 80.1598 42.3656L80.1935 42.3999C80.1935 42.4228 80.2048 42.4456 80.2273 42.4685C80.2273 42.4914 80.2273 42.5142 80.2273 42.5371C80.2498 42.5371 80.261 42.56 80.261 42.6057C80.2835 42.6286 80.2948 42.6515 80.2948 42.6743C80.2948 42.6972 80.306 42.7315 80.3285 42.7773C80.351 42.8688 80.3848 43.0289 80.4298 43.2576C80.4523 43.3719 80.4635 43.4863 80.4635 43.6006C80.486 43.715 80.5085 43.8294 80.531 43.9437C80.531 44.0581 80.531 44.1839 80.531 44.3211C80.5535 44.4355 80.5648 44.5727 80.5648 44.7328V48.9869C80.5648 49.0784 80.5648 49.1584 80.5648 49.2271C80.5873 49.2957 80.5985 49.3757 80.5985 49.4672C80.5985 49.6273 80.5985 49.7874 80.5985 49.9475C80.621 50.0847 80.6435 50.222 80.666 50.3592C80.6885 50.4964 80.6997 50.6337 80.6997 50.7709C80.7222 50.9081 80.7447 51.0339 80.7672 51.1483C80.8122 51.2855 80.846 51.4113 80.8685 51.5257C80.891 51.6171 80.9247 51.7201 80.9697 51.8344C81.0147 51.9488 81.0485 52.0403 81.071 52.1089C81.0935 52.1775 81.1272 52.2461 81.1722 52.3147L81.2397 52.3833C81.2622 52.4062 81.2734 52.4291 81.2734 52.452C81.2734 52.452 81.2847 52.4634 81.3072 52.4863L81.4422 52.6235H81.4759Z" fill="#F4EDE8"/>
<path d="M93.7882 35.9158C93.7882 36.8764 93.5632 37.7569 93.1133 38.5575C92.6633 39.358 92.0559 39.9984 91.2909 40.4787C92.0559 40.9361 92.6633 41.5765 93.1133 42.3999C93.5632 43.2004 93.7882 44.0809 93.7882 45.0416V47.2715C93.7657 48.0034 93.6195 48.6896 93.3495 49.33C93.0795 49.9475 92.7083 50.4964 92.2359 50.9767C91.7634 51.4342 91.2122 51.8001 90.5823 52.0746C89.9523 52.349 89.2774 52.4863 88.5575 52.4863H85.3515C85.2165 52.4863 85.0928 52.4291 84.9803 52.3147C84.8678 52.2004 84.8116 52.0746 84.8116 51.9373C84.8116 52.0746 84.7553 52.2004 84.6428 52.3147C84.5528 52.4291 84.4291 52.4863 84.2716 52.4863H82.5168C82.5168 52.2804 82.5505 52.1318 82.618 52.0403C82.708 51.9488 82.798 51.8573 82.888 51.7658C82.978 51.6514 83.0567 51.5028 83.1242 51.3198C83.2142 51.1368 83.2592 50.8509 83.2592 50.4621V42.0911C83.1917 41.3821 82.8768 40.8675 82.3143 40.5473C82.5618 40.3872 82.8768 40.3071 83.2592 40.3071V30.4952C83.2592 30.1064 83.2142 29.8205 83.1242 29.6375C83.0567 29.4546 82.978 29.3173 82.888 29.2258C82.798 29.1115 82.708 29.0086 82.618 28.9171C82.5505 28.8256 82.5168 28.6769 82.5168 28.4711H84.3054C84.4404 28.4711 84.5641 28.5283 84.6766 28.6426C84.7891 28.7341 84.8453 28.8599 84.8453 29.02C84.8453 28.6541 85.0253 28.4711 85.3853 28.4711H88.5575C89.2774 28.4711 89.9523 28.6083 90.5823 28.8828C91.2122 29.1572 91.7634 29.5346 92.2359 30.0149C92.7083 30.4723 93.0795 31.0213 93.3495 31.6617C93.6195 32.3021 93.7657 32.9768 93.7882 33.6858V35.9158ZM85.0816 38.8662C85.0816 38.7519 85.0703 38.6261 85.0478 38.4888C85.0478 38.3516 85.0478 38.2144 85.0478 38.0772V37.3224C85.0253 36.8192 85.0141 36.3389 85.0141 35.8815C85.0141 35.424 85.0028 34.9895 84.9803 34.5778C84.9578 34.3948 84.9466 34.2119 84.9466 34.0289C84.9466 33.8459 84.9353 33.6744 84.9128 33.5143C84.9128 33.3313 84.9016 33.1712 84.8791 33.034C84.8791 32.8967 84.8791 32.7709 84.8791 32.6566C84.8791 32.5422 84.8678 32.4393 84.8453 32.3478C84.8453 32.2563 84.8453 32.1763 84.8453 32.1077V31.9361C84.8228 31.9361 84.8116 31.9476 84.8116 31.9704V32.1077C84.8116 32.1763 84.8003 32.2563 84.7778 32.3478C84.7778 32.4393 84.7778 32.5422 84.7778 32.6566C84.7778 32.7709 84.7666 32.8967 84.7441 33.034C84.7441 33.1712 84.7441 33.3313 84.7441 33.5143C84.7216 33.6744 84.7103 33.8459 84.7103 34.0289C84.7103 34.2119 84.6991 34.3948 84.6766 34.5778C84.6541 34.9895 84.6428 35.424 84.6428 35.8815C84.6428 36.3389 84.6316 36.8192 84.6091 37.3224V38.0772C84.6091 38.2144 84.5978 38.3516 84.5753 38.4888C84.5753 38.6261 84.5753 38.7519 84.5753 38.8662V42.0568C84.5753 42.2398 84.5866 42.377 84.6091 42.4685V43.6006C84.6091 43.8522 84.6091 44.1038 84.6091 44.3554C84.6316 44.5841 84.6428 44.8128 84.6428 45.0416C84.6428 45.2931 84.6428 45.5219 84.6428 45.7277C84.6653 45.9335 84.6766 46.1394 84.6766 46.3452C84.6991 46.5511 84.7103 46.7455 84.7103 46.9285C84.7103 47.0886 84.7216 47.2601 84.7441 47.4431C84.7441 47.6032 84.7441 47.7518 84.7441 47.8891C84.7666 48.0263 84.7778 48.1521 84.7778 48.2665C84.7778 48.3808 84.7778 48.4952 84.7778 48.6095C84.8003 48.701 84.8116 48.7696 84.8116 48.8154V48.9869C84.8116 49.0098 84.8228 49.0212 84.8453 49.0212V48.8154C84.8453 48.7696 84.8453 48.701 84.8453 48.6095C84.8678 48.4952 84.8791 48.3808 84.8791 48.2665C84.8791 48.1521 84.8791 48.0263 84.8791 47.8891C84.9016 47.7518 84.9128 47.6032 84.9128 47.4431C84.9353 47.2601 84.9466 47.0886 84.9466 46.9285C84.9466 46.7455 84.9578 46.5511 84.9803 46.3452C84.9803 46.1394 84.9803 45.9335 84.9803 45.7277C85.0028 45.5219 85.0141 45.2931 85.0141 45.0416C85.0141 44.8128 85.0141 44.5841 85.0141 44.3554C85.0366 44.1038 85.0478 43.8522 85.0478 43.6006V42.8459C85.0478 42.6629 85.0591 42.5371 85.0816 42.4685V38.8662ZM92.0334 46.8255C92.0109 46.8713 91.9996 46.9285 91.9996 46.9971V47.7861C91.9771 47.8776 91.9659 47.9691 91.9659 48.0606C91.9659 48.1292 91.9659 48.1978 91.9659 48.2665C91.9659 48.3122 91.9546 48.3465 91.9321 48.3694C91.9321 48.3922 91.9321 48.4265 91.9321 48.4723V48.6781C91.9096 48.7239 91.8984 48.7811 91.8984 48.8497C91.8984 48.8954 91.8871 48.9412 91.8646 48.9869C91.8646 49.0326 91.8534 49.067 91.8309 49.0898V49.1584L91.7971 49.2271C91.7971 49.2271 91.8196 49.2156 91.8646 49.1927V49.1584L91.8984 49.1241C91.9209 49.1013 91.9321 49.0898 91.9321 49.0898C91.9321 49.067 91.9434 49.0441 91.9659 49.0212C91.9884 48.9755 92.0109 48.9297 92.0334 48.884C92.0559 48.8154 92.0784 48.7582 92.1009 48.7124C92.1234 48.6667 92.1346 48.6438 92.1346 48.6438C92.1346 48.621 92.1459 48.5867 92.1684 48.5409C92.1909 48.4952 92.2021 48.4609 92.2021 48.438C92.2021 48.4151 92.2134 48.3808 92.2359 48.3351C92.2583 48.2893 92.2696 48.255 92.2696 48.2321C92.2696 48.1864 92.2809 48.1407 92.3034 48.0949C92.3034 48.0492 92.3034 48.0149 92.3034 47.992C92.3259 47.9462 92.3371 47.9005 92.3371 47.8548C92.3596 47.7633 92.3708 47.6718 92.3708 47.5803C92.3933 47.4888 92.4158 47.3973 92.4383 47.3058C92.4608 47.2372 92.4721 47.1343 92.4721 46.9971C92.4721 46.9513 92.4721 46.9056 92.4721 46.8598C92.4946 46.8141 92.5058 46.7684 92.5058 46.7226V45.5219C92.5058 45.3846 92.4946 45.2817 92.4721 45.2131V45.0759C92.4721 45.0301 92.4608 45.0072 92.4383 45.0072C92.4383 44.9844 92.4383 44.9615 92.4383 44.9386C92.4383 44.8243 92.4271 44.7328 92.4046 44.6642C92.4046 44.5727 92.3933 44.4812 92.3708 44.3897C92.3483 44.344 92.3371 44.2982 92.3371 44.2525C92.3371 44.2067 92.3259 44.161 92.3034 44.1153C92.3034 44.0924 92.2921 44.0809 92.2696 44.0809C92.2696 44.0581 92.2696 44.0352 92.2696 44.0123C92.2696 43.9895 92.2583 43.978 92.2359 43.978C92.2359 43.9552 92.2359 43.9323 92.2359 43.9094C92.2134 43.8637 92.2021 43.8294 92.2021 43.8065C92.2021 43.7836 92.1909 43.7493 92.1684 43.7036C92.1459 43.6578 92.1346 43.6235 92.1346 43.6006C92.1346 43.5778 92.1234 43.5435 92.1009 43.4977C92.0784 43.4748 92.0671 43.452 92.0671 43.4291C92.0671 43.4062 92.0559 43.3834 92.0334 43.3605C91.9884 43.269 91.9659 43.2233 91.9659 43.2233C91.9434 43.2004 91.9321 43.189 91.9321 43.189C91.9321 43.1661 91.9209 43.1432 91.8984 43.1203C91.8759 43.0975 91.8646 43.0746 91.8646 43.0517L91.7971 42.9831C91.7971 42.9831 91.8084 43.006 91.8309 43.0517V43.1203C91.8534 43.1432 91.8646 43.189 91.8646 43.2576C91.8646 43.2804 91.8646 43.3033 91.8646 43.3262C91.8871 43.3262 91.8984 43.3491 91.8984 43.3948C91.8984 43.4634 91.9096 43.5206 91.9321 43.5663V43.7379C91.9321 43.7836 91.9321 43.8179 91.9321 43.8408C91.9546 43.8637 91.9659 43.898 91.9659 43.9437C91.9659 44.1496 91.9771 44.3097 91.9996 44.424V44.9729C92.0221 45.0873 92.0334 45.2703 92.0334 45.5219V46.8255ZM90.6498 45.0416C90.6498 44.7442 90.6385 44.3783 90.616 43.9437C90.5935 43.5092 90.5148 43.0975 90.3798 42.7087C90.2448 42.3198 90.0311 41.9882 89.7386 41.7137C89.4686 41.4164 89.0637 41.2677 88.5237 41.2677H87.3088C87.0614 41.2906 86.8476 41.3935 86.6676 41.5765C86.4877 41.7595 86.3977 41.9768 86.3977 42.2283V49.9475C86.3977 50.1991 86.4877 50.4164 86.6676 50.5994C86.8476 50.7823 87.0614 50.8738 87.3088 50.8738H88.5237C89.0637 50.8738 89.4686 50.7366 89.7386 50.4621C90.0311 50.1877 90.2448 49.856 90.3798 49.4672C90.5148 49.0555 90.5935 48.6438 90.616 48.2321C90.6385 47.7976 90.6498 47.4316 90.6498 47.1343V45.0416ZM90.6498 33.823C90.6498 33.5257 90.6385 33.1598 90.616 32.7252C90.5935 32.2906 90.5148 31.8789 90.3798 31.4901C90.2448 31.1013 90.0311 30.7697 89.7386 30.4952C89.4686 30.1979 89.0637 30.0492 88.5237 30.0492H87.3088C87.0614 30.0721 86.8476 30.175 86.6676 30.358C86.4877 30.541 86.3977 30.7582 86.3977 31.0098V38.729C86.3977 38.9806 86.4877 39.1979 86.6676 39.3808C86.8476 39.5638 87.0614 39.6553 87.3088 39.6553H88.5237C89.0637 39.6553 89.4686 39.5181 89.7386 39.2436C90.0311 38.9691 90.2448 38.6375 90.3798 38.2487C90.5148 37.837 90.5935 37.4253 90.616 37.0136C90.6385 36.5791 90.6498 36.2131 90.6498 35.9158V33.823ZM92.1009 37.2195C92.1234 37.1737 92.1346 37.1509 92.1346 37.1509C92.1346 37.128 92.1459 37.0937 92.1684 37.0479C92.1909 37.0022 92.2021 36.9679 92.2021 36.945C92.2021 36.8993 92.2134 36.8535 92.2359 36.8078C92.2583 36.762 92.2696 36.7277 92.2696 36.7049C92.2696 36.682 92.2809 36.6477 92.3034 36.6019C92.3034 36.5562 92.3034 36.5219 92.3034 36.499C92.3259 36.4533 92.3371 36.4075 92.3371 36.3618C92.3596 36.2703 92.3708 36.1788 92.3708 36.0873C92.3933 35.9958 92.4158 35.9043 92.4383 35.8129C92.4608 35.7442 92.4721 35.6413 92.4721 35.5041C92.4721 35.4584 92.4721 35.4126 92.4721 35.3669C92.4946 35.3211 92.5058 35.2754 92.5058 35.2296V34.0289C92.5058 33.8916 92.4946 33.7887 92.4721 33.7201V33.5829C92.4721 33.5371 92.4608 33.5143 92.4383 33.5143C92.4383 33.4914 92.4383 33.4571 92.4383 33.4113C92.4383 33.297 92.4158 33.1254 92.3708 32.8967C92.3483 32.851 92.3371 32.8052 92.3371 32.7595C92.3371 32.7138 92.3259 32.668 92.3034 32.6223C92.3034 32.5994 92.2921 32.588 92.2696 32.588C92.2696 32.5651 92.2696 32.5422 92.2696 32.5194C92.2696 32.4965 92.2583 32.485 92.2359 32.485C92.2359 32.4622 92.2359 32.4393 92.2359 32.4164C92.2134 32.3707 92.2021 32.3364 92.2021 32.3135C92.2021 32.2906 92.1909 32.2563 92.1684 32.2106C92.1459 32.1648 92.1346 32.1305 92.1346 32.1077C92.1346 32.0848 92.1234 32.0505 92.1009 32.0047C92.0784 31.9819 92.0671 31.959 92.0671 31.9361C92.0671 31.9133 92.0559 31.8904 92.0334 31.8675C91.9884 31.776 91.9659 31.7303 91.9659 31.7303C91.9434 31.7074 91.9321 31.696 91.9321 31.696C91.9321 31.6731 91.9209 31.6502 91.8984 31.6274C91.8759 31.6045 91.8646 31.5816 91.8646 31.5587C91.8421 31.5359 91.8309 31.513 91.8309 31.4901H91.7971C91.7971 31.4901 91.8084 31.513 91.8309 31.5587V31.6274C91.8534 31.6502 91.8646 31.696 91.8646 31.7646C91.8646 31.7875 91.8646 31.8103 91.8646 31.8332C91.8871 31.8332 91.8984 31.8561 91.8984 31.9018C91.8984 31.9704 91.9096 32.0276 91.9321 32.0734V32.2449C91.9321 32.2906 91.9321 32.3249 91.9321 32.3478C91.9546 32.3707 91.9659 32.405 91.9659 32.4507C91.9659 32.6566 91.9771 32.8167 91.9996 32.931V33.48C92.0221 33.5943 92.0334 33.7773 92.0334 34.0289V35.3326C92.0109 35.3783 91.9996 35.4355 91.9996 35.5041V36.2932C91.9771 36.3847 91.9659 36.4761 91.9659 36.5676C91.9659 36.6362 91.9659 36.7049 91.9659 36.7735C91.9659 36.8192 91.9546 36.8535 91.9321 36.8764C91.9321 36.8993 91.9321 36.9336 91.9321 36.9793V37.1852C91.9096 37.2309 91.8984 37.2881 91.8984 37.3567C91.8984 37.4024 91.8871 37.4482 91.8646 37.4939C91.8646 37.5397 91.8534 37.574 91.8309 37.5968V37.6655L91.7971 37.7341C91.7971 37.7341 91.8196 37.7226 91.8646 37.6998V37.6655L91.8984 37.6312C91.9209 37.6083 91.9321 37.5968 91.9321 37.5968C91.9321 37.574 91.9434 37.5511 91.9659 37.5282C91.9884 37.4825 92.0109 37.4367 92.0334 37.391C92.0559 37.3224 92.0784 37.2652 92.1009 37.2195Z" fill="#F4EDE8"/>
<path d="M105.291 50.3935C105.291 50.8052 105.324 51.114 105.392 51.3198C105.482 51.5028 105.572 51.6514 105.662 51.7658C105.752 51.8573 105.831 51.9488 105.898 52.0403C105.988 52.1318 106.033 52.2804 106.033 52.4863H96.8539C96.7189 52.4863 96.5952 52.4291 96.4827 52.3147C96.3702 52.2004 96.3139 52.0746 96.3139 51.9373C96.3139 52.0746 96.2577 52.2004 96.1452 52.3147C96.0552 52.4291 95.9315 52.4863 95.774 52.4863H94.0192C94.0192 52.2804 94.0529 52.1318 94.1204 52.0403C94.2104 51.9488 94.3004 51.8573 94.3904 51.7658C94.4804 51.6514 94.5591 51.5028 94.6266 51.3198C94.7166 51.1368 94.7616 50.8509 94.7616 50.4621V42.0911C94.6941 41.3821 94.3791 40.8675 93.8167 40.5473C94.0642 40.3872 94.3791 40.3071 94.7616 40.3071V30.4952C94.7616 30.1064 94.7166 29.8205 94.6266 29.6375C94.5591 29.4546 94.4804 29.3173 94.3904 29.2258C94.3004 29.1115 94.2104 29.0086 94.1204 28.9171C94.0529 28.8256 94.0192 28.6769 94.0192 28.4711H95.8077C95.9427 28.4711 96.0665 28.5283 96.1789 28.6426C96.2914 28.7341 96.3477 28.8599 96.3477 29.02C96.3477 28.6541 96.5277 28.4711 96.8876 28.4711H106.033C106.033 28.6769 105.988 28.8256 105.898 28.9171C105.831 29.0086 105.752 29.1115 105.662 29.2258C105.572 29.3173 105.482 29.466 105.392 29.6718C105.324 29.8548 105.291 30.1521 105.291 30.5638V35.1267C104.503 35.1267 103.896 34.978 103.468 34.6807C103.063 34.3605 102.76 34.006 102.557 33.6172C102.31 33.1826 102.175 32.668 102.152 32.0734V31.0098C102.152 30.7582 102.062 30.541 101.882 30.358C101.702 30.175 101.488 30.0721 101.241 30.0492H98.8112C98.5637 30.0721 98.35 30.175 98.17 30.358C97.99 30.541 97.9 30.7582 97.9 31.0098V38.729C97.9 38.9806 97.99 39.1979 98.17 39.3808C98.35 39.5638 98.5637 39.6553 98.8112 39.6553H99.0474C99.2949 39.6553 99.4974 39.5638 99.6549 39.3808C99.8348 39.1979 99.9248 38.9806 99.9248 38.729V38.6947C99.9473 38.3516 100.037 38.0543 100.195 37.8027C100.33 37.574 100.532 37.3681 100.802 37.1852C101.072 37.0022 101.466 36.9107 101.983 36.9107V44.0123C101.466 44.0123 101.072 43.9208 100.802 43.7379C100.532 43.5549 100.33 43.3491 100.195 43.1203C100.037 42.8688 99.9473 42.5714 99.9248 42.2283C99.9248 41.9768 99.8348 41.7595 99.6549 41.5765C99.4974 41.3935 99.2949 41.2906 99.0474 41.2677H98.8112C98.5637 41.2906 98.35 41.3935 98.17 41.5765C97.99 41.7595 97.9 41.9768 97.9 42.2283V49.9475C97.9 50.1991 97.99 50.4164 98.17 50.5994C98.35 50.7823 98.5637 50.8738 98.8112 50.8738H101.241C101.488 50.8738 101.702 50.7823 101.882 50.5994C102.062 50.4164 102.152 50.1991 102.152 49.9475V48.8497C102.175 48.2779 102.31 47.7747 102.557 47.3401C102.76 46.9513 103.063 46.5968 103.468 46.2766C103.896 45.9564 104.503 45.7963 105.291 45.7963V50.3935ZM96.5839 38.8662C96.5839 38.7519 96.5727 38.6261 96.5502 38.4888C96.5502 38.3516 96.5502 38.2144 96.5502 38.0772V37.3224C96.5277 36.8192 96.5164 36.3389 96.5164 35.8815C96.5164 35.424 96.5052 34.9895 96.4827 34.5778C96.4602 34.3948 96.4489 34.2119 96.4489 34.0289C96.4489 33.8459 96.4377 33.6744 96.4152 33.5143C96.4152 33.3313 96.4039 33.1712 96.3814 33.034C96.3814 32.8967 96.3814 32.7709 96.3814 32.6566C96.3814 32.5422 96.3702 32.4393 96.3477 32.3478C96.3477 32.2563 96.3477 32.1763 96.3477 32.1077V31.9361C96.3252 31.9361 96.3139 31.9476 96.3139 31.9704V32.1077C96.3139 32.1763 96.3027 32.2563 96.2802 32.3478C96.2802 32.4393 96.2802 32.5422 96.2802 32.6566C96.2802 32.7709 96.2689 32.8967 96.2464 33.034C96.2464 33.1712 96.2464 33.3313 96.2464 33.5143C96.2239 33.6744 96.2127 33.8459 96.2127 34.0289C96.2127 34.2119 96.2014 34.3948 96.1789 34.5778C96.1564 34.9895 96.1452 35.424 96.1452 35.8815C96.1452 36.3389 96.1339 36.8192 96.1115 37.3224V38.0772C96.1115 38.2144 96.1002 38.3516 96.0777 38.4888C96.0777 38.6261 96.0777 38.7519 96.0777 38.8662V42.0568C96.0777 42.2398 96.089 42.377 96.1115 42.4685V43.6006C96.1115 43.8522 96.1115 44.1038 96.1115 44.3554C96.1339 44.5841 96.1452 44.8128 96.1452 45.0416C96.1452 45.2931 96.1452 45.5219 96.1452 45.7277C96.1677 45.9335 96.1789 46.1394 96.1789 46.3452C96.2014 46.5511 96.2127 46.7455 96.2127 46.9285C96.2127 47.0886 96.2239 47.2601 96.2464 47.4431C96.2464 47.6032 96.2464 47.7518 96.2464 47.8891C96.2689 48.0263 96.2802 48.1521 96.2802 48.2665C96.2802 48.3808 96.2802 48.4952 96.2802 48.6095C96.3027 48.701 96.3139 48.7696 96.3139 48.8154V48.9869C96.3139 49.0098 96.3252 49.0212 96.3477 49.0212V48.8154C96.3477 48.7696 96.3477 48.701 96.3477 48.6095C96.3702 48.4952 96.3814 48.3808 96.3814 48.2665C96.3814 48.1521 96.3814 48.0263 96.3814 47.8891C96.4039 47.7518 96.4152 47.6032 96.4152 47.4431C96.4377 47.2601 96.4489 47.0886 96.4489 46.9285C96.4489 46.7455 96.4602 46.5511 96.4827 46.3452C96.4827 46.1394 96.4827 45.9335 96.4827 45.7277C96.5052 45.5219 96.5164 45.2931 96.5164 45.0416C96.5164 44.8128 96.5164 44.5841 96.5164 44.3554C96.5389 44.1038 96.5502 43.8522 96.5502 43.6006V42.8459C96.5502 42.6629 96.5614 42.5371 96.5839 42.4685V38.8662Z" fill="#F4EDE8"/>
<path d="M118.866 53.9272C119.114 53.9729 119.282 54.053 119.372 54.1673C119.485 54.2817 119.564 54.396 119.609 54.5104C119.654 54.6476 119.676 54.7963 119.676 54.9564C118.956 54.9564 118.281 54.8649 117.651 54.6819C117.021 54.499 116.459 54.2016 115.964 53.7899C115.492 53.3783 115.109 52.8408 114.817 52.1775C114.547 51.5142 114.412 50.7023 114.412 49.7417V45.0416C114.412 44.7442 114.4 44.3783 114.378 43.9437C114.355 43.5092 114.277 43.0975 114.142 42.7087C114.007 42.3198 113.793 41.9882 113.501 41.7137C113.231 41.4164 112.826 41.2677 112.286 41.2677H110.902C110.7 41.3135 110.52 41.4278 110.362 41.6108C110.227 41.7709 110.16 41.9653 110.16 42.194V50.3935C110.16 50.8052 110.193 51.114 110.261 51.3198C110.351 51.5028 110.441 51.6514 110.531 51.7658C110.621 51.8573 110.7 51.9488 110.767 52.0403C110.857 52.1318 110.902 52.2804 110.902 52.4863H109.113C108.978 52.4863 108.855 52.4291 108.742 52.3147C108.63 52.2004 108.573 52.0746 108.573 51.9373C108.573 52.0746 108.517 52.2004 108.405 52.3147C108.315 52.4291 108.191 52.4863 108.034 52.4863H106.279C106.279 52.2804 106.312 52.1318 106.38 52.0403C106.47 51.9488 106.56 51.8573 106.65 51.7658C106.74 51.6514 106.819 51.5028 106.886 51.3198C106.976 51.1368 107.021 50.8509 107.021 50.4621V42.0911C106.954 41.3821 106.639 40.8675 106.076 40.5473C106.324 40.3872 106.639 40.3071 107.021 40.3071V30.4952C107.021 30.1064 106.976 29.8205 106.886 29.6375C106.819 29.4546 106.74 29.3173 106.65 29.2258C106.56 29.1115 106.47 29.0086 106.38 28.9171C106.312 28.8256 106.279 28.6769 106.279 28.4711H108.067C108.202 28.4711 108.326 28.5283 108.438 28.6426C108.551 28.7341 108.607 28.8599 108.607 29.02C108.607 28.6541 108.787 28.4711 109.147 28.4711H112.319C113.039 28.4711 113.714 28.6083 114.344 28.8828C114.974 29.1572 115.525 29.5346 115.998 30.0149C116.47 30.4723 116.841 31.0213 117.111 31.6617C117.381 32.3021 117.528 32.9768 117.55 33.6858V35.9158C117.55 36.8764 117.325 37.7569 116.875 38.5575C116.425 39.358 115.818 39.9984 115.053 40.4787C115.818 40.9361 116.425 41.5765 116.875 42.3999C117.325 43.2004 117.55 44.0809 117.55 45.0416V49.6044C117.55 50.0847 117.55 50.5765 117.55 51.0797C117.573 51.56 117.629 52.006 117.719 52.4176C117.809 52.8065 117.944 53.1381 118.124 53.4126C118.304 53.687 118.551 53.8586 118.866 53.9272ZM115.795 35.3326C115.773 35.3783 115.762 35.4355 115.762 35.5041V36.2932C115.739 36.3847 115.728 36.4761 115.728 36.5676C115.728 36.6362 115.728 36.7049 115.728 36.7735C115.728 36.8192 115.717 36.8535 115.694 36.8764C115.694 36.8993 115.694 36.9336 115.694 36.9793V37.1852C115.672 37.2309 115.66 37.2881 115.66 37.3567C115.66 37.4024 115.649 37.4482 115.627 37.4939C115.627 37.5397 115.615 37.574 115.593 37.5968V37.6655L115.559 37.7341C115.559 37.7341 115.582 37.7226 115.627 37.6998V37.6655L115.66 37.6312C115.683 37.6083 115.694 37.5968 115.694 37.5968C115.694 37.574 115.705 37.5511 115.728 37.5282C115.75 37.4825 115.773 37.4367 115.795 37.391C115.818 37.3224 115.84 37.2652 115.863 37.2195C115.885 37.1737 115.897 37.1509 115.897 37.1509C115.897 37.128 115.908 37.0937 115.93 37.0479C115.953 37.0022 115.964 36.9679 115.964 36.945C115.964 36.8993 115.975 36.8535 115.998 36.8078C116.02 36.762 116.032 36.7277 116.032 36.7049C116.032 36.682 116.043 36.6477 116.065 36.6019C116.065 36.5562 116.065 36.5219 116.065 36.499C116.088 36.4533 116.099 36.4075 116.099 36.3618C116.122 36.2703 116.133 36.1788 116.133 36.0873C116.155 35.9958 116.178 35.9043 116.2 35.8129C116.223 35.7442 116.234 35.6413 116.234 35.5041C116.234 35.4584 116.234 35.4126 116.234 35.3669C116.256 35.3211 116.268 35.2754 116.268 35.2296V34.0289C116.268 33.8916 116.256 33.7887 116.234 33.7201V33.5829C116.234 33.5371 116.223 33.5143 116.2 33.5143C116.2 33.4914 116.2 33.4571 116.2 33.4113C116.2 33.297 116.178 33.1254 116.133 32.8967C116.11 32.851 116.099 32.8052 116.099 32.7595C116.099 32.7138 116.088 32.668 116.065 32.6223C116.065 32.5994 116.054 32.588 116.032 32.588C116.032 32.5651 116.032 32.5422 116.032 32.5194C116.032 32.4965 116.02 32.485 115.998 32.485C115.998 32.4622 115.998 32.4393 115.998 32.4164C115.975 32.3707 115.964 32.3364 115.964 32.3135C115.964 32.2906 115.953 32.2563 115.93 32.2106C115.908 32.1648 115.897 32.1305 115.897 32.1077C115.897 32.0848 115.885 32.0505 115.863 32.0047C115.84 31.9819 115.829 31.959 115.829 31.9361C115.829 31.9133 115.818 31.8904 115.795 31.8675C115.75 31.776 115.728 31.7303 115.728 31.7303C115.705 31.7074 115.694 31.696 115.694 31.696C115.694 31.6731 115.683 31.6502 115.66 31.6274C115.638 31.6045 115.627 31.5816 115.627 31.5587C115.604 31.5359 115.593 31.513 115.593 31.4901H115.559C115.559 31.4901 115.57 31.513 115.593 31.5587V31.6274C115.615 31.6502 115.627 31.696 115.627 31.7646C115.627 31.7875 115.627 31.8103 115.627 31.8332C115.649 31.8332 115.66 31.8561 115.66 31.9018C115.66 31.9704 115.672 32.0276 115.694 32.0734V32.2449C115.694 32.2906 115.694 32.3249 115.694 32.3478C115.717 32.3707 115.728 32.405 115.728 32.4507C115.728 32.6566 115.739 32.8167 115.762 32.931V33.48C115.784 33.5943 115.795 33.7773 115.795 34.0289V35.3326ZM108.843 38.8662C108.843 38.7519 108.832 38.6261 108.81 38.4888C108.81 38.3516 108.81 38.2144 108.81 38.0772V37.3224C108.787 36.8192 108.776 36.3389 108.776 35.8815C108.776 35.424 108.765 34.9895 108.742 34.5778C108.72 34.3948 108.708 34.2119 108.708 34.0289C108.708 33.8459 108.697 33.6744 108.675 33.5143C108.675 33.3313 108.663 33.1712 108.641 33.034C108.641 32.8967 108.641 32.7709 108.641 32.6566C108.641 32.5422 108.63 32.4393 108.607 32.3478C108.607 32.2563 108.607 32.1763 108.607 32.1077V31.9361C108.585 31.9361 108.573 31.9476 108.573 31.9704V32.1077C108.573 32.1763 108.562 32.2563 108.54 32.3478C108.54 32.4393 108.54 32.5422 108.54 32.6566C108.54 32.7709 108.528 32.8967 108.506 33.034C108.506 33.1712 108.506 33.3313 108.506 33.5143C108.483 33.6744 108.472 33.8459 108.472 34.0289C108.472 34.2119 108.461 34.3948 108.438 34.5778C108.416 34.9895 108.405 35.424 108.405 35.8815C108.405 36.3389 108.394 36.8192 108.371 37.3224V38.0772C108.371 38.2144 108.36 38.3516 108.337 38.4888C108.337 38.6261 108.337 38.7519 108.337 38.8662V42.0568C108.337 42.2398 108.349 42.377 108.371 42.4685V43.6006C108.371 43.8522 108.371 44.1038 108.371 44.3554C108.394 44.5841 108.405 44.8128 108.405 45.0416C108.405 45.2931 108.405 45.5219 108.405 45.7277C108.427 45.9335 108.438 46.1394 108.438 46.3452C108.461 46.5511 108.472 46.7455 108.472 46.9285C108.472 47.0886 108.483 47.2601 108.506 47.4431C108.506 47.6032 108.506 47.7518 108.506 47.8891C108.528 48.0263 108.54 48.1521 108.54 48.2665C108.54 48.3808 108.54 48.4952 108.54 48.6095C108.562 48.701 108.573 48.7696 108.573 48.8154V48.9869C108.573 49.0098 108.585 49.0212 108.607 49.0212V48.8154C108.607 48.7696 108.607 48.701 108.607 48.6095C108.63 48.4952 108.641 48.3808 108.641 48.2665C108.641 48.1521 108.641 48.0263 108.641 47.8891C108.663 47.7518 108.675 47.6032 108.675 47.4431C108.697 47.2601 108.708 47.0886 108.708 46.9285C108.708 46.7455 108.72 46.5511 108.742 46.3452C108.742 46.1394 108.742 45.9335 108.742 45.7277C108.765 45.5219 108.776 45.2931 108.776 45.0416C108.776 44.8128 108.776 44.5841 108.776 44.3554C108.798 44.1038 108.81 43.8522 108.81 43.6006V42.8459C108.81 42.6629 108.821 42.5371 108.843 42.4685V38.8662ZM114.412 33.823C114.412 33.5257 114.4 33.1598 114.378 32.7252C114.355 32.2906 114.277 31.8789 114.142 31.4901C114.007 31.1013 113.793 30.7697 113.501 30.4952C113.231 30.1979 112.826 30.0492 112.286 30.0492H111.071C110.823 30.0721 110.61 30.175 110.43 30.358C110.25 30.541 110.16 30.7582 110.16 31.0098V38.729C110.16 38.9806 110.25 39.1979 110.43 39.3808C110.61 39.5638 110.823 39.6553 111.071 39.6553H112.286C112.826 39.6553 113.231 39.5181 113.501 39.2436C113.793 38.9691 114.007 38.6375 114.142 38.2487C114.277 37.837 114.355 37.4253 114.378 37.0136C114.4 36.5791 114.412 36.2131 114.412 35.9158V33.823ZM116.673 52.6235C116.673 52.6235 116.661 52.6121 116.639 52.5892L116.605 52.5549C116.583 52.5091 116.56 52.4634 116.538 52.4176C116.538 52.3719 116.515 52.3262 116.47 52.2804C116.448 52.2118 116.425 52.1432 116.403 52.0746C116.38 51.9831 116.358 51.8802 116.335 51.7658C116.29 51.5371 116.268 51.3198 116.268 51.114C116.245 50.9996 116.234 50.8852 116.234 50.7709C116.234 50.6337 116.234 50.485 116.234 50.3249V48.5066C116.234 48.3465 116.234 48.1864 116.234 48.0263C116.234 47.8662 116.245 47.6947 116.268 47.5117C116.268 47.3516 116.268 47.1915 116.268 47.0314C116.268 46.8713 116.256 46.7112 116.234 46.5511V46.0708C116.234 45.8421 116.223 45.682 116.2 45.5905C116.2 45.4304 116.189 45.2817 116.167 45.1445C116.167 44.9844 116.155 44.8357 116.133 44.6985C116.088 44.3783 116.043 44.1038 115.998 43.8751C115.975 43.7607 115.953 43.6578 115.93 43.5663C115.908 43.452 115.874 43.3376 115.829 43.2233C115.784 43.1089 115.75 43.0174 115.728 42.9488C115.705 42.8802 115.672 42.8116 115.627 42.743C115.582 42.6743 115.548 42.6172 115.525 42.5714C115.503 42.5257 115.48 42.4799 115.458 42.4342C115.435 42.4342 115.413 42.4228 115.39 42.3999C115.368 42.3999 115.357 42.3884 115.357 42.3656L115.39 42.3999C115.39 42.4228 115.402 42.4456 115.424 42.4685C115.424 42.4914 115.424 42.5142 115.424 42.5371C115.447 42.5371 115.458 42.56 115.458 42.6057C115.48 42.6286 115.492 42.6515 115.492 42.6743C115.492 42.6972 115.503 42.7315 115.525 42.7773C115.548 42.8688 115.582 43.0289 115.627 43.2576C115.649 43.3719 115.66 43.4863 115.66 43.6006C115.683 43.715 115.705 43.8294 115.728 43.9437C115.728 44.0581 115.728 44.1839 115.728 44.3211C115.75 44.4355 115.762 44.5727 115.762 44.7328V48.9869C115.762 49.0784 115.762 49.1584 115.762 49.2271C115.784 49.2957 115.795 49.3757 115.795 49.4672C115.795 49.6273 115.795 49.7874 115.795 49.9475C115.818 50.0847 115.84 50.222 115.863 50.3592C115.885 50.4964 115.897 50.6337 115.897 50.7709C115.919 50.9081 115.942 51.0339 115.964 51.1483C116.009 51.2855 116.043 51.4113 116.065 51.5257C116.088 51.6171 116.122 51.7201 116.167 51.8344C116.212 51.9488 116.245 52.0403 116.268 52.1089C116.29 52.1775 116.324 52.2461 116.369 52.3147L116.436 52.3833C116.459 52.4062 116.47 52.4291 116.47 52.452C116.47 52.452 116.481 52.4634 116.504 52.4863L116.639 52.6235H116.673Z" fill="#F4EDE8"/>
<ellipse cx="1.80786" cy="1.8379" rx="1.80786" ry="1.8379" transform="matrix(1 0 0 -1 124.743 42.8557)" fill="#999591"/>
<ellipse cx="1.80786" cy="1.8379" rx="1.80786" ry="1.8379" transform="matrix(1 0 0 -1 9.64209 42.8557)" fill="#999591"/>
</svg>
