<svg width="268" height="186" viewBox="0 0 268 186" fill="none" xmlns="http://www.w3.org/2000/svg">
<rect width="268" height="186" fill="#312E38"/>
<path d="M74.0285 150.761V149.892H77.6198V150.761L76.5005 150.953V154.395H81.3485V150.953L80.2292 150.761V149.892H83.8205V150.761L82.7012 150.953V158.802L83.8205 158.994V159.856H80.2292V158.994L81.3485 158.802V155.456H76.5005V158.802L77.6198 158.994V159.856H74.0285V158.994L75.1478 158.802V150.953L74.0285 150.761Z" fill="#999591"/>
<path d="M89.8083 159.856C89.7671 159.656 89.7351 159.475 89.7122 159.316C89.6893 159.156 89.6733 158.996 89.6641 158.837C89.4032 159.17 89.0759 159.448 88.6822 159.671C88.2931 159.89 87.8765 160 87.4324 160C86.6588 160 86.0705 159.813 85.6677 159.439C85.2648 159.06 85.0634 158.529 85.0634 157.844C85.0634 157.142 85.3472 156.601 85.9149 156.222C86.4871 155.839 87.2699 155.647 88.2633 155.647H89.6573V154.785C89.6573 154.352 89.5199 154.009 89.2453 153.759C88.9706 153.503 88.5883 153.375 88.0985 153.375C87.7598 153.375 87.4599 153.419 87.199 153.505C86.9426 153.592 86.7343 153.711 86.5741 153.861L86.4299 154.641H85.3861V153.204C85.7249 152.935 86.1346 152.721 86.6153 152.561C87.096 152.397 87.6178 152.315 88.1809 152.315C89.0232 152.315 89.7053 152.529 90.2272 152.958C90.7491 153.387 91.01 154 91.01 154.799V158.364C91.01 158.46 91.01 158.554 91.01 158.645C91.0146 158.736 91.0215 158.827 91.0306 158.919L91.58 158.994V159.856H89.8083ZM87.6316 158.871C88.0802 158.871 88.4899 158.764 88.8607 158.549C89.2315 158.335 89.497 158.077 89.6573 157.776V156.558H88.2152C87.6613 156.558 87.2219 156.685 86.8968 156.941C86.5764 157.196 86.4162 157.507 86.4162 157.872C86.4162 158.196 86.5169 158.444 86.7183 158.618C86.9197 158.786 87.2241 158.871 87.6316 158.871Z" fill="#999591"/>
<path d="M92.7061 158.994L93.8254 158.802V153.512L92.7061 153.321V152.451H95.1782V158.802L96.2975 158.994V159.856H92.7061V158.994ZM95.1782 150.556H93.8254V149.18H95.1782V150.556Z" fill="#999591"/>
<path d="M97.3343 153.321V152.451H99.6622L99.7926 153.526C100.003 153.147 100.262 152.851 100.569 152.636C100.88 152.422 101.235 152.315 101.633 152.315C101.738 152.315 101.846 152.324 101.956 152.342C102.07 152.356 102.157 152.372 102.217 152.39L102.038 153.642L101.269 153.601C100.912 153.601 100.612 153.686 100.369 153.854C100.127 154.019 99.9391 154.251 99.8064 154.552V158.802L100.926 158.994V159.856H97.3343V158.994L98.4536 158.802V153.512L97.3343 153.321Z" fill="#999591"/>
<path d="M106.357 158.946C106.806 158.946 107.2 158.809 107.538 158.535C107.882 158.257 108.053 157.917 108.053 157.516H109.269L109.283 157.557C109.305 158.196 109.019 158.764 108.424 159.261C107.834 159.754 107.145 160 106.357 160C105.277 160 104.451 159.649 103.878 158.946C103.311 158.243 103.027 157.361 103.027 156.298V156.01C103.027 154.956 103.313 154.078 103.885 153.375C104.457 152.668 105.281 152.315 106.357 152.315C106.952 152.315 107.486 152.413 107.957 152.609C108.433 152.805 108.827 153.074 109.138 153.416L109.2 155.059H108.122L107.827 153.895C107.667 153.74 107.461 153.615 107.209 153.519C106.957 153.423 106.673 153.375 106.357 153.375C105.648 153.375 105.14 153.631 104.833 154.142C104.531 154.648 104.38 155.271 104.38 156.01V156.298C104.38 157.055 104.531 157.687 104.833 158.193C105.135 158.695 105.643 158.946 106.357 158.946Z" fill="#999591"/>
<path d="M115.916 158.761C115.682 159.158 115.38 159.464 115.009 159.678C114.643 159.893 114.22 160 113.739 160C112.933 160 112.304 159.742 111.851 159.227C111.398 158.711 111.171 157.908 111.171 156.818V153.512L110.319 153.321V152.451H112.524V156.831C112.524 157.621 112.64 158.164 112.874 158.46C113.107 158.757 113.471 158.905 113.966 158.905C114.446 158.905 114.842 158.809 115.154 158.618C115.47 158.421 115.708 158.145 115.868 157.789V153.512L114.872 153.321V152.451H117.221V158.802L118.072 158.994V159.856H116.005L115.916 158.761Z" fill="#999591"/>
<path d="M121.505 150.665V152.451H122.913V153.451H121.505V157.947C121.505 158.294 121.576 158.538 121.718 158.679C121.865 158.821 122.057 158.891 122.295 158.891C122.414 158.891 122.547 158.882 122.693 158.864C122.844 158.841 122.97 158.818 123.071 158.795L123.256 159.719C123.128 159.802 122.941 159.868 122.693 159.918C122.446 159.973 122.199 160 121.952 160C121.402 160 120.965 159.836 120.64 159.507C120.315 159.174 120.153 158.654 120.153 157.947V153.451H118.978V152.451H120.153V150.665H121.505Z" fill="#999591"/>
<path d="M129.979 154.778H128.963L128.743 153.889C128.578 153.733 128.37 153.61 128.118 153.519C127.871 153.423 127.589 153.375 127.274 153.375C126.793 153.375 126.436 153.48 126.202 153.69C125.969 153.9 125.852 154.153 125.852 154.45C125.852 154.742 125.955 154.972 126.161 155.141C126.367 155.31 126.786 155.46 127.418 155.593C128.356 155.793 129.054 156.067 129.512 156.414C129.97 156.756 130.199 157.217 130.199 157.796C130.199 158.453 129.931 158.985 129.395 159.391C128.864 159.797 128.168 160 127.308 160C126.745 160 126.239 159.936 125.79 159.808C125.342 159.676 124.941 159.487 124.589 159.24L124.582 157.55H125.598L125.852 158.542C126.008 158.684 126.218 158.786 126.484 158.85C126.754 158.914 127.029 158.946 127.308 158.946C127.789 158.946 128.164 158.85 128.434 158.659C128.709 158.462 128.846 158.207 128.846 157.892C128.846 157.596 128.732 157.351 128.503 157.16C128.278 156.968 127.85 156.802 127.219 156.66C126.317 156.464 125.637 156.197 125.179 155.86C124.721 155.522 124.492 155.066 124.492 154.491C124.492 153.889 124.749 153.375 125.262 152.951C125.779 152.527 126.45 152.315 127.274 152.315C127.837 152.315 128.342 152.388 128.791 152.534C129.24 152.68 129.613 152.883 129.91 153.143L129.979 154.778Z" fill="#999591"/>
<path d="M134.861 157.174C134.861 156.617 135.022 156.131 135.342 155.716C135.667 155.296 136.15 154.876 136.791 154.457C136.434 154.005 136.168 153.603 135.994 153.252C135.82 152.896 135.733 152.531 135.733 152.157C135.733 151.386 135.955 150.793 136.399 150.378C136.848 149.958 137.464 149.748 138.247 149.748C138.97 149.748 139.558 149.956 140.011 150.371C140.465 150.786 140.691 151.286 140.691 151.87C140.691 152.317 140.57 152.705 140.327 153.033C140.089 153.357 139.734 153.69 139.263 154.032L138.514 154.58L140.849 157.379C141.037 157.082 141.183 156.754 141.289 156.393C141.394 156.033 141.447 155.652 141.447 155.25H142.655C142.655 155.848 142.566 156.402 142.387 156.913C142.209 157.424 141.95 157.883 141.611 158.289L142.882 159.822L142.868 159.856H141.295L140.712 159.158C140.346 159.432 139.94 159.642 139.496 159.788C139.052 159.929 138.592 160 138.116 160C137.123 160 136.331 159.738 135.74 159.213C135.154 158.688 134.861 158.008 134.861 157.174ZM138.116 158.946C138.446 158.946 138.771 158.891 139.091 158.782C139.412 158.668 139.714 158.506 139.998 158.296L137.519 155.319L137.244 155.517C136.828 155.828 136.551 156.124 136.413 156.407C136.28 156.69 136.214 156.945 136.214 157.174C136.214 157.689 136.377 158.113 136.702 158.446C137.027 158.78 137.498 158.946 138.116 158.946ZM137.086 152.143C137.086 152.385 137.148 152.638 137.272 152.903C137.395 153.163 137.581 153.448 137.828 153.759L138.775 153.108C139.036 152.935 139.213 152.748 139.304 152.547C139.4 152.342 139.448 152.116 139.448 151.87C139.448 151.591 139.336 151.345 139.112 151.131C138.892 150.916 138.604 150.809 138.247 150.809C137.876 150.809 137.59 150.939 137.388 151.199C137.187 151.455 137.086 151.769 137.086 152.143Z" fill="#999591"/>
<path d="M154.439 152.835H153.415L153.161 151.411C152.955 151.238 152.681 151.094 152.337 150.98C151.994 150.866 151.596 150.809 151.142 150.809C150.424 150.809 149.872 150.962 149.488 151.267C149.103 151.569 148.911 151.963 148.911 152.451C148.911 152.885 149.105 153.248 149.494 153.54C149.888 153.827 150.522 154.08 151.397 154.299C152.449 154.559 153.248 154.943 153.793 155.449C154.342 155.955 154.617 156.583 154.617 157.331C154.617 158.134 154.287 158.78 153.628 159.268C152.974 159.756 152.115 160 151.053 160C150.284 160 149.6 159.875 149 159.624C148.405 159.373 147.92 159.044 147.544 158.638V156.783H148.561L148.821 158.214C149.082 158.428 149.394 158.604 149.755 158.741C150.117 158.878 150.55 158.946 151.053 158.946C151.735 158.946 152.273 158.802 152.667 158.515C153.065 158.227 153.264 157.837 153.264 157.345C153.264 156.888 153.093 156.507 152.749 156.202C152.406 155.891 151.799 155.631 150.93 155.422C149.872 155.171 149.046 154.801 148.451 154.313C147.856 153.825 147.558 153.211 147.558 152.472C147.558 151.692 147.89 151.044 148.554 150.528C149.217 150.008 150.08 149.748 151.142 149.748C151.843 149.748 152.479 149.869 153.051 150.111C153.628 150.348 154.091 150.638 154.439 150.98V152.835Z" fill="#999591"/>
<path d="M155.709 158.994L156.828 158.802V150.241L155.709 150.049V149.18H158.181V153.437C158.437 153.081 158.751 152.805 159.122 152.609C159.492 152.413 159.904 152.315 160.358 152.315C161.154 152.315 161.772 152.552 162.212 153.026C162.651 153.501 162.871 154.231 162.871 155.216V158.802L163.99 158.994V159.856H160.399V158.994L161.518 158.802V155.203C161.518 154.591 161.385 154.14 161.12 153.848C160.859 153.556 160.468 153.41 159.946 153.41C159.575 153.41 159.236 153.498 158.929 153.676C158.627 153.85 158.378 154.087 158.181 154.388V158.802L159.3 158.994V159.856H155.709V158.994Z" fill="#999591"/>
<path d="M169.82 159.856C169.779 159.656 169.747 159.475 169.724 159.316C169.701 159.156 169.685 158.996 169.676 158.837C169.415 159.17 169.088 159.448 168.694 159.671C168.305 159.89 167.888 160 167.444 160C166.671 160 166.082 159.813 165.679 159.439C165.277 159.06 165.075 158.529 165.075 157.844C165.075 157.142 165.359 156.601 165.927 156.222C166.499 155.839 167.282 155.647 168.275 155.647H169.669V154.785C169.669 154.352 169.532 154.009 169.257 153.759C168.982 153.503 168.6 153.375 168.11 153.375C167.772 153.375 167.472 153.419 167.211 153.505C166.954 153.592 166.746 153.711 166.586 153.861L166.442 154.641H165.398V153.204C165.737 152.935 166.146 152.721 166.627 152.561C167.108 152.397 167.63 152.315 168.193 152.315C169.035 152.315 169.717 152.529 170.239 152.958C170.761 153.387 171.022 154 171.022 154.799V158.364C171.022 158.46 171.022 158.554 171.022 158.645C171.026 158.736 171.033 158.827 171.042 158.919L171.592 158.994V159.856H169.82ZM167.643 158.871C168.092 158.871 168.502 158.764 168.872 158.549C169.243 158.335 169.509 158.077 169.669 157.776V156.558H168.227C167.673 156.558 167.234 156.685 166.909 156.941C166.588 157.196 166.428 157.507 166.428 157.872C166.428 158.196 166.529 158.444 166.73 158.618C166.931 158.786 167.236 158.871 167.643 158.871Z" fill="#999591"/>
<path d="M175.156 153.321L174.263 153.457L175.794 157.673L175.918 158.207H175.959L176.089 157.673L177.573 153.457L176.673 153.321V152.451H179.543V153.321L178.932 153.423L176.44 159.856H175.417L172.896 153.423L172.285 153.321V152.451H175.156V153.321Z" fill="#999591"/>
<path d="M183.76 160C182.725 160 181.901 159.658 181.288 158.973C180.679 158.285 180.374 157.393 180.374 156.298V155.996C180.374 154.943 180.688 154.067 181.315 153.368C181.947 152.666 182.693 152.315 183.554 152.315C184.552 152.315 185.307 152.616 185.82 153.218C186.337 153.82 186.596 154.623 186.596 155.627V156.469H181.775L181.755 156.503C181.768 157.215 181.949 157.801 182.297 158.262C182.645 158.718 183.133 158.946 183.76 158.946C184.217 158.946 184.618 158.882 184.961 158.754C185.309 158.622 185.609 158.442 185.861 158.214L186.39 159.09C186.124 159.345 185.772 159.562 185.332 159.74C184.897 159.913 184.373 160 183.76 160ZM183.554 153.375C183.1 153.375 182.714 153.567 182.393 153.95C182.073 154.329 181.876 154.806 181.803 155.381L181.816 155.415H185.243V155.237C185.243 154.708 185.101 154.265 184.817 153.909C184.533 153.553 184.112 153.375 183.554 153.375Z" fill="#999591"/>
<path d="M193.62 154.778H192.604L192.384 153.889C192.22 153.733 192.011 153.61 191.759 153.519C191.512 153.423 191.231 153.375 190.915 153.375C190.434 153.375 190.077 153.48 189.844 153.69C189.61 153.9 189.493 154.153 189.493 154.45C189.493 154.742 189.596 154.972 189.802 155.141C190.008 155.31 190.427 155.46 191.059 155.593C191.998 155.793 192.696 156.067 193.153 156.414C193.611 156.756 193.84 157.217 193.84 157.796C193.84 158.453 193.572 158.985 193.037 159.391C192.506 159.797 191.81 160 190.949 160C190.386 160 189.88 159.936 189.432 159.808C188.983 159.676 188.582 159.487 188.23 159.24L188.223 157.55H189.239L189.493 158.542C189.649 158.684 189.86 158.786 190.125 158.85C190.395 158.914 190.67 158.946 190.949 158.946C191.43 158.946 191.805 158.85 192.075 158.659C192.35 158.462 192.487 158.207 192.487 157.892C192.487 157.596 192.373 157.351 192.144 157.16C191.92 156.968 191.492 156.802 190.86 156.66C189.958 156.464 189.278 156.197 188.821 155.86C188.363 155.522 188.134 155.066 188.134 154.491C188.134 153.889 188.39 153.375 188.903 152.951C189.42 152.527 190.091 152.315 190.915 152.315C191.478 152.315 191.984 152.388 192.432 152.534C192.881 152.68 193.254 152.883 193.552 153.143L193.62 154.778Z" fill="#999591"/>
<path d="M102.141 35.1021L102.883 34.9994L106.378 26H107.538L110.972 34.9994L111.707 35.1021V35.9644H108.836V35.1021L109.592 34.972L108.932 33.1379H104.929L104.249 34.972L105.005 35.1021V35.9644H102.141V35.1021ZM105.348 32.0087H108.52L106.968 27.7314H106.927L105.348 32.0087Z" fill="#999591"/>
<path d="M114.46 29.4287L113.609 29.5792L114.577 33.268L114.735 34.1645H114.776L114.968 33.268L116.451 28.5595H117.536L119.027 33.268L119.239 34.2671H119.281L119.48 33.268L120.393 29.5792L119.528 29.4287V28.5595H122.357V29.4287L121.711 29.5245L119.837 35.9644H118.745L117.303 31.4544L116.994 30.2089L116.953 30.2157L116.664 31.4544L115.25 35.9644H114.158L112.283 29.5245L111.631 29.4287V28.5595H114.46V29.4287Z" fill="#999591"/>
<path d="M126.848 36.1081C125.813 36.1081 124.989 35.7659 124.376 35.0815C123.767 34.3926 123.462 33.5007 123.462 32.4057V32.1045C123.462 31.0506 123.776 30.1746 124.403 29.4766C125.035 28.774 125.781 28.4227 126.642 28.4227C127.64 28.4227 128.395 28.7238 128.908 29.326C129.425 29.9283 129.684 30.7313 129.684 31.735V32.5768H124.863L124.843 32.611C124.856 33.3227 125.037 33.909 125.385 34.3698C125.733 34.826 126.221 35.0542 126.848 35.0542C127.306 35.0542 127.706 34.9903 128.049 34.8625C128.397 34.7302 128.697 34.55 128.949 34.3219L129.478 35.1979C129.212 35.4534 128.86 35.6701 128.42 35.848C127.985 36.0214 127.461 36.1081 126.848 36.1081ZM126.642 29.4834C126.189 29.4834 125.802 29.675 125.481 30.0583C125.161 30.437 124.964 30.9138 124.891 31.4886L124.905 31.5228H128.331V31.3449C128.331 30.8157 128.189 30.3731 127.905 30.0172C127.621 29.6614 127.2 29.4834 126.642 29.4834Z" fill="#999591"/>
<path d="M136.708 30.8864H135.692L135.472 29.9967C135.308 29.8416 135.099 29.7184 134.848 29.6271C134.6 29.5313 134.319 29.4834 134.003 29.4834C133.522 29.4834 133.165 29.5884 132.932 29.7982C132.698 30.0081 132.582 30.2613 132.582 30.5579C132.582 30.8499 132.685 31.0803 132.891 31.2491C133.097 31.4179 133.515 31.5685 134.147 31.7008C135.086 31.9015 135.784 32.1753 136.242 32.522C136.699 32.8642 136.928 33.325 136.928 33.9044C136.928 34.5614 136.66 35.0929 136.125 35.499C135.594 35.9051 134.898 36.1081 134.037 36.1081C133.474 36.1081 132.968 36.0442 132.52 35.9165C132.071 35.7842 131.671 35.5948 131.318 35.3484L131.311 33.6581H132.327L132.582 34.6504C132.737 34.7918 132.948 34.8945 133.213 34.9584C133.483 35.0222 133.758 35.0542 134.037 35.0542C134.518 35.0542 134.893 34.9584 135.163 34.7667C135.438 34.5705 135.575 34.3151 135.575 34.0002C135.575 33.7037 135.461 33.4596 135.232 33.268C135.008 33.0763 134.58 32.9098 133.948 32.7684C133.046 32.5722 132.366 32.3053 131.909 31.9677C131.451 31.6301 131.222 31.1738 131.222 30.5989C131.222 29.9967 131.478 29.4834 131.991 29.0591C132.508 28.6348 133.179 28.4227 134.003 28.4227C134.566 28.4227 135.072 28.4957 135.521 28.6417C135.969 28.7877 136.342 28.9907 136.64 29.2507L136.708 30.8864Z" fill="#999591"/>
<path d="M138.199 32.1935C138.199 31.0985 138.496 30.1974 139.091 29.4903C139.686 28.7785 140.494 28.4227 141.515 28.4227C142.541 28.4227 143.351 28.7762 143.946 29.4834C144.546 30.1906 144.846 31.094 144.846 32.1935V32.3441C144.846 33.4482 144.548 34.3516 143.953 35.0542C143.358 35.7568 142.55 36.1081 141.529 36.1081C140.499 36.1081 139.686 35.7568 139.091 35.0542C138.496 34.347 138.199 33.4436 138.199 32.3441V32.1935ZM139.551 32.3441C139.551 33.1288 139.716 33.7767 140.046 34.2877C140.38 34.7987 140.874 35.0542 141.529 35.0542C142.17 35.0542 142.657 34.7987 142.992 34.2877C143.326 33.7767 143.493 33.1288 143.493 32.3441V32.1935C143.493 31.4179 143.326 30.7723 142.992 30.2568C142.657 29.7412 142.165 29.4834 141.515 29.4834C140.865 29.4834 140.375 29.7412 140.046 30.2568C139.716 30.7723 139.551 31.4179 139.551 32.1935V32.3441Z" fill="#999591"/>
<path d="M145.821 35.1021L146.94 34.9105V29.6203L145.821 29.4287V28.5595H148.155L148.245 29.5245C148.483 29.1732 148.789 28.9017 149.165 28.7101C149.54 28.5185 149.975 28.4227 150.47 28.4227C150.964 28.4227 151.387 28.5367 151.74 28.7648C152.097 28.993 152.365 29.3351 152.543 29.7914C152.777 29.3716 153.086 29.0386 153.47 28.7922C153.855 28.5458 154.303 28.4227 154.816 28.4227C155.576 28.4227 156.176 28.6827 156.615 29.2028C157.055 29.7184 157.275 30.4963 157.275 31.5365V34.9105L158.394 35.1021V35.9644H154.796V35.1021L155.915 34.9105V31.5228C155.915 30.7928 155.789 30.2773 155.537 29.9762C155.285 29.6705 154.912 29.5176 154.418 29.5176C153.946 29.5176 153.566 29.6842 153.278 30.0172C152.994 30.3457 152.829 30.7609 152.784 31.2628V34.9105L153.903 35.1021V35.9644H150.312V35.1021L151.431 34.9105V31.5228C151.431 30.8293 151.3 30.3229 151.039 30.0035C150.783 29.6796 150.41 29.5176 149.92 29.5176C149.508 29.5176 149.169 29.602 148.904 29.7709C148.638 29.9397 148.435 30.1769 148.293 30.4826V34.9105L149.412 35.1021V35.9644H145.821V35.1021Z" fill="#999591"/>
<path d="M162.706 36.1081C161.672 36.1081 160.848 35.7659 160.234 35.0815C159.625 34.3926 159.321 33.5007 159.321 32.4057V32.1045C159.321 31.0506 159.634 30.1746 160.262 29.4766C160.893 28.774 161.64 28.4227 162.5 28.4227C163.498 28.4227 164.253 28.7238 164.766 29.326C165.283 29.9283 165.542 30.7313 165.542 31.735V32.5768H160.722L160.701 32.611C160.715 33.3227 160.896 33.909 161.244 34.3698C161.591 34.826 162.079 35.0542 162.706 35.0542C163.164 35.0542 163.564 34.9903 163.908 34.8625C164.256 34.7302 164.556 34.55 164.807 34.3219L165.336 35.1979C165.071 35.4534 164.718 35.6701 164.279 35.848C163.844 36.0214 163.32 36.1081 162.706 36.1081ZM162.5 29.4834C162.047 29.4834 161.66 29.675 161.34 30.0583C161.019 30.437 160.822 30.9138 160.749 31.4886L160.763 31.5228H164.189V31.3449C164.189 30.8157 164.047 30.3731 163.764 30.0172C163.48 29.6614 163.059 29.4834 162.5 29.4834Z" fill="#999591"/>
<rect x="19" y="132.073" width="230.033" height="2.00226" fill="#FF9000"/>
<rect x="19" y="51.9825" width="230.033" height="2.00226" fill="#FF9000"/>
<path d="M72.2793 90.8023V104.874C72.2793 106.07 72.0356 107.21 71.548 108.294C71.098 109.341 70.4792 110.256 69.6917 111.041C68.9042 111.826 67.9666 112.443 66.8791 112.891C65.829 113.377 64.704 113.62 63.5039 113.62C62.3039 113.62 61.1788 113.396 60.1287 112.947C59.0787 112.499 58.1599 111.901 57.3724 111.153C56.5848 110.368 55.9473 109.471 55.4598 108.462C55.0098 107.416 54.766 106.294 54.7285 105.098V94.7267C54.616 93.5681 54.091 92.7271 53.1534 92.2039C53.6784 91.9422 54.2035 91.8114 54.7285 91.8114V78.5805C54.766 77.3845 55.0098 76.2632 55.4598 75.2167C55.9473 74.1702 56.5848 73.2732 57.3724 72.5257C58.1599 71.7408 59.0787 71.1241 60.1287 70.6756C61.1788 70.2271 62.3039 70.0028 63.5039 70.0028C64.704 70.0028 65.829 70.2457 66.8791 70.7316C67.9666 71.1801 68.9042 71.7968 69.6917 72.5817C70.4792 73.3666 71.098 74.301 71.548 75.3849C72.0356 76.4314 72.2793 77.5714 72.2793 78.8047C72.2793 79.4401 72.3356 79.9073 72.4481 80.2063C72.5981 80.5053 72.7481 80.7483 72.8981 80.9352C73.0481 81.122 73.1794 81.2902 73.2919 81.4397C73.4419 81.5892 73.5169 81.8322 73.5169 82.1685H70.5917C69.9917 82.0938 69.6917 81.7761 69.6917 81.2155C69.6917 81.7761 69.3917 82.0938 68.7917 82.1685H65.8103C65.8103 81.8322 65.8665 81.5892 65.979 81.4397C66.129 81.2902 66.279 81.122 66.429 80.9352C66.5791 80.7483 66.7103 80.5053 66.8228 80.2063C66.9728 79.9073 67.0478 79.4214 67.0478 78.7487V78.6926C67.0478 78.2067 67.0291 77.6274 66.9916 76.9547C66.9541 76.2445 66.8228 75.5718 66.5978 74.9364C66.3728 74.301 66.0165 73.7591 65.529 73.3105C65.0415 72.862 64.3665 72.6378 63.5039 72.6378C62.6039 72.6378 61.9101 72.8807 61.4226 73.3666C60.9725 73.8151 60.635 74.3571 60.41 74.9924C60.185 75.6278 60.0537 76.3006 60.0162 77.0107C59.9787 77.7209 59.96 78.3189 59.96 78.8047V91.8114C60.485 91.8114 61.01 91.9422 61.5351 92.2039C60.5975 92.7271 60.0725 93.5681 59.96 94.7267V104.874C59.96 105.36 59.9787 105.958 60.0162 106.668C60.0537 107.341 60.185 108.014 60.41 108.686C60.635 109.322 60.9725 109.864 61.4226 110.312C61.9101 110.761 62.6039 110.985 63.5039 110.985C64.404 110.985 65.079 110.761 65.529 110.312C66.0165 109.864 66.3728 109.322 66.5978 108.686C66.8228 108.014 66.9541 107.341 66.9916 106.668C67.0291 105.958 67.0478 105.36 67.0478 104.874V93.3812C66.6353 93.4186 66.279 93.5868 65.979 93.8858C65.7165 94.1848 65.5853 94.5398 65.5853 94.951V95.007C65.5478 95.5677 65.3977 96.0536 65.1352 96.4647C64.9102 96.8384 64.5727 97.1748 64.1227 97.4738C63.6727 97.7355 63.0164 97.8663 62.1538 97.8663V90.8023H72.2793ZM57.7661 89.1765C57.7661 88.9522 57.7474 88.728 57.7099 88.5037C57.7099 88.2794 57.7099 88.0739 57.7099 87.887V86.5975C57.6724 85.7753 57.6536 84.9904 57.6536 84.2429C57.6536 83.4954 57.6349 82.7852 57.5974 82.1125C57.5599 81.7761 57.5411 81.4771 57.5411 81.2155C57.5411 80.9165 57.5224 80.6175 57.4849 80.3185C57.4849 80.0568 57.4661 79.8139 57.4286 79.5896C57.4286 79.328 57.4286 79.1038 57.4286 78.9169C57.4286 78.73 57.4099 78.5618 57.3724 78.4123C57.3724 78.2628 57.3724 78.132 57.3724 78.0199V77.7395C57.3349 77.7395 57.3161 77.7582 57.3161 77.7956V78.0199C57.3161 78.132 57.2974 78.2628 57.2599 78.4123C57.2599 78.5618 57.2599 78.73 57.2599 78.9169C57.2599 79.1038 57.2411 79.328 57.2036 79.5896C57.2036 79.8139 57.2036 80.0568 57.2036 80.3185C57.1661 80.6175 57.1474 80.9165 57.1474 81.2155C57.1474 81.4771 57.1286 81.7761 57.0911 82.1125C57.0536 82.7852 57.0348 83.4954 57.0348 84.2429C57.0348 84.9904 57.0161 85.7753 56.9786 86.5975V87.887C56.9786 88.0739 56.9598 88.2794 56.9223 88.5037C56.9223 88.728 56.9223 88.9522 56.9223 89.1765V94.3903C56.9223 94.5025 56.9223 94.6146 56.9223 94.7267C56.9598 94.8389 56.9786 94.9323 56.9786 95.007V96.9132C56.9786 97.3243 56.9786 97.7355 56.9786 98.1466C57.0161 98.5203 57.0348 98.8941 57.0348 99.2679C57.0348 99.679 57.0348 100.071 57.0348 100.445C57.0723 100.782 57.0911 101.099 57.0911 101.398C57.1286 101.735 57.1474 102.052 57.1474 102.351C57.1474 102.65 57.1661 102.931 57.2036 103.192C57.2036 103.491 57.2036 103.753 57.2036 103.977C57.2411 104.201 57.2599 104.407 57.2599 104.594C57.2599 104.781 57.2599 104.949 57.2599 105.098C57.2974 105.248 57.3161 105.379 57.3161 105.491V105.771C57.3161 105.809 57.3349 105.827 57.3724 105.827V105.491C57.3724 105.379 57.3724 105.248 57.3724 105.098C57.4099 104.949 57.4286 104.781 57.4286 104.594C57.4286 104.407 57.4286 104.201 57.4286 103.977C57.4661 103.753 57.4849 103.491 57.4849 103.192C57.5224 102.931 57.5411 102.65 57.5411 102.351C57.5411 102.052 57.5599 101.735 57.5974 101.398C57.5974 101.099 57.5974 100.782 57.5974 100.445C57.6349 100.071 57.6536 99.679 57.6536 99.2679C57.6536 98.8941 57.6536 98.5203 57.6536 98.1466C57.6911 97.7355 57.7099 97.3243 57.7099 96.9132V95.6798C57.7099 95.3808 57.7286 95.1565 57.7661 95.007V89.1765ZM70.0292 97.3056C69.9917 96.9319 69.973 96.5955 69.973 96.2965C69.973 95.9601 69.9542 95.6424 69.9167 95.3434C69.8792 94.7828 69.823 94.3156 69.748 93.9418C69.748 93.8671 69.7292 93.7923 69.6917 93.7176C69.6917 93.6428 69.6917 93.5868 69.6917 93.5494V93.3812L69.6355 93.4373V93.5494C69.6355 93.5868 69.6167 93.6428 69.5792 93.7176C69.5792 93.7923 69.5792 93.8671 69.5792 93.9418C69.5042 94.3156 69.4479 94.7828 69.4104 95.3434C69.3729 95.6424 69.3542 95.9601 69.3542 96.2965C69.3542 96.5955 69.3354 96.9319 69.2979 97.3056V97.8663C69.2979 97.9784 69.2792 98.0905 69.2417 98.2027C69.2417 98.2774 69.2417 98.3522 69.2417 98.4269V100.782C69.2417 100.894 69.2604 100.987 69.2979 101.062V101.903C69.2979 102.09 69.2979 102.258 69.2979 102.407C69.3354 102.557 69.3542 102.725 69.3542 102.912C69.3542 103.099 69.3542 103.267 69.3542 103.417C69.3917 103.566 69.4104 103.716 69.4104 103.865C69.4479 104.015 69.4667 104.164 69.4667 104.314C69.4667 104.426 69.4854 104.538 69.5229 104.65C69.5229 104.762 69.5229 104.874 69.5229 104.986C69.5604 105.098 69.5792 105.192 69.5792 105.267C69.5792 105.341 69.5792 105.416 69.5792 105.491C69.6167 105.566 69.6355 105.622 69.6355 105.659V105.771C69.6355 105.809 69.6542 105.827 69.6917 105.827V105.659C69.6917 105.622 69.6917 105.566 69.6917 105.491C69.7292 105.416 69.748 105.341 69.748 105.267C69.748 105.192 69.748 105.098 69.748 104.986C69.7855 104.874 69.8042 104.762 69.8042 104.65C69.8417 104.538 69.8605 104.426 69.8605 104.314C69.8605 104.164 69.8792 104.015 69.9167 103.865C69.9167 103.716 69.9167 103.566 69.9167 103.417C69.9542 103.267 69.973 103.099 69.973 102.912C69.973 102.725 69.973 102.557 69.973 102.407C70.0105 102.258 70.0292 102.09 70.0292 101.903V101.342C70.0292 101.193 70.048 101.099 70.0855 101.062V98.4269C70.0855 98.3522 70.0667 98.2774 70.0292 98.2027C70.0292 98.0905 70.0292 97.9784 70.0292 97.8663V97.3056Z" fill="#F4EDE8"/>
<path d="M92.7149 91.8675C93.3524 91.8675 93.8774 91.9983 94.29 92.2599C93.8774 92.5216 93.5212 92.8766 93.2211 93.3251C92.9586 93.7736 92.7899 94.2595 92.7149 94.7828V103.248C92.6774 104.444 92.4149 105.566 91.9273 106.612C91.4773 107.621 90.8585 108.518 90.071 109.303C89.2835 110.051 88.3647 110.649 87.3146 111.097C86.2646 111.546 85.1395 111.77 83.9395 111.77C82.7394 111.77 81.6143 111.546 80.5643 111.097C79.5142 110.649 78.5955 110.051 77.8079 109.303C77.0204 108.518 76.3828 107.621 75.8953 106.612C75.4453 105.566 75.2015 104.444 75.164 103.248V94.7828C75.0515 93.6241 74.5265 92.7832 73.589 92.2599C74.0015 91.9983 74.5265 91.8675 75.164 91.8675V81.0473C75.2015 79.8886 75.4453 78.7861 75.8953 77.7395C76.3828 76.693 77.0204 75.796 77.8079 75.0485C78.5955 74.2636 79.5142 73.6469 80.5643 73.1984C81.6143 72.7499 82.7394 72.5257 83.9395 72.5257C85.1395 72.5257 86.2646 72.7499 87.3146 73.1984C88.3647 73.6469 89.2835 74.2636 90.071 75.0485C90.8585 75.796 91.4773 76.693 91.9273 77.7395C92.4149 78.7861 92.6774 79.8886 92.7149 81.0473V91.8675ZM78.2017 89.8492C78.2017 89.6623 78.1829 89.4942 78.1454 89.3446C78.1454 89.1578 78.1454 88.9709 78.1454 88.784V87.7188C78.1079 87.0087 78.0892 86.3359 78.0892 85.7005C78.0892 85.0652 78.0704 84.4671 78.0329 83.9065C77.9954 83.6449 77.9767 83.3833 77.9767 83.1216C77.9767 82.86 77.9579 82.6171 77.9204 82.3928C77.9204 82.1685 77.9017 81.963 77.8642 81.7761C77.8642 81.5892 77.8642 81.421 77.8642 81.2715C77.8642 81.0847 77.8454 80.9352 77.8079 80.823C77.8079 80.6735 77.8079 80.5614 77.8079 80.4866V80.2063C77.7704 80.2063 77.7517 80.225 77.7517 80.2624V80.4866C77.7517 80.5614 77.7329 80.6735 77.6954 80.823C77.6954 80.9352 77.6954 81.0847 77.6954 81.2715C77.6954 81.421 77.6767 81.5892 77.6392 81.7761C77.6392 81.963 77.6392 82.1685 77.6392 82.3928C77.6017 82.6171 77.5829 82.86 77.5829 83.1216C77.5829 83.3833 77.5642 83.6449 77.5266 83.9065C77.4891 84.4671 77.4704 85.0652 77.4704 85.7005C77.4704 86.3359 77.4516 87.0087 77.4141 87.7188V88.784C77.4141 88.9709 77.3954 89.1578 77.3579 89.3446C77.3579 89.4942 77.3579 89.6623 77.3579 89.8492V94.2782C77.3579 94.5398 77.3766 94.7267 77.4141 94.8389V96.4647C77.4141 96.8011 77.4141 97.1374 77.4141 97.4738C77.4516 97.8102 77.4704 98.1279 77.4704 98.4269C77.4704 98.7633 77.4704 99.081 77.4704 99.38C77.5079 99.6416 77.5266 99.9219 77.5266 100.221C77.5642 100.52 77.5829 100.8 77.5829 101.062C77.5829 101.286 77.6017 101.51 77.6392 101.735C77.6392 101.959 77.6392 102.164 77.6392 102.351C77.6767 102.538 77.6954 102.725 77.6954 102.912C77.6954 103.099 77.6954 103.267 77.6954 103.417C77.7329 103.529 77.7517 103.622 77.7517 103.697V103.865C77.7517 103.902 77.7704 103.921 77.8079 103.921V103.697C77.8079 103.622 77.8079 103.529 77.8079 103.417C77.8454 103.267 77.8642 103.099 77.8642 102.912C77.8642 102.725 77.8642 102.538 77.8642 102.351C77.9017 102.164 77.9204 101.959 77.9204 101.735C77.9579 101.51 77.9767 101.286 77.9767 101.062C77.9767 100.8 77.9954 100.52 78.0329 100.221C78.0329 99.9219 78.0329 99.6416 78.0329 99.38C78.0704 99.081 78.0892 98.7633 78.0892 98.4269C78.0892 98.1279 78.0892 97.8102 78.0892 97.4738C78.1267 97.1374 78.1454 96.8011 78.1454 96.4647V94.8389C78.1829 94.7267 78.2017 94.5398 78.2017 94.2782V89.8492ZM87.4834 81.2715C87.4834 80.7857 87.4646 80.1876 87.4271 79.4775C87.3896 78.7674 87.2584 78.0946 87.0334 77.4592C86.8083 76.8238 86.4521 76.2819 85.9646 75.8334C85.5145 75.3475 84.8395 75.1046 83.9395 75.1046C83.0394 75.1046 82.3456 75.3475 81.8581 75.8334C81.4081 76.2819 81.0706 76.8238 80.8456 77.4592C80.6206 78.0946 80.4893 78.7674 80.4518 79.4775C80.4143 80.1876 80.3955 80.7857 80.3955 81.2715V91.8675C81.0331 91.8675 81.5581 91.9983 81.9706 92.2599C81.0331 92.7832 80.508 93.6241 80.3955 94.7828V103.024C80.3955 103.51 80.4143 104.108 80.4518 104.818C80.4893 105.491 80.6206 106.164 80.8456 106.836C81.0706 107.472 81.4081 108.014 81.8581 108.462C82.3456 108.911 83.0394 109.135 83.9395 109.135C84.8395 109.135 85.5145 108.911 85.9646 108.462C86.4521 108.014 86.8083 107.472 87.0334 106.836C87.2584 106.164 87.3896 105.491 87.4271 104.818C87.4646 104.108 87.4834 103.51 87.4834 103.024V94.7828C87.4084 93.6615 86.8833 92.8206 85.9083 92.2599C86.3208 91.9983 86.8458 91.8675 87.4834 91.8675V81.2715ZM90.521 89.8492C90.521 89.6623 90.521 89.4942 90.521 89.3446C90.521 89.1578 90.5023 88.9709 90.4648 88.784V87.7188C90.4648 87.0087 90.446 86.3359 90.4085 85.7005C90.4085 85.0652 90.3898 84.4671 90.3523 83.9065C90.3148 83.6449 90.296 83.3833 90.296 83.1216C90.296 82.86 90.2773 82.6171 90.2398 82.3928C90.2398 82.1685 90.221 81.963 90.1835 81.7761C90.1835 81.5892 90.1835 81.421 90.1835 81.2715C90.1835 81.0847 90.1648 80.9352 90.1273 80.823C90.1273 80.6735 90.1273 80.5614 90.1273 80.4866V80.2063C90.0898 80.2063 90.071 80.225 90.071 80.2624V80.4866C90.071 80.5614 90.071 80.6735 90.071 80.823C90.071 80.9352 90.0522 81.0847 90.0148 81.2715C90.0148 81.421 89.996 81.5892 89.9585 81.7761C89.9585 81.963 89.9585 82.1685 89.9585 82.3928C89.921 82.6171 89.9022 82.86 89.9022 83.1216C89.9022 83.3833 89.8835 83.6449 89.846 83.9065C89.8085 84.4671 89.7897 85.0652 89.7897 85.7005C89.7897 86.3359 89.771 87.0087 89.7335 87.7188V89.8492C89.696 90.223 89.6772 90.5967 89.6772 90.9705C89.6772 91.3442 89.6772 91.718 89.6772 92.0918C89.6772 92.4655 89.6772 92.8393 89.6772 93.213C89.6772 93.5494 89.696 93.9045 89.7335 94.2782V96.4647C89.7335 96.8011 89.7335 97.1374 89.7335 97.4738C89.771 97.8102 89.7897 98.1279 89.7897 98.4269C89.7897 98.7633 89.7897 99.081 89.7897 99.38C89.8272 99.6416 89.846 99.9219 89.846 100.221C89.8835 100.52 89.9022 100.8 89.9022 101.062C89.9022 101.286 89.921 101.51 89.9585 101.735C89.9585 101.959 89.9585 102.164 89.9585 102.351C89.996 102.538 90.0148 102.725 90.0148 102.912C90.0522 103.099 90.071 103.267 90.071 103.417C90.071 103.529 90.071 103.622 90.071 103.697V103.865C90.071 103.902 90.0898 103.921 90.1273 103.921V103.697C90.1273 103.622 90.1273 103.529 90.1273 103.417C90.1648 103.267 90.1835 103.099 90.1835 102.912C90.1835 102.725 90.1835 102.538 90.1835 102.351C90.221 102.164 90.2398 101.959 90.2398 101.735C90.2773 101.51 90.296 101.286 90.296 101.062C90.296 100.8 90.3148 100.52 90.3523 100.221C90.3523 99.9219 90.3523 99.6416 90.3523 99.38C90.3898 99.081 90.4085 98.7633 90.4085 98.4269C90.4085 98.1279 90.4085 97.8102 90.4085 97.4738C90.446 97.1374 90.4648 96.8011 90.4648 96.4647V95.3995C90.4648 95.3247 90.4648 95.2313 90.4648 95.1192C90.5023 95.007 90.521 94.9136 90.521 94.8389V89.8492Z" fill="#F4EDE8"/>
<path d="M113.59 84.6353C113.59 86.3172 113.177 87.8309 112.352 89.1765C111.527 90.522 110.421 91.5685 109.033 92.316C109.708 92.8393 110.327 93.456 110.89 94.1661C111.452 94.8389 111.921 95.5864 112.296 96.4086C112.709 97.2309 113.027 98.0718 113.252 98.9315C113.477 99.7911 113.59 100.632 113.59 101.454V105.042C113.552 106.238 113.309 107.36 112.859 108.406C112.409 109.415 111.79 110.312 111.002 111.097C110.215 111.845 109.296 112.443 108.246 112.891C107.196 113.377 106.071 113.62 104.871 113.62H99.583C99.3205 113.62 99.0955 113.527 98.9079 113.34C98.7579 113.153 98.6829 112.929 98.6829 112.667C98.6829 112.929 98.5892 113.153 98.4017 113.34C98.2142 113.527 98.0079 113.62 97.7829 113.62H94.8015C94.8015 113.284 94.8578 113.041 94.9703 112.891C95.1203 112.742 95.2703 112.574 95.4203 112.387C95.5703 112.237 95.7015 112.013 95.8141 111.714C95.9641 111.415 96.0391 110.948 96.0391 110.312V94.6707C95.9266 93.5494 95.4015 92.7271 94.464 92.2039C94.9515 91.9049 95.4765 91.7554 96.0391 91.7554V73.3105C96.0391 72.6752 95.9641 72.208 95.8141 71.909C95.7015 71.61 95.5703 71.3857 95.4203 71.2362C95.2703 71.0493 95.1203 70.8811 94.9703 70.7316C94.8578 70.5821 94.8015 70.3392 94.8015 70.0028H97.7829C98.0079 70.0028 98.2142 70.0962 98.4017 70.2831C98.5892 70.4326 98.6829 70.6382 98.6829 70.8998C98.6829 70.3018 98.983 70.0028 99.583 70.0028H104.871C106.071 70.0028 107.196 70.2271 108.246 70.6756C109.296 71.1241 110.215 71.7408 111.002 72.5257C111.79 73.2732 112.409 74.1702 112.859 75.2167C113.309 76.2632 113.552 77.3658 113.59 78.5244V84.6353ZM99.0767 88.784C99.0767 88.5224 99.058 88.2794 99.0205 88.0552C99.0205 87.7936 99.0205 87.5506 99.0205 87.3264V85.8687C98.983 84.897 98.9642 83.9813 98.9642 83.1216C98.9642 82.262 98.9454 81.4584 98.9079 80.7109C98.8704 80.2998 98.8517 79.926 98.8517 79.5896C98.8517 79.2533 98.8329 78.9356 98.7954 78.6366C98.7954 78.3376 98.7767 78.0572 98.7392 77.7956C98.7392 77.4966 98.7392 77.2537 98.7392 77.0668C98.7392 76.8425 98.7204 76.637 98.6829 76.4501C98.6829 76.2632 98.6829 76.1137 98.6829 76.0016V75.6652C98.6454 75.7026 98.6267 75.74 98.6267 75.7773V76.0016C98.6267 76.1137 98.6079 76.2632 98.5704 76.4501C98.5704 76.637 98.5704 76.8425 98.5704 77.0668C98.5704 77.2537 98.5517 77.4966 98.5142 77.7956C98.5142 78.0572 98.5142 78.3376 98.5142 78.6366C98.4767 78.9356 98.4579 79.2533 98.4579 79.5896C98.4579 79.926 98.4392 80.2998 98.4017 80.7109C98.3642 81.4584 98.3454 82.262 98.3454 83.1216C98.3454 83.9813 98.3267 84.897 98.2892 85.8687V87.3264C98.2892 87.5506 98.2892 87.7936 98.2892 88.0552C98.2892 88.2794 98.2704 88.5224 98.2329 88.784V94.7828C98.2329 94.9323 98.2329 95.0631 98.2329 95.1752C98.2704 95.2874 98.2892 95.4182 98.2892 95.5677V97.6981C98.2892 98.184 98.2892 98.6698 98.2892 99.1557C98.3267 99.6042 98.3454 100.034 98.3454 100.445C98.3454 100.856 98.3454 101.267 98.3454 101.679C98.3829 102.09 98.4017 102.501 98.4017 102.912C98.4392 103.099 98.4579 103.286 98.4579 103.473C98.4579 103.622 98.4579 103.79 98.4579 103.977C98.4579 104.164 98.4579 104.332 98.4579 104.482C98.4954 104.631 98.5142 104.781 98.5142 104.93C98.5142 105.229 98.5142 105.528 98.5142 105.827C98.5517 106.089 98.5704 106.332 98.5704 106.556C98.5704 106.78 98.5704 106.986 98.5704 107.173C98.6079 107.322 98.6267 107.453 98.6267 107.565V107.846C98.6267 107.883 98.6454 107.92 98.6829 107.958V107.565C98.6829 107.453 98.6829 107.322 98.6829 107.173C98.7204 106.986 98.7392 106.78 98.7392 106.556C98.7392 106.332 98.7392 106.089 98.7392 105.827C98.7767 105.528 98.7954 105.229 98.7954 104.93C98.8329 104.781 98.8517 104.631 98.8517 104.482C98.8517 104.332 98.8517 104.164 98.8517 103.977C98.8517 103.79 98.8517 103.622 98.8517 103.473C98.8892 103.286 98.9079 103.099 98.9079 102.912C98.9079 102.501 98.9079 102.09 98.9079 101.679C98.9454 101.267 98.9642 100.856 98.9642 100.445C98.9642 100.034 98.9642 99.6042 98.9642 99.1557C99.0017 98.6698 99.0205 98.184 99.0205 97.6981V96.2965C99.0205 95.9601 99.0392 95.7172 99.0767 95.5677V88.784ZM110.665 103.921C110.627 104.033 110.609 104.22 110.609 104.482V105.491C110.609 105.678 110.59 105.846 110.552 105.995C110.552 106.145 110.552 106.294 110.552 106.444C110.552 106.593 110.534 106.724 110.496 106.836C110.496 106.949 110.496 107.061 110.496 107.173V107.341C110.459 107.378 110.44 107.434 110.44 107.509V107.789C110.402 107.827 110.383 107.864 110.383 107.902V108.014C110.383 108.051 110.365 108.088 110.327 108.126C110.327 108.126 110.327 108.145 110.327 108.182C110.327 108.219 110.308 108.257 110.271 108.294H110.327C110.327 108.294 110.346 108.257 110.383 108.182C110.383 108.182 110.402 108.145 110.44 108.07C110.477 108.032 110.496 107.995 110.496 107.958C110.534 107.92 110.552 107.883 110.552 107.846C110.59 107.808 110.609 107.771 110.609 107.733C110.646 107.696 110.665 107.64 110.665 107.565C110.74 107.49 110.777 107.397 110.777 107.285C110.852 107.135 110.927 106.874 111.002 106.5C111.077 106.276 111.115 106.126 111.115 106.052C111.152 105.977 111.171 105.902 111.171 105.827C111.171 105.715 111.19 105.622 111.227 105.547C111.227 105.472 111.227 105.397 111.227 105.323C111.265 105.211 111.284 105.117 111.284 105.042C111.321 104.93 111.34 104.762 111.34 104.538C111.377 104.351 111.396 104.164 111.396 103.977C111.396 103.79 111.415 103.603 111.452 103.417V101.062C111.452 100.875 111.434 100.688 111.396 100.501C111.396 100.314 111.377 100.127 111.34 99.9406C111.34 99.7164 111.321 99.5482 111.284 99.436C111.284 99.3613 111.265 99.2865 111.227 99.2118C111.227 99.0997 111.227 99.0062 111.227 98.9315C111.19 98.8567 111.171 98.782 111.171 98.7072C111.171 98.5951 111.152 98.5017 111.115 98.4269C111.115 98.3522 111.096 98.2774 111.059 98.2027C111.059 98.1279 111.059 98.0531 111.059 97.9784C110.984 97.7541 110.946 97.6233 110.946 97.586C110.909 97.4738 110.852 97.343 110.777 97.1935C110.777 97.0814 110.74 96.9879 110.665 96.9132C110.665 96.8011 110.627 96.7076 110.552 96.6329C110.477 96.4834 110.421 96.3712 110.383 96.2965C110.346 96.2591 110.327 96.2217 110.327 96.1844H110.271C110.271 96.1844 110.29 96.2217 110.327 96.2965C110.327 96.3339 110.327 96.3713 110.327 96.4086C110.365 96.4086 110.383 96.4273 110.383 96.4647C110.383 96.5394 110.402 96.6142 110.44 96.6889V96.9693C110.477 97.044 110.496 97.1374 110.496 97.2496C110.496 97.4365 110.515 97.5673 110.552 97.642V98.0345C110.59 98.184 110.609 98.3335 110.609 98.483C110.609 98.6325 110.609 98.8007 110.609 98.9875V99.4921C110.609 99.5669 110.609 99.6603 110.609 99.7724C110.646 99.8472 110.665 99.9219 110.665 99.9967V103.921ZM108.358 101.454C108.358 100.968 108.34 100.277 108.302 99.38C108.265 98.483 108.133 97.586 107.908 96.6889C107.683 95.7919 107.327 95.0257 106.84 94.3903C106.39 93.7176 105.715 93.3812 104.814 93.3812H102.789C102.377 93.3812 102.021 93.5307 101.721 93.8297C101.421 94.1287 101.271 94.4838 101.271 94.8949V109.471C101.271 109.883 101.421 110.238 101.721 110.537C102.021 110.798 102.377 110.948 102.789 110.985H104.814C105.715 110.985 106.39 110.761 106.84 110.312C107.327 109.826 107.683 109.266 107.908 108.63C108.133 107.995 108.265 107.322 108.302 106.612C108.34 105.902 108.358 105.304 108.358 104.818V101.454ZM108.358 78.7487C108.358 78.2628 108.34 77.6835 108.302 77.0107C108.265 76.3006 108.133 75.6278 107.908 74.9924C107.683 74.3571 107.327 73.8151 106.84 73.3666C106.39 72.8807 105.715 72.6378 104.814 72.6378H102.789C102.377 72.6378 102.021 72.7873 101.721 73.0863C101.421 73.3853 101.271 73.7404 101.271 74.1515V89.2325C101.271 89.6437 101.421 89.9987 101.721 90.2977C102.021 90.5967 102.377 90.7462 102.789 90.7462H104.814C105.715 90.7462 106.39 90.522 106.84 90.0735C107.327 89.625 107.683 89.083 107.908 88.4476C108.133 87.7749 108.265 87.1021 108.302 86.4294C108.34 85.7192 108.358 85.1212 108.358 84.6353V78.7487ZM110.89 86.149C110.965 85.9248 111.002 85.7753 111.002 85.7005C111.077 85.551 111.115 85.4015 111.115 85.252C111.152 85.1773 111.171 85.1025 111.171 85.0278C111.171 84.9156 111.19 84.8222 111.227 84.7475C111.227 84.6727 111.227 84.598 111.227 84.5232C111.265 84.4111 111.284 84.299 111.284 84.1868C111.321 84.0747 111.34 83.8878 111.34 83.6262C111.377 83.4393 111.396 83.2524 111.396 83.0656C111.396 82.8787 111.415 82.6918 111.452 82.5049V81.2715C111.452 80.8604 111.452 80.468 111.452 80.0942C111.452 79.6831 111.434 79.2906 111.396 78.9169C111.359 78.8047 111.34 78.7113 111.34 78.6366C111.34 78.5244 111.321 78.431 111.284 78.3562C111.284 78.0946 111.265 77.9077 111.227 77.7956C111.19 77.6087 111.152 77.4405 111.115 77.291C111.115 77.1415 111.096 76.992 111.059 76.8425C110.984 76.6183 110.946 76.4688 110.946 76.394C110.871 76.2445 110.834 76.1324 110.834 76.0576C110.759 75.9081 110.702 75.796 110.665 75.7213C110.665 75.6091 110.627 75.5157 110.552 75.4409C110.515 75.3288 110.459 75.198 110.383 75.0485L110.271 74.9364V74.9924C110.271 75.0298 110.271 75.0485 110.271 75.0485C110.308 75.0485 110.327 75.0672 110.327 75.1046C110.365 75.1419 110.383 75.198 110.383 75.2728C110.383 75.3475 110.402 75.4223 110.44 75.497V75.7773C110.477 75.8521 110.496 75.9642 110.496 76.1137C110.496 76.1885 110.496 76.2632 110.496 76.338C110.534 76.3753 110.552 76.4314 110.552 76.5062V76.8986C110.59 77.0481 110.609 77.1976 110.609 77.3471C110.609 77.4966 110.609 77.6648 110.609 77.8517V78.4123C110.609 78.4871 110.609 78.5805 110.609 78.6926C110.646 78.7674 110.665 78.8421 110.665 78.9169V83.0656C110.627 83.1777 110.609 83.3646 110.609 83.6262V84.6914C110.609 84.8783 110.59 85.0465 110.552 85.196C110.552 85.3455 110.552 85.495 110.552 85.6445C110.552 85.794 110.534 85.9435 110.496 86.093C110.496 86.2051 110.496 86.3172 110.496 86.4294C110.496 86.6162 110.477 86.7284 110.44 86.7657V87.1021C110.402 87.1021 110.383 87.1395 110.383 87.2142V87.3264C110.383 87.3637 110.365 87.4011 110.327 87.4385C110.327 87.4385 110.327 87.4572 110.327 87.4946C110.327 87.5319 110.308 87.5693 110.271 87.6067L110.383 87.4946C110.383 87.4572 110.383 87.4385 110.383 87.4385C110.421 87.4011 110.44 87.3637 110.44 87.3264C110.477 87.3264 110.496 87.289 110.496 87.2142C110.534 87.2142 110.552 87.1769 110.552 87.1021C110.59 87.1021 110.609 87.0647 110.609 86.99C110.646 86.9526 110.665 86.8966 110.665 86.8218C110.74 86.747 110.777 86.6536 110.777 86.5415C110.852 86.3172 110.89 86.1864 110.89 86.149Z" fill="#F4EDE8"/>
<path d="M134.867 108.406C135.017 109.042 135.186 109.509 135.373 109.808C135.561 110.107 135.748 110.35 135.936 110.537C136.123 110.723 136.292 110.892 136.442 111.041C136.592 111.191 136.705 111.434 136.78 111.77H133.798C133.536 111.77 133.292 111.677 133.067 111.49C132.879 111.303 132.767 111.079 132.729 110.817C132.767 111.079 132.711 111.303 132.561 111.49C132.411 111.677 132.223 111.77 131.998 111.77H129.017C128.942 111.434 128.961 111.191 129.073 111.041C129.186 110.892 129.298 110.742 129.411 110.593C129.523 110.406 129.617 110.163 129.692 109.864C129.767 109.527 129.748 109.023 129.636 108.35V108.294L128.398 101.959C128.323 101.585 128.117 101.267 127.779 101.006C127.442 100.707 127.067 100.557 126.654 100.557H122.773C122.36 100.557 121.985 100.707 121.648 101.006C121.31 101.267 121.104 101.585 121.029 101.959L119.848 108.294V108.35C119.735 109.023 119.698 109.527 119.735 109.864C119.81 110.163 119.904 110.406 120.016 110.593C120.166 110.742 120.279 110.892 120.354 111.041C120.466 111.191 120.504 111.434 120.466 111.77H117.485C117.222 111.77 117.016 111.677 116.866 111.49C116.716 111.303 116.66 111.079 116.697 110.817C116.66 111.079 116.547 111.303 116.36 111.49C116.172 111.677 115.947 111.77 115.685 111.77H112.703C112.741 111.434 112.835 111.191 112.985 111.041C113.135 110.892 113.304 110.723 113.491 110.537C113.679 110.35 113.866 110.107 114.054 109.808C114.241 109.509 114.41 109.042 114.56 108.406L117.091 94.7828C117.166 94.2595 117.11 93.7736 116.922 93.3251C116.735 92.8766 116.435 92.5216 116.022 92.2599C116.622 91.9983 117.166 91.8675 117.654 91.8675L120.691 75.8895C120.804 75.2541 120.823 74.7869 120.748 74.4879C120.673 74.1515 120.579 73.9086 120.466 73.7591C120.354 73.5722 120.241 73.404 120.129 73.2545C120.016 73.105 119.998 72.862 120.073 72.5257H123.842C124.404 72.6004 124.685 72.9181 124.685 73.4787C124.685 73.2171 124.76 73.0115 124.91 72.862C125.098 72.6752 125.304 72.563 125.529 72.5257H129.354C129.429 72.862 129.411 73.105 129.298 73.2545C129.223 73.404 129.129 73.5722 129.017 73.7591C128.904 73.9086 128.811 74.1515 128.735 74.4879C128.66 74.7869 128.679 75.2541 128.792 75.8895L131.773 91.8675C132.073 91.8675 132.354 91.9049 132.617 91.9796C132.879 92.0544 133.142 92.1478 133.404 92.2599C132.579 92.7832 132.223 93.6241 132.336 94.7828L134.867 108.406ZM121.366 88.3355C121.441 88.1113 121.479 87.9057 121.479 87.7188C121.516 87.4946 121.554 87.289 121.591 87.1021C121.779 86.2425 121.929 85.4389 122.041 84.6914C122.154 83.9065 122.266 83.1964 122.379 82.561C122.454 82.262 122.491 81.963 122.491 81.664C122.529 81.365 122.566 81.066 122.604 80.767C122.641 80.5053 122.679 80.2624 122.716 80.0381C122.754 79.8139 122.791 79.6083 122.829 79.4214C122.866 79.2346 122.885 79.0664 122.885 78.9169C122.885 78.73 122.904 78.5805 122.941 78.4684V78.2441L122.885 78.4684C122.848 78.5805 122.81 78.7113 122.773 78.8608C122.735 79.0103 122.698 79.1785 122.66 79.3654C122.585 79.5523 122.529 79.7765 122.491 80.0381C122.454 80.2624 122.398 80.4866 122.323 80.7109C122.248 81.0099 122.173 81.3089 122.098 81.6079C122.06 81.9069 122.004 82.2059 121.929 82.5049C121.741 83.1403 121.554 83.8318 121.366 84.5793C121.216 85.2894 121.048 86.0743 120.86 86.9339C120.86 87.1582 120.841 87.3637 120.804 87.5506C120.766 87.7375 120.71 87.9431 120.635 88.1673C120.598 88.3916 120.56 88.6158 120.523 88.8401C120.485 89.027 120.448 89.2325 120.41 89.4568C120.298 89.8679 120.185 90.2977 120.073 90.7462C119.998 91.1947 119.923 91.6432 119.848 92.0918C119.773 92.5029 119.679 92.9327 119.566 93.3812C119.491 93.8297 119.416 94.2595 119.341 94.6707C119.304 94.7828 119.285 94.8949 119.285 95.007C119.285 95.0818 119.266 95.1752 119.229 95.2874C119.154 95.5864 119.116 95.8106 119.116 95.9601C119.004 96.3339 118.929 96.745 118.891 97.1935C118.816 97.6046 118.741 98.0158 118.666 98.4269C118.591 98.838 118.535 99.2118 118.498 99.5482C118.385 100.408 118.272 101.118 118.16 101.679C118.085 101.978 118.029 102.277 117.991 102.576C117.954 102.875 117.916 103.174 117.879 103.473C117.804 103.734 117.747 103.996 117.71 104.257C117.71 104.482 117.691 104.687 117.654 104.874C117.616 105.061 117.597 105.229 117.597 105.379C117.597 105.528 117.579 105.659 117.541 105.771C117.541 105.846 117.522 105.902 117.485 105.939C117.485 105.939 117.485 105.958 117.485 105.995V106.052C117.522 106.052 117.541 106.033 117.541 105.995C117.541 105.921 117.56 105.846 117.597 105.771C117.635 105.696 117.654 105.584 117.654 105.435C117.691 105.248 117.747 105.061 117.822 104.874C117.897 104.687 117.954 104.482 117.991 104.257C118.066 104.033 118.141 103.79 118.216 103.529C118.291 103.267 118.348 102.987 118.385 102.688C118.46 102.389 118.516 102.09 118.554 101.791C118.629 101.492 118.704 101.174 118.779 100.838C118.891 100.464 118.985 100.09 119.06 99.7164C119.135 99.3426 119.21 98.9502 119.285 98.539C119.398 98.1279 119.51 97.7168 119.623 97.3056C119.66 97.1188 119.698 96.9319 119.735 96.745C119.773 96.5208 119.81 96.3152 119.848 96.1283L120.016 95.4555C120.054 95.3434 120.073 95.2313 120.073 95.1192C120.073 95.007 120.091 94.8949 120.129 94.7828C120.204 94.3717 120.298 93.9605 120.41 93.5494C120.523 93.1009 120.616 92.6524 120.691 92.2039C120.766 91.7927 120.841 91.3629 120.916 90.9144C120.991 90.4659 121.066 90.0361 121.141 89.625C121.179 89.4007 121.216 89.1765 121.254 88.9522C121.291 88.728 121.329 88.5224 121.366 88.3355ZM126.148 97.9223C126.56 97.885 126.879 97.7355 127.104 97.4738C127.367 97.1748 127.46 96.8198 127.385 96.4086L127.048 94.7828C126.898 94.2595 126.635 93.7736 126.26 93.3251C125.923 92.8766 125.51 92.5216 125.023 92.2599C125.473 91.9983 125.96 91.8675 126.485 91.8675L124.685 82.2807L122.885 91.8675C123.373 91.8675 123.879 91.9983 124.404 92.2599C123.879 92.5216 123.429 92.8766 123.054 93.3251C122.716 93.7736 122.491 94.2595 122.379 94.7828L122.098 96.4086C122.023 96.8198 122.098 97.1748 122.323 97.4738C122.548 97.7355 122.848 97.885 123.223 97.9223H126.148ZM131.829 105.771C131.829 105.846 131.829 105.902 131.829 105.939C131.867 105.939 131.886 105.958 131.886 105.995V105.771C131.848 105.659 131.829 105.528 131.829 105.379C131.829 105.229 131.811 105.061 131.773 104.874C131.736 104.687 131.698 104.482 131.661 104.257C131.661 103.996 131.623 103.734 131.548 103.473C131.511 103.174 131.473 102.875 131.436 102.576C131.398 102.277 131.342 101.978 131.267 101.679C131.154 101.118 131.042 100.408 130.929 99.5482C130.854 99.2118 130.779 98.838 130.704 98.4269C130.667 98.0158 130.611 97.6046 130.536 97.1935C130.461 96.9693 130.404 96.7637 130.367 96.5768C130.367 96.3899 130.329 96.1844 130.254 95.9601C130.254 95.8106 130.217 95.5864 130.142 95.2874C130.142 95.1752 130.123 95.0818 130.086 95.007C130.086 94.8949 130.086 94.7828 130.086 94.6707C130.011 94.2595 129.917 93.8297 129.804 93.3812C129.729 92.9327 129.654 92.5029 129.579 92.0918C129.504 91.6432 129.411 91.1947 129.298 90.7462C129.223 90.2977 129.129 89.8679 129.017 89.4568C128.979 89.2325 128.942 89.027 128.904 88.8401C128.867 88.6158 128.829 88.3916 128.792 88.1673C128.717 87.9431 128.66 87.7375 128.623 87.5506C128.585 87.3637 128.548 87.1582 128.51 86.9339C128.323 86.0743 128.135 85.2894 127.948 84.5793C127.798 83.8318 127.667 83.1403 127.554 82.5049C127.479 82.2059 127.404 81.9069 127.329 81.6079C127.254 81.3089 127.179 81.0099 127.104 80.7109C127.029 80.4866 126.954 80.2624 126.879 80.0381C126.842 79.7765 126.785 79.5523 126.71 79.3654C126.673 79.1785 126.635 79.0103 126.598 78.8608C126.56 78.7113 126.523 78.5805 126.485 78.4684L126.429 78.2441V78.4684C126.467 78.6552 126.523 78.9729 126.598 79.4214C126.598 79.6083 126.617 79.8139 126.654 80.0381C126.692 80.2624 126.729 80.5053 126.767 80.767C126.804 81.066 126.842 81.365 126.879 81.664C126.917 81.963 126.973 82.262 127.048 82.561C127.16 83.1964 127.273 83.9065 127.385 84.6914C127.498 85.4389 127.629 86.2425 127.779 87.1021C127.817 87.289 127.835 87.4946 127.835 87.7188C127.873 87.9057 127.929 88.1113 128.004 88.3355C128.042 88.5224 128.079 88.728 128.117 88.9522C128.154 89.1765 128.192 89.4007 128.229 89.625C128.304 90.0361 128.379 90.4659 128.454 90.9144C128.567 91.3629 128.66 91.7927 128.735 92.2039C128.811 92.6524 128.904 93.1009 129.017 93.5494C129.129 93.9605 129.223 94.3717 129.298 94.7828C129.336 94.8949 129.354 95.007 129.354 95.1192C129.354 95.2313 129.373 95.3434 129.411 95.4555L129.579 96.1283C129.617 96.3152 129.654 96.5208 129.692 96.745C129.729 96.9319 129.767 97.1188 129.804 97.3056C129.917 97.7168 130.011 98.1279 130.086 98.539C130.161 98.9502 130.236 99.3426 130.311 99.7164C130.386 100.09 130.461 100.464 130.536 100.838C130.648 101.174 130.742 101.492 130.817 101.791C130.892 102.09 130.967 102.389 131.042 102.688C131.117 102.987 131.192 103.267 131.267 103.529C131.379 104.052 131.492 104.5 131.604 104.874C131.679 105.061 131.717 105.248 131.717 105.435C131.754 105.584 131.792 105.696 131.829 105.771Z" fill="#F4EDE8"/>
<path d="M158.469 114.125C158.882 114.199 159.163 114.33 159.313 114.517C159.5 114.704 159.632 114.891 159.707 115.078C159.782 115.302 159.819 115.545 159.819 115.807C158.619 115.807 157.494 115.657 156.444 115.358C155.394 115.059 154.456 114.573 153.631 113.9C152.844 113.228 152.206 112.349 151.719 111.265C151.269 110.182 151.044 108.855 151.044 107.285V99.6042C151.044 99.1184 151.025 98.5203 150.987 97.8102C150.95 97.1001 150.819 96.4273 150.594 95.7919C150.369 95.1565 150.012 94.6146 149.525 94.1661C149.075 93.6802 148.4 93.4373 147.5 93.4373H145.193C144.856 93.512 144.556 93.6989 144.293 93.9979C144.068 94.2595 143.956 94.5772 143.956 94.951V108.35C143.956 109.023 144.012 109.527 144.125 109.864C144.275 110.163 144.425 110.406 144.575 110.593C144.725 110.742 144.856 110.892 144.968 111.041C145.118 111.191 145.193 111.434 145.193 111.77H142.212C141.987 111.77 141.781 111.677 141.593 111.49C141.406 111.303 141.312 111.097 141.312 110.873C141.312 111.097 141.218 111.303 141.031 111.49C140.881 111.677 140.674 111.77 140.412 111.77H137.487C137.487 111.434 137.543 111.191 137.656 111.041C137.806 110.892 137.956 110.742 138.106 110.593C138.256 110.406 138.387 110.163 138.499 109.864C138.649 109.565 138.724 109.098 138.724 108.462V94.7828C138.612 93.6241 138.087 92.7832 137.149 92.2599C137.562 91.9983 138.087 91.8675 138.724 91.8675V75.8334C138.724 75.198 138.649 74.7308 138.499 74.4318C138.387 74.1328 138.256 73.9086 138.106 73.7591C137.956 73.5722 137.806 73.404 137.656 73.2545C137.543 73.105 137.487 72.862 137.487 72.5257H140.468C140.693 72.5257 140.899 72.6191 141.087 72.806C141.274 72.9555 141.368 73.161 141.368 73.4227C141.368 72.8247 141.668 72.5257 142.268 72.5257H147.556C148.756 72.5257 149.881 72.7499 150.931 73.1984C151.981 73.6469 152.9 74.2636 153.688 75.0485C154.475 75.796 155.094 76.693 155.544 77.7395C155.994 78.7861 156.238 79.8886 156.275 81.0473V84.6914C156.275 86.2612 155.9 87.7001 155.15 89.0083C154.4 90.3164 153.388 91.3629 152.112 92.1478C153.388 92.8953 154.4 93.9418 155.15 95.2874C155.9 96.5955 156.275 98.0345 156.275 99.6042V107.061C156.275 107.846 156.275 108.649 156.275 109.471C156.313 110.256 156.406 110.985 156.556 111.658C156.706 112.293 156.931 112.835 157.231 113.284C157.531 113.732 157.944 114.013 158.469 114.125ZM153.35 83.7383C153.313 83.8131 153.294 83.9065 153.294 84.0186V85.3081C153.256 85.4576 153.238 85.6071 153.238 85.7566C153.238 85.8687 153.238 85.9809 153.238 86.093C153.238 86.1677 153.219 86.2238 153.181 86.2612C153.181 86.2985 153.181 86.3546 153.181 86.4294V86.7657C153.144 86.8405 153.125 86.9339 153.125 87.0461C153.125 87.1208 153.106 87.1956 153.069 87.2703C153.069 87.3451 153.05 87.4011 153.012 87.4385V87.5506L152.956 87.6627C152.956 87.6627 152.994 87.6441 153.069 87.6067V87.5506L153.125 87.4946C153.162 87.4572 153.181 87.4385 153.181 87.4385C153.181 87.4011 153.2 87.3637 153.238 87.3264C153.275 87.2516 153.313 87.1769 153.35 87.1021C153.388 86.99 153.425 86.8966 153.463 86.8218C153.5 86.747 153.519 86.7097 153.519 86.7097C153.519 86.6723 153.538 86.6162 153.575 86.5415C153.613 86.4667 153.631 86.4107 153.631 86.3733C153.631 86.2985 153.65 86.2238 153.688 86.149C153.725 86.0743 153.744 86.0182 153.744 85.9808C153.744 85.9435 153.763 85.8874 153.8 85.8127C153.8 85.7379 153.8 85.6818 153.8 85.6445C153.838 85.5697 153.856 85.495 153.856 85.4202C153.894 85.2707 153.913 85.1212 153.913 84.9717C153.95 84.8222 153.988 84.6727 154.025 84.5232C154.063 84.4111 154.081 84.2429 154.081 84.0186C154.081 83.9439 154.081 83.8691 154.081 83.7944C154.119 83.7196 154.138 83.6449 154.138 83.5701V81.6079C154.138 81.3837 154.119 81.2155 154.081 81.1033V80.8791C154.081 80.8043 154.063 80.767 154.025 80.767C154.025 80.7296 154.025 80.6735 154.025 80.5988C154.025 80.4119 153.988 80.1316 153.913 79.7578C153.875 79.6831 153.856 79.6083 153.856 79.5336C153.856 79.4588 153.838 79.3841 153.8 79.3093C153.8 79.2719 153.781 79.2533 153.744 79.2533C153.744 79.2159 153.744 79.1785 153.744 79.1411C153.744 79.1038 153.725 79.0851 153.688 79.0851C153.688 79.0477 153.688 79.0103 153.688 78.9729C153.65 78.8982 153.631 78.8421 153.631 78.8047C153.631 78.7674 153.613 78.7113 153.575 78.6366C153.538 78.5618 153.519 78.5057 153.519 78.4684C153.519 78.431 153.5 78.3749 153.463 78.3002C153.425 78.2628 153.406 78.2254 153.406 78.1881C153.406 78.1507 153.388 78.1133 153.35 78.0759C153.275 77.9264 153.238 77.8517 153.238 77.8517C153.2 77.8143 153.181 77.7956 153.181 77.7956C153.181 77.7582 153.162 77.7209 153.125 77.6835C153.087 77.6461 153.069 77.6087 153.069 77.5714C153.031 77.534 153.012 77.4966 153.012 77.4592H152.956C152.956 77.4592 152.975 77.4966 153.012 77.5714V77.6835C153.05 77.7209 153.069 77.7956 153.069 77.9077C153.069 77.9451 153.069 77.9825 153.069 78.0199C153.106 78.0199 153.125 78.0572 153.125 78.132C153.125 78.2441 153.144 78.3376 153.181 78.4123V78.6926C153.181 78.7674 153.181 78.8234 153.181 78.8608C153.219 78.8982 153.238 78.9542 153.238 79.029C153.238 79.3654 153.256 79.627 153.294 79.8139V80.7109C153.331 80.8978 153.35 81.1968 153.35 81.6079V83.7383ZM141.762 89.5128C141.762 89.326 141.743 89.1204 141.706 88.8961C141.706 88.6719 141.706 88.4476 141.706 88.2234V86.99C141.668 86.1677 141.649 85.3828 141.649 84.6353C141.649 83.8878 141.631 83.1777 141.593 82.5049C141.556 82.2059 141.537 81.9069 141.537 81.6079C141.537 81.3089 141.518 81.0286 141.481 80.767C141.481 80.468 141.462 80.2063 141.424 79.9821C141.424 79.7578 141.424 79.5523 141.424 79.3654C141.424 79.1785 141.406 79.0103 141.368 78.8608C141.368 78.7113 141.368 78.5805 141.368 78.4684V78.1881C141.331 78.1881 141.312 78.2067 141.312 78.2441V78.4684C141.312 78.5805 141.293 78.7113 141.256 78.8608C141.256 79.0103 141.256 79.1785 141.256 79.3654C141.256 79.5523 141.237 79.7578 141.199 79.9821C141.199 80.2063 141.199 80.468 141.199 80.767C141.162 81.0286 141.143 81.3089 141.143 81.6079C141.143 81.9069 141.124 82.2059 141.087 82.5049C141.049 83.1777 141.031 83.8878 141.031 84.6353C141.031 85.3828 141.012 86.1677 140.974 86.99V88.2234C140.974 88.4476 140.956 88.6719 140.918 88.8961C140.918 89.1204 140.918 89.326 140.918 89.5128V94.7267C140.918 95.0257 140.937 95.25 140.974 95.3995V97.2496C140.974 97.6607 140.974 98.0718 140.974 98.483C141.012 98.8567 141.031 99.2305 141.031 99.6042C141.031 100.015 141.031 100.389 141.031 100.725C141.068 101.062 141.087 101.398 141.087 101.735C141.124 102.071 141.143 102.389 141.143 102.688C141.143 102.949 141.162 103.23 141.199 103.529C141.199 103.79 141.199 104.033 141.199 104.257C141.237 104.482 141.256 104.687 141.256 104.874C141.256 105.061 141.256 105.248 141.256 105.435C141.293 105.584 141.312 105.696 141.312 105.771V106.052C141.312 106.089 141.331 106.108 141.368 106.108V105.771C141.368 105.696 141.368 105.584 141.368 105.435C141.406 105.248 141.424 105.061 141.424 104.874C141.424 104.687 141.424 104.482 141.424 104.257C141.462 104.033 141.481 103.79 141.481 103.529C141.518 103.23 141.537 102.949 141.537 102.688C141.537 102.389 141.556 102.071 141.593 101.735C141.593 101.398 141.593 101.062 141.593 100.725C141.631 100.389 141.649 100.015 141.649 99.6042C141.649 99.2305 141.649 98.8567 141.649 98.483C141.687 98.0718 141.706 97.6607 141.706 97.2496V96.0162C141.706 95.7172 141.724 95.5116 141.762 95.3995V89.5128ZM151.044 81.2715C151.044 80.7857 151.025 80.1876 150.987 79.4775C150.95 78.7674 150.819 78.0946 150.594 77.4592C150.369 76.8238 150.012 76.2819 149.525 75.8334C149.075 75.3475 148.4 75.1046 147.5 75.1046H145.475C145.062 75.1419 144.706 75.3101 144.406 75.6091C144.106 75.9081 143.956 76.2632 143.956 76.6743V89.2886C143.956 89.6997 144.106 90.0548 144.406 90.3538C144.706 90.6528 145.062 90.8023 145.475 90.8023H147.5C148.4 90.8023 149.075 90.578 149.525 90.1295C150.012 89.681 150.369 89.1391 150.594 88.5037C150.819 87.8309 150.95 87.1582 150.987 86.4854C151.025 85.7753 151.044 85.1773 151.044 84.6914V81.2715ZM154.813 111.994C154.813 111.994 154.794 111.976 154.756 111.938L154.7 111.882C154.663 111.807 154.625 111.733 154.588 111.658C154.588 111.583 154.55 111.508 154.475 111.434C154.438 111.321 154.4 111.209 154.363 111.097C154.325 110.948 154.288 110.78 154.25 110.593C154.175 110.219 154.138 109.864 154.138 109.527C154.1 109.341 154.081 109.154 154.081 108.967C154.081 108.743 154.081 108.5 154.081 108.238V105.267C154.081 105.005 154.081 104.743 154.081 104.482C154.081 104.22 154.1 103.94 154.138 103.641C154.138 103.379 154.138 103.118 154.138 102.856C154.138 102.594 154.119 102.333 154.081 102.071V101.286C154.081 100.912 154.063 100.651 154.025 100.501C154.025 100.24 154.006 99.9967 153.969 99.7724C153.969 99.5108 153.95 99.2679 153.913 99.0436C153.838 98.5203 153.763 98.0718 153.688 97.6981C153.65 97.5112 153.613 97.343 153.575 97.1935C153.538 97.0066 153.481 96.8198 153.406 96.6329C153.331 96.446 153.275 96.2965 153.238 96.1844C153.2 96.0722 153.144 95.9601 153.069 95.848C152.994 95.7359 152.937 95.6424 152.9 95.5677C152.862 95.4929 152.825 95.4182 152.787 95.3434C152.75 95.3434 152.712 95.3247 152.675 95.2874C152.637 95.2874 152.619 95.2687 152.619 95.2313L152.675 95.2874C152.675 95.3247 152.694 95.3621 152.731 95.3995C152.731 95.4369 152.731 95.4742 152.731 95.5116C152.769 95.5116 152.787 95.549 152.787 95.6237C152.825 95.6611 152.844 95.6985 152.844 95.7359C152.844 95.7732 152.862 95.8293 152.9 95.9041C152.937 96.0536 152.994 96.3152 153.069 96.6889C153.106 96.8758 153.125 97.0627 153.125 97.2496C153.162 97.4365 153.2 97.6233 153.238 97.8102C153.238 97.9971 153.238 98.2027 153.238 98.4269C153.275 98.6138 153.294 98.838 153.294 99.0997V106.052C153.294 106.201 153.294 106.332 153.294 106.444C153.331 106.556 153.35 106.687 153.35 106.836C153.35 107.098 153.35 107.36 153.35 107.621C153.388 107.846 153.425 108.07 153.463 108.294C153.5 108.518 153.519 108.743 153.519 108.967C153.556 109.191 153.594 109.397 153.631 109.583C153.706 109.808 153.763 110.013 153.8 110.2C153.838 110.35 153.894 110.518 153.969 110.705C154.044 110.892 154.1 111.041 154.138 111.153C154.175 111.265 154.231 111.378 154.306 111.49L154.419 111.602C154.456 111.639 154.475 111.677 154.475 111.714C154.475 111.714 154.494 111.733 154.531 111.77L154.756 111.994H154.813Z" fill="#F4EDE8"/>
<path d="M175.336 84.6914C175.336 86.2612 174.961 87.7001 174.211 89.0083C173.461 90.3164 172.448 91.3629 171.173 92.1478C172.448 92.8953 173.461 93.9418 174.211 95.2874C174.961 96.5955 175.336 98.0345 175.336 99.6042V103.248C175.299 104.444 175.055 105.566 174.605 106.612C174.155 107.621 173.536 108.518 172.748 109.303C171.961 110.051 171.042 110.649 169.992 111.097C168.942 111.546 167.817 111.77 166.617 111.77H161.273C161.048 111.77 160.842 111.677 160.654 111.49C160.467 111.303 160.373 111.097 160.373 110.873C160.373 111.097 160.279 111.303 160.092 111.49C159.942 111.677 159.735 111.77 159.473 111.77H156.548C156.548 111.434 156.604 111.191 156.716 111.041C156.866 110.892 157.016 110.742 157.166 110.593C157.316 110.406 157.448 110.163 157.56 109.864C157.71 109.565 157.785 109.098 157.785 108.462V94.7828C157.673 93.6241 157.148 92.7832 156.21 92.2599C156.623 91.9983 157.148 91.8675 157.785 91.8675V75.8334C157.785 75.198 157.71 74.7308 157.56 74.4318C157.448 74.1328 157.316 73.9086 157.166 73.7591C157.016 73.5722 156.866 73.404 156.716 73.2545C156.604 73.105 156.548 72.862 156.548 72.5257H159.529C159.754 72.5257 159.96 72.6191 160.148 72.806C160.335 72.9555 160.429 73.161 160.429 73.4227C160.429 72.8247 160.729 72.5257 161.329 72.5257H166.617C167.817 72.5257 168.942 72.7499 169.992 73.1984C171.042 73.6469 171.961 74.2636 172.748 75.0485C173.536 75.796 174.155 76.693 174.605 77.7395C175.055 78.7861 175.299 79.8886 175.336 81.0473V84.6914ZM160.823 89.5128C160.823 89.326 160.804 89.1204 160.767 88.8961C160.767 88.6719 160.767 88.4476 160.767 88.2234V86.99C160.729 86.1677 160.71 85.3828 160.71 84.6353C160.71 83.8878 160.692 83.1777 160.654 82.5049C160.617 82.2059 160.598 81.9069 160.598 81.6079C160.598 81.3089 160.579 81.0286 160.542 80.767C160.542 80.468 160.523 80.2063 160.485 79.9821C160.485 79.7578 160.485 79.5523 160.485 79.3654C160.485 79.1785 160.467 79.0103 160.429 78.8608C160.429 78.7113 160.429 78.5805 160.429 78.4684V78.1881C160.392 78.1881 160.373 78.2067 160.373 78.2441V78.4684C160.373 78.5805 160.354 78.7113 160.317 78.8608C160.317 79.0103 160.317 79.1785 160.317 79.3654C160.317 79.5523 160.298 79.7578 160.26 79.9821C160.26 80.2063 160.26 80.468 160.26 80.767C160.223 81.0286 160.204 81.3089 160.204 81.6079C160.204 81.9069 160.185 82.2059 160.148 82.5049C160.11 83.1777 160.092 83.8878 160.092 84.6353C160.092 85.3828 160.073 86.1677 160.035 86.99V88.2234C160.035 88.4476 160.017 88.6719 159.979 88.8961C159.979 89.1204 159.979 89.326 159.979 89.5128V94.7267C159.979 95.0257 159.998 95.25 160.035 95.3995V97.2496C160.035 97.6607 160.035 98.0718 160.035 98.483C160.073 98.8567 160.092 99.2305 160.092 99.6042C160.092 100.015 160.092 100.389 160.092 100.725C160.129 101.062 160.148 101.398 160.148 101.735C160.185 102.071 160.204 102.389 160.204 102.688C160.204 102.949 160.223 103.23 160.26 103.529C160.26 103.79 160.26 104.033 160.26 104.257C160.298 104.482 160.317 104.687 160.317 104.874C160.317 105.061 160.317 105.248 160.317 105.435C160.354 105.584 160.373 105.696 160.373 105.771V106.052C160.373 106.089 160.392 106.108 160.429 106.108V105.771C160.429 105.696 160.429 105.584 160.429 105.435C160.467 105.248 160.485 105.061 160.485 104.874C160.485 104.687 160.485 104.482 160.485 104.257C160.523 104.033 160.542 103.79 160.542 103.529C160.579 103.23 160.598 102.949 160.598 102.688C160.598 102.389 160.617 102.071 160.654 101.735C160.654 101.398 160.654 101.062 160.654 100.725C160.692 100.389 160.71 100.015 160.71 99.6042C160.71 99.2305 160.71 98.8567 160.71 98.483C160.748 98.0718 160.767 97.6607 160.767 97.2496V96.0162C160.767 95.7172 160.785 95.5116 160.823 95.3995V89.5128ZM172.411 102.52C172.373 102.594 172.355 102.688 172.355 102.8V104.089C172.317 104.239 172.298 104.388 172.298 104.538C172.298 104.65 172.298 104.762 172.298 104.874C172.298 104.949 172.28 105.005 172.242 105.042C172.242 105.08 172.242 105.136 172.242 105.211V105.547C172.205 105.622 172.186 105.715 172.186 105.827C172.186 105.902 172.167 105.977 172.13 106.052C172.13 106.126 172.111 106.182 172.073 106.22V106.332L172.017 106.444C172.017 106.444 172.055 106.425 172.13 106.388V106.332L172.186 106.276C172.223 106.238 172.242 106.22 172.242 106.22C172.242 106.182 172.261 106.145 172.298 106.108C172.336 106.033 172.373 105.958 172.411 105.883C172.448 105.771 172.486 105.678 172.523 105.603C172.561 105.528 172.58 105.491 172.58 105.491C172.58 105.454 172.598 105.397 172.636 105.323C172.673 105.248 172.692 105.192 172.692 105.154C172.692 105.117 172.711 105.061 172.748 104.986C172.786 104.912 172.805 104.855 172.805 104.818C172.805 104.743 172.823 104.669 172.861 104.594C172.861 104.519 172.861 104.463 172.861 104.426C172.898 104.351 172.917 104.276 172.917 104.201C172.955 104.052 172.973 103.902 172.973 103.753C173.011 103.603 173.048 103.454 173.086 103.304C173.123 103.192 173.142 103.024 173.142 102.8C173.142 102.725 173.142 102.65 173.142 102.576C173.18 102.501 173.198 102.426 173.198 102.351V100.389C173.198 100.165 173.18 99.9967 173.142 99.8846V99.6603C173.142 99.5855 173.123 99.5482 173.086 99.5482C173.086 99.5108 173.086 99.4734 173.086 99.436C173.086 99.2492 173.067 99.0997 173.03 98.9875C173.03 98.838 173.011 98.6885 172.973 98.539C172.936 98.4643 172.917 98.3895 172.917 98.3148C172.917 98.24 172.898 98.1653 172.861 98.0905C172.861 98.0531 172.842 98.0345 172.805 98.0345C172.805 97.9971 172.805 97.9597 172.805 97.9223C172.805 97.885 172.786 97.8663 172.748 97.8663C172.748 97.8289 172.748 97.7915 172.748 97.7541C172.711 97.6794 172.692 97.6233 172.692 97.586C172.692 97.5486 172.673 97.4925 172.636 97.4178C172.598 97.343 172.58 97.2869 172.58 97.2496C172.58 97.2122 172.561 97.1561 172.523 97.0814C172.486 97.044 172.467 97.0066 172.467 96.9693C172.467 96.9319 172.448 96.8945 172.411 96.8571C172.336 96.7076 172.298 96.6329 172.298 96.6329C172.261 96.5955 172.242 96.5768 172.242 96.5768C172.242 96.5394 172.223 96.5021 172.186 96.4647C172.148 96.4273 172.13 96.3899 172.13 96.3526L172.017 96.2404C172.017 96.2404 172.036 96.2778 172.073 96.3526V96.4647C172.111 96.5021 172.13 96.5768 172.13 96.6889C172.13 96.7263 172.13 96.7637 172.13 96.8011C172.167 96.8011 172.186 96.8384 172.186 96.9132C172.186 97.0253 172.205 97.1188 172.242 97.1935V97.4738C172.242 97.5486 172.242 97.6046 172.242 97.642C172.28 97.6794 172.298 97.7355 172.298 97.8102C172.298 98.1466 172.317 98.4082 172.355 98.5951V99.4921C172.392 99.679 172.411 99.978 172.411 100.389V102.52ZM170.105 99.6042C170.105 99.1184 170.086 98.5203 170.048 97.8102C170.011 97.1001 169.88 96.4273 169.655 95.7919C169.429 95.1565 169.073 94.6146 168.586 94.1661C168.136 93.6802 167.461 93.4373 166.561 93.4373H164.536C164.123 93.4746 163.767 93.6428 163.467 93.9418C163.167 94.2408 163.017 94.5959 163.017 95.007V107.621C163.017 108.032 163.167 108.387 163.467 108.686C163.767 108.985 164.123 109.135 164.536 109.135H166.561C167.461 109.135 168.136 108.911 168.586 108.462C169.073 108.014 169.429 107.472 169.655 106.836C169.88 106.164 170.011 105.491 170.048 104.818C170.086 104.108 170.105 103.51 170.105 103.024V99.6042ZM170.105 81.2715C170.105 80.7857 170.086 80.1876 170.048 79.4775C170.011 78.7674 169.88 78.0946 169.655 77.4592C169.429 76.8238 169.073 76.2819 168.586 75.8334C168.136 75.3475 167.461 75.1046 166.561 75.1046H164.536C164.123 75.1419 163.767 75.3101 163.467 75.6091C163.167 75.9081 163.017 76.2632 163.017 76.6743V89.2886C163.017 89.6997 163.167 90.0548 163.467 90.3538C163.767 90.6528 164.123 90.8023 164.536 90.8023H166.561C167.461 90.8023 168.136 90.578 168.586 90.1295C169.073 89.681 169.429 89.1391 169.655 88.5037C169.88 87.8309 170.011 87.1582 170.048 86.4854C170.086 85.7753 170.105 85.1773 170.105 84.6914V81.2715ZM172.523 86.8218C172.561 86.747 172.58 86.7097 172.58 86.7097C172.58 86.6723 172.598 86.6162 172.636 86.5415C172.673 86.4667 172.692 86.4107 172.692 86.3733C172.692 86.2985 172.711 86.2238 172.748 86.149C172.786 86.0743 172.805 86.0182 172.805 85.9808C172.805 85.9435 172.823 85.8874 172.861 85.8127C172.861 85.7379 172.861 85.6818 172.861 85.6445C172.898 85.5697 172.917 85.495 172.917 85.4202C172.955 85.2707 172.973 85.1212 172.973 84.9717C173.011 84.8222 173.048 84.6727 173.086 84.5232C173.123 84.4111 173.142 84.2429 173.142 84.0186C173.142 83.9439 173.142 83.8691 173.142 83.7944C173.18 83.7196 173.198 83.6449 173.198 83.5701V81.6079C173.198 81.3837 173.18 81.2155 173.142 81.1033V80.8791C173.142 80.8043 173.123 80.767 173.086 80.767C173.086 80.7296 173.086 80.6735 173.086 80.5988C173.086 80.4119 173.048 80.1316 172.973 79.7578C172.936 79.6831 172.917 79.6083 172.917 79.5336C172.917 79.4588 172.898 79.3841 172.861 79.3093C172.861 79.2719 172.842 79.2533 172.805 79.2533C172.805 79.2159 172.805 79.1785 172.805 79.1411C172.805 79.1038 172.786 79.0851 172.748 79.0851C172.748 79.0477 172.748 79.0103 172.748 78.9729C172.711 78.8982 172.692 78.8421 172.692 78.8047C172.692 78.7674 172.673 78.7113 172.636 78.6366C172.598 78.5618 172.58 78.5057 172.58 78.4684C172.58 78.431 172.561 78.3749 172.523 78.3002C172.486 78.2628 172.467 78.2254 172.467 78.1881C172.467 78.1507 172.448 78.1133 172.411 78.0759C172.336 77.9264 172.298 77.8517 172.298 77.8517C172.261 77.8143 172.242 77.7956 172.242 77.7956C172.242 77.7582 172.223 77.7209 172.186 77.6835C172.148 77.6461 172.13 77.6087 172.13 77.5714C172.092 77.534 172.073 77.4966 172.073 77.4592H172.017C172.017 77.4592 172.036 77.4966 172.073 77.5714V77.6835C172.111 77.7209 172.13 77.7956 172.13 77.9077C172.13 77.9451 172.13 77.9825 172.13 78.0199C172.167 78.0199 172.186 78.0572 172.186 78.132C172.186 78.2441 172.205 78.3376 172.242 78.4123V78.6926C172.242 78.7674 172.242 78.8234 172.242 78.8608C172.28 78.8982 172.298 78.9542 172.298 79.029C172.298 79.3654 172.317 79.627 172.355 79.8139V80.7109C172.392 80.8978 172.411 81.1968 172.411 81.6079V83.7383C172.373 83.8131 172.355 83.9065 172.355 84.0186V85.3081C172.317 85.4576 172.298 85.6071 172.298 85.7566C172.298 85.8687 172.298 85.9809 172.298 86.093C172.298 86.1677 172.28 86.2238 172.242 86.2612C172.242 86.2985 172.242 86.3546 172.242 86.4294V86.7657C172.205 86.8405 172.186 86.9339 172.186 87.0461C172.186 87.1208 172.167 87.1956 172.13 87.2703C172.13 87.3451 172.111 87.4011 172.073 87.4385V87.5506L172.017 87.6627C172.017 87.6627 172.055 87.6441 172.13 87.6067V87.5506L172.186 87.4946C172.223 87.4572 172.242 87.4385 172.242 87.4385C172.242 87.4011 172.261 87.3637 172.298 87.3264C172.336 87.2516 172.373 87.1769 172.411 87.1021C172.448 86.99 172.486 86.8966 172.523 86.8218Z" fill="#F4EDE8"/>
<path d="M194.509 108.35C194.509 109.023 194.566 109.527 194.678 109.864C194.828 110.163 194.978 110.406 195.128 110.593C195.278 110.742 195.409 110.892 195.522 111.041C195.672 111.191 195.747 111.434 195.747 111.77H180.446C180.221 111.77 180.015 111.677 179.827 111.49C179.64 111.303 179.546 111.097 179.546 110.873C179.546 111.097 179.452 111.303 179.265 111.49C179.115 111.677 178.909 111.77 178.646 111.77H175.721C175.721 111.434 175.777 111.191 175.89 111.041C176.04 110.892 176.19 110.742 176.34 110.593C176.49 110.406 176.621 110.163 176.734 109.864C176.884 109.565 176.959 109.098 176.959 108.462V94.7828C176.846 93.6241 176.321 92.7832 175.383 92.2599C175.796 91.9983 176.321 91.8675 176.959 91.8675V75.8334C176.959 75.198 176.884 74.7308 176.734 74.4318C176.621 74.1328 176.49 73.9086 176.34 73.7591C176.19 73.5722 176.04 73.404 175.89 73.2545C175.777 73.105 175.721 72.862 175.721 72.5257H178.702C178.927 72.5257 179.134 72.6191 179.321 72.806C179.509 72.9555 179.602 73.161 179.602 73.4227C179.602 72.8247 179.902 72.5257 180.502 72.5257H195.747C195.747 72.862 195.672 73.105 195.522 73.2545C195.409 73.404 195.278 73.5722 195.128 73.7591C194.978 73.9086 194.828 74.1515 194.678 74.4879C194.566 74.7869 194.509 75.2728 194.509 75.9455V83.4019C193.197 83.4019 192.184 83.159 191.472 82.6731C190.797 82.1499 190.29 81.5705 189.953 80.9352C189.54 80.225 189.315 79.3841 189.278 78.4123V76.6743C189.278 76.2632 189.128 75.9081 188.828 75.6091C188.528 75.3101 188.172 75.1419 187.759 75.1046H183.709C183.296 75.1419 182.94 75.3101 182.64 75.6091C182.34 75.9081 182.19 76.2632 182.19 76.6743V89.2886C182.19 89.6997 182.34 90.0548 182.64 90.3538C182.94 90.6528 183.296 90.8023 183.709 90.8023H184.103C184.515 90.8023 184.853 90.6528 185.115 90.3538C185.415 90.0548 185.565 89.6997 185.565 89.2886V89.2325C185.603 88.6719 185.753 88.186 186.015 87.7749C186.24 87.4011 186.578 87.0647 187.028 86.7657C187.478 86.4667 188.134 86.3172 188.997 86.3172V97.9223C188.134 97.9223 187.478 97.7728 187.028 97.4738C186.578 97.1748 186.24 96.8384 186.015 96.4647C185.753 96.0536 185.603 95.5677 185.565 95.007C185.565 94.5959 185.415 94.2408 185.115 93.9418C184.853 93.6428 184.515 93.4746 184.103 93.4373H183.709C183.296 93.4746 182.94 93.6428 182.64 93.9418C182.34 94.2408 182.19 94.5959 182.19 95.007V107.621C182.19 108.032 182.34 108.387 182.64 108.686C182.94 108.985 183.296 109.135 183.709 109.135H187.759C188.172 109.135 188.528 108.985 188.828 108.686C189.128 108.387 189.278 108.032 189.278 107.621V105.827C189.315 104.893 189.54 104.071 189.953 103.36C190.29 102.725 190.797 102.146 191.472 101.623C192.184 101.099 193.197 100.838 194.509 100.838V108.35ZM179.996 89.5128C179.996 89.326 179.977 89.1204 179.94 88.8961C179.94 88.6719 179.94 88.4476 179.94 88.2234V86.99C179.902 86.1677 179.884 85.3828 179.884 84.6353C179.884 83.8878 179.865 83.1777 179.827 82.5049C179.79 82.2059 179.771 81.9069 179.771 81.6079C179.771 81.3089 179.752 81.0286 179.715 80.767C179.715 80.468 179.696 80.2063 179.659 79.9821C179.659 79.7578 179.659 79.5523 179.659 79.3654C179.659 79.1785 179.64 79.0103 179.602 78.8608C179.602 78.7113 179.602 78.5805 179.602 78.4684V78.1881C179.565 78.1881 179.546 78.2067 179.546 78.2441V78.4684C179.546 78.5805 179.527 78.7113 179.49 78.8608C179.49 79.0103 179.49 79.1785 179.49 79.3654C179.49 79.5523 179.471 79.7578 179.434 79.9821C179.434 80.2063 179.434 80.468 179.434 80.767C179.396 81.0286 179.377 81.3089 179.377 81.6079C179.377 81.9069 179.359 82.2059 179.321 82.5049C179.284 83.1777 179.265 83.8878 179.265 84.6353C179.265 85.3828 179.246 86.1677 179.209 86.99V88.2234C179.209 88.4476 179.19 88.6719 179.152 88.8961C179.152 89.1204 179.152 89.326 179.152 89.5128V94.7267C179.152 95.0257 179.171 95.25 179.209 95.3995V97.2496C179.209 97.6607 179.209 98.0718 179.209 98.483C179.246 98.8567 179.265 99.2305 179.265 99.6042C179.265 100.015 179.265 100.389 179.265 100.725C179.302 101.062 179.321 101.398 179.321 101.735C179.359 102.071 179.377 102.389 179.377 102.688C179.377 102.949 179.396 103.23 179.434 103.529C179.434 103.79 179.434 104.033 179.434 104.257C179.471 104.482 179.49 104.687 179.49 104.874C179.49 105.061 179.49 105.248 179.49 105.435C179.527 105.584 179.546 105.696 179.546 105.771V106.052C179.546 106.089 179.565 106.108 179.602 106.108V105.771C179.602 105.696 179.602 105.584 179.602 105.435C179.64 105.248 179.659 105.061 179.659 104.874C179.659 104.687 179.659 104.482 179.659 104.257C179.696 104.033 179.715 103.79 179.715 103.529C179.752 103.23 179.771 102.949 179.771 102.688C179.771 102.389 179.79 102.071 179.827 101.735C179.827 101.398 179.827 101.062 179.827 100.725C179.865 100.389 179.884 100.015 179.884 99.6042C179.884 99.2305 179.884 98.8567 179.884 98.483C179.921 98.0718 179.94 97.6607 179.94 97.2496V96.0162C179.94 95.7172 179.959 95.5116 179.996 95.3995V89.5128Z" fill="#F4EDE8"/>
<path d="M217.139 114.125C217.551 114.199 217.833 114.33 217.983 114.517C218.17 114.704 218.301 114.891 218.376 115.078C218.451 115.302 218.489 115.545 218.489 115.807C217.289 115.807 216.164 115.657 215.114 115.358C214.064 115.059 213.126 114.573 212.301 113.9C211.514 113.228 210.876 112.349 210.388 111.265C209.938 110.182 209.713 108.855 209.713 107.285V99.6042C209.713 99.1184 209.695 98.5203 209.657 97.8102C209.62 97.1001 209.488 96.4273 209.263 95.7919C209.038 95.1565 208.682 94.6146 208.195 94.1661C207.745 93.6802 207.07 93.4373 206.17 93.4373H203.863C203.526 93.512 203.226 93.6989 202.963 93.9979C202.738 94.2595 202.626 94.5772 202.626 94.951V108.35C202.626 109.023 202.682 109.527 202.794 109.864C202.944 110.163 203.094 110.406 203.244 110.593C203.394 110.742 203.526 110.892 203.638 111.041C203.788 111.191 203.863 111.434 203.863 111.77H200.882C200.657 111.77 200.451 111.677 200.263 111.49C200.075 111.303 199.982 111.097 199.982 110.873C199.982 111.097 199.888 111.303 199.7 111.49C199.55 111.677 199.344 111.77 199.082 111.77H196.157C196.157 111.434 196.213 111.191 196.325 111.041C196.475 110.892 196.625 110.742 196.775 110.593C196.925 110.406 197.057 110.163 197.169 109.864C197.319 109.565 197.394 109.098 197.394 108.462V94.7828C197.282 93.6241 196.757 92.7832 195.819 92.2599C196.232 91.9983 196.757 91.8675 197.394 91.8675V75.8334C197.394 75.198 197.319 74.7308 197.169 74.4318C197.057 74.1328 196.925 73.9086 196.775 73.7591C196.625 73.5722 196.475 73.404 196.325 73.2545C196.213 73.105 196.157 72.862 196.157 72.5257H199.138C199.363 72.5257 199.569 72.6191 199.757 72.806C199.944 72.9555 200.038 73.161 200.038 73.4227C200.038 72.8247 200.338 72.5257 200.938 72.5257H206.226C207.426 72.5257 208.551 72.7499 209.601 73.1984C210.651 73.6469 211.57 74.2636 212.357 75.0485C213.145 75.796 213.764 76.693 214.214 77.7395C214.664 78.7861 214.907 79.8886 214.945 81.0473V84.6914C214.945 86.2612 214.57 87.7001 213.82 89.0083C213.07 90.3164 212.057 91.3629 210.782 92.1478C212.057 92.8953 213.07 93.9418 213.82 95.2874C214.57 96.5955 214.945 98.0345 214.945 99.6042V107.061C214.945 107.846 214.945 108.649 214.945 109.471C214.982 110.256 215.076 110.985 215.226 111.658C215.376 112.293 215.601 112.835 215.901 113.284C216.201 113.732 216.614 114.013 217.139 114.125ZM212.02 83.7383C211.982 83.8131 211.964 83.9065 211.964 84.0186V85.3081C211.926 85.4576 211.907 85.6071 211.907 85.7566C211.907 85.8687 211.907 85.9809 211.907 86.093C211.907 86.1677 211.889 86.2238 211.851 86.2612C211.851 86.2985 211.851 86.3546 211.851 86.4294V86.7657C211.814 86.8405 211.795 86.9339 211.795 87.0461C211.795 87.1208 211.776 87.1956 211.739 87.2703C211.739 87.3451 211.72 87.4011 211.682 87.4385V87.5506L211.626 87.6627C211.626 87.6627 211.664 87.6441 211.739 87.6067V87.5506L211.795 87.4946C211.832 87.4572 211.851 87.4385 211.851 87.4385C211.851 87.4011 211.87 87.3637 211.907 87.3264C211.945 87.2516 211.982 87.1769 212.02 87.1021C212.057 86.99 212.095 86.8966 212.132 86.8218C212.17 86.747 212.189 86.7097 212.189 86.7097C212.189 86.6723 212.207 86.6162 212.245 86.5415C212.282 86.4667 212.301 86.4107 212.301 86.3733C212.301 86.2985 212.32 86.2238 212.357 86.149C212.395 86.0743 212.414 86.0182 212.414 85.9808C212.414 85.9435 212.432 85.8874 212.47 85.8127C212.47 85.7379 212.47 85.6818 212.47 85.6445C212.507 85.5697 212.526 85.495 212.526 85.4202C212.564 85.2707 212.582 85.1212 212.582 84.9717C212.62 84.8222 212.657 84.6727 212.695 84.5232C212.732 84.4111 212.751 84.2429 212.751 84.0186C212.751 83.9439 212.751 83.8691 212.751 83.7944C212.789 83.7196 212.807 83.6449 212.807 83.5701V81.6079C212.807 81.3837 212.789 81.2155 212.751 81.1033V80.8791C212.751 80.8043 212.732 80.767 212.695 80.767C212.695 80.7296 212.695 80.6735 212.695 80.5988C212.695 80.4119 212.657 80.1316 212.582 79.7578C212.545 79.6831 212.526 79.6083 212.526 79.5336C212.526 79.4588 212.507 79.3841 212.47 79.3093C212.47 79.2719 212.451 79.2533 212.414 79.2533C212.414 79.2159 212.414 79.1785 212.414 79.1411C212.414 79.1038 212.395 79.0851 212.357 79.0851C212.357 79.0477 212.357 79.0103 212.357 78.9729C212.32 78.8982 212.301 78.8421 212.301 78.8047C212.301 78.7674 212.282 78.7113 212.245 78.6366C212.207 78.5618 212.189 78.5057 212.189 78.4684C212.189 78.431 212.17 78.3749 212.132 78.3002C212.095 78.2628 212.076 78.2254 212.076 78.1881C212.076 78.1507 212.057 78.1133 212.02 78.0759C211.945 77.9264 211.907 77.8517 211.907 77.8517C211.87 77.8143 211.851 77.7956 211.851 77.7956C211.851 77.7582 211.832 77.7209 211.795 77.6835C211.757 77.6461 211.739 77.6087 211.739 77.5714C211.701 77.534 211.682 77.4966 211.682 77.4592H211.626C211.626 77.4592 211.645 77.4966 211.682 77.5714V77.6835C211.72 77.7209 211.739 77.7956 211.739 77.9077C211.739 77.9451 211.739 77.9825 211.739 78.0199C211.776 78.0199 211.795 78.0572 211.795 78.132C211.795 78.2441 211.814 78.3376 211.851 78.4123V78.6926C211.851 78.7674 211.851 78.8234 211.851 78.8608C211.889 78.8982 211.907 78.9542 211.907 79.029C211.907 79.3654 211.926 79.627 211.964 79.8139V80.7109C212.001 80.8978 212.02 81.1968 212.02 81.6079V83.7383ZM200.432 89.5128C200.432 89.326 200.413 89.1204 200.376 88.8961C200.376 88.6719 200.376 88.4476 200.376 88.2234V86.99C200.338 86.1677 200.319 85.3828 200.319 84.6353C200.319 83.8878 200.3 83.1777 200.263 82.5049C200.225 82.2059 200.207 81.9069 200.207 81.6079C200.207 81.3089 200.188 81.0286 200.15 80.767C200.15 80.468 200.132 80.2063 200.094 79.9821C200.094 79.7578 200.094 79.5523 200.094 79.3654C200.094 79.1785 200.075 79.0103 200.038 78.8608C200.038 78.7113 200.038 78.5805 200.038 78.4684V78.1881C200 78.1881 199.982 78.2067 199.982 78.2441V78.4684C199.982 78.5805 199.963 78.7113 199.925 78.8608C199.925 79.0103 199.925 79.1785 199.925 79.3654C199.925 79.5523 199.907 79.7578 199.869 79.9821C199.869 80.2063 199.869 80.468 199.869 80.767C199.832 81.0286 199.813 81.3089 199.813 81.6079C199.813 81.9069 199.794 82.2059 199.757 82.5049C199.719 83.1777 199.7 83.8878 199.7 84.6353C199.7 85.3828 199.682 86.1677 199.644 86.99V88.2234C199.644 88.4476 199.625 88.6719 199.588 88.8961C199.588 89.1204 199.588 89.326 199.588 89.5128V94.7267C199.588 95.0257 199.607 95.25 199.644 95.3995V97.2496C199.644 97.6607 199.644 98.0718 199.644 98.483C199.682 98.8567 199.7 99.2305 199.7 99.6042C199.7 100.015 199.7 100.389 199.7 100.725C199.738 101.062 199.757 101.398 199.757 101.735C199.794 102.071 199.813 102.389 199.813 102.688C199.813 102.949 199.832 103.23 199.869 103.529C199.869 103.79 199.869 104.033 199.869 104.257C199.907 104.482 199.925 104.687 199.925 104.874C199.925 105.061 199.925 105.248 199.925 105.435C199.963 105.584 199.982 105.696 199.982 105.771V106.052C199.982 106.089 200 106.108 200.038 106.108V105.771C200.038 105.696 200.038 105.584 200.038 105.435C200.075 105.248 200.094 105.061 200.094 104.874C200.094 104.687 200.094 104.482 200.094 104.257C200.132 104.033 200.15 103.79 200.15 103.529C200.188 103.23 200.207 102.949 200.207 102.688C200.207 102.389 200.225 102.071 200.263 101.735C200.263 101.398 200.263 101.062 200.263 100.725C200.3 100.389 200.319 100.015 200.319 99.6042C200.319 99.2305 200.319 98.8567 200.319 98.483C200.357 98.0718 200.376 97.6607 200.376 97.2496V96.0162C200.376 95.7172 200.394 95.5116 200.432 95.3995V89.5128ZM209.713 81.2715C209.713 80.7857 209.695 80.1876 209.657 79.4775C209.62 78.7674 209.488 78.0946 209.263 77.4592C209.038 76.8238 208.682 76.2819 208.195 75.8334C207.745 75.3475 207.07 75.1046 206.17 75.1046H204.144C203.732 75.1419 203.376 75.3101 203.076 75.6091C202.776 75.9081 202.626 76.2632 202.626 76.6743V89.2886C202.626 89.6997 202.776 90.0548 203.076 90.3538C203.376 90.6528 203.732 90.8023 204.144 90.8023H206.17C207.07 90.8023 207.745 90.578 208.195 90.1295C208.682 89.681 209.038 89.1391 209.263 88.5037C209.488 87.8309 209.62 87.1582 209.657 86.4854C209.695 85.7753 209.713 85.1773 209.713 84.6914V81.2715ZM213.482 111.994C213.482 111.994 213.464 111.976 213.426 111.938L213.37 111.882C213.332 111.807 213.295 111.733 213.257 111.658C213.257 111.583 213.22 111.508 213.145 111.434C213.107 111.321 213.07 111.209 213.032 111.097C212.995 110.948 212.957 110.78 212.92 110.593C212.845 110.219 212.807 109.864 212.807 109.527C212.77 109.341 212.751 109.154 212.751 108.967C212.751 108.743 212.751 108.5 212.751 108.238V105.267C212.751 105.005 212.751 104.743 212.751 104.482C212.751 104.22 212.77 103.94 212.807 103.641C212.807 103.379 212.807 103.118 212.807 102.856C212.807 102.594 212.789 102.333 212.751 102.071V101.286C212.751 100.912 212.732 100.651 212.695 100.501C212.695 100.24 212.676 99.9967 212.639 99.7724C212.639 99.5108 212.62 99.2679 212.582 99.0436C212.507 98.5203 212.432 98.0718 212.357 97.6981C212.32 97.5112 212.282 97.343 212.245 97.1935C212.207 97.0066 212.151 96.8198 212.076 96.6329C212.001 96.446 211.945 96.2965 211.907 96.1844C211.87 96.0722 211.814 95.9601 211.739 95.848C211.664 95.7359 211.607 95.6424 211.57 95.5677C211.532 95.4929 211.495 95.4182 211.457 95.3434C211.42 95.3434 211.382 95.3247 211.345 95.2874C211.307 95.2874 211.289 95.2687 211.289 95.2313L211.345 95.2874C211.345 95.3247 211.364 95.3621 211.401 95.3995C211.401 95.4369 211.401 95.4742 211.401 95.5116C211.439 95.5116 211.457 95.549 211.457 95.6237C211.495 95.6611 211.514 95.6985 211.514 95.7359C211.514 95.7732 211.532 95.8293 211.57 95.9041C211.607 96.0536 211.664 96.3152 211.739 96.6889C211.776 96.8758 211.795 97.0627 211.795 97.2496C211.832 97.4365 211.87 97.6233 211.907 97.8102C211.907 97.9971 211.907 98.2027 211.907 98.4269C211.945 98.6138 211.964 98.838 211.964 99.0997V106.052C211.964 106.201 211.964 106.332 211.964 106.444C212.001 106.556 212.02 106.687 212.02 106.836C212.02 107.098 212.02 107.36 212.02 107.621C212.057 107.846 212.095 108.07 212.132 108.294C212.17 108.518 212.189 108.743 212.189 108.967C212.226 109.191 212.264 109.397 212.301 109.583C212.376 109.808 212.432 110.013 212.47 110.2C212.507 110.35 212.564 110.518 212.639 110.705C212.714 110.892 212.77 111.041 212.807 111.153C212.845 111.265 212.901 111.378 212.976 111.49L213.089 111.602C213.126 111.639 213.145 111.677 213.145 111.714C213.145 111.714 213.164 111.733 213.201 111.77L213.426 111.994H213.482Z" fill="#F4EDE8"/>
<ellipse cx="3.01354" cy="3.00339" rx="3.01354" ry="3.00339" transform="matrix(1 0 0 -1 226.934 96.0322)" fill="#999591"/>
<ellipse cx="3.01354" cy="3.00339" rx="3.01354" ry="3.00339" transform="matrix(1 0 0 -1 35.0722 96.0322)" fill="#999591"/>
</svg>
